<?xml version="1.0" encoding="UTF-8" standalone="no"?>
<!-- Created with Inkscape (http://www.inkscape.org/) -->

<svg
   version="1.1"
   id="svg1"
   width="364.54315"
   height="362.09271"
   viewBox="0 0 364.54315 362.09271"
   sodipodi:docname="butterfly_Twintail_optimized.png"
   xmlns:inkscape="http://www.inkscape.org/namespaces/inkscape"
   xmlns:sodipodi="http://sodipodi.sourceforge.net/DTD/sodipodi-0.dtd"
   xmlns="http://www.w3.org/2000/svg"
   xmlns:svg="http://www.w3.org/2000/svg">
  <defs
     id="defs1" />
  <sodipodi:namedview
     id="namedview1"
     pagecolor="#ffffff"
     bordercolor="#000000"
     borderopacity="0.25"
     inkscape:showpageshadow="2"
     inkscape:pageopacity="0.0"
     inkscape:pagecheckerboard="0"
     inkscape:deskcolor="#d1d1d1" />
  <g
     inkscape:groupmode="layer"
     inkscape:label="Image"
     id="g1"
     transform="translate(-0.05409551,0.00702897)">
    <path
       style="fill:#000000"
       d="m 245.91461,362.08539 c -0.0133,0.0133 -0.30004,-0.39647 -0.63719,-0.9106 -0.33715,-0.51414 -0.94714,-1.58279 -1.35553,-2.37479 -0.4084,-0.792 -0.9425,-1.9368 -1.18689,-2.544 -0.2444,-0.6072 -0.6159,-1.6161 -0.82557,-2.24199 -0.20966,-0.6259 -0.55288,-1.79723 -0.76269,-2.60297 -0.20981,-0.80574 -0.50754,-2.08644 -0.66162,-2.84601 -0.15407,-0.75957 -0.36732,-1.92103 -0.47387,-2.58103 -0.10656,-0.66 -0.27981,-1.8696 -0.38502,-2.688 -0.1052,-0.8184 -0.27949,-2.3736 -0.38731,-3.456 -0.10782,-1.0824 -0.32675,-3.6528 -0.48651,-5.712 -0.15975,-2.0592 -0.37756,-4.7376 -0.48402,-5.952 -0.10646,-1.2144 -0.28144,-2.9424 -0.38886,-3.84 -0.10741,-0.8976 -0.30111,-2.3016 -0.43045,-3.12 -0.12933,-0.8184 -0.32422,-1.9416 -0.43308,-2.496 -0.10887,-0.5544 -0.37311,-1.69916 -0.58721,-2.5439 -0.2141,-0.84475 -0.57483,-2.07595 -0.80163,-2.736 -0.22681,-0.66006 -0.57522,-1.5889 -0.77426,-2.0641 -0.19904,-0.4752 -1.03889,-2.2248 -1.86632,-3.888 -0.82744,-1.6632 -2.05524,-4.0608 -2.72844,-5.328 -0.67321,-1.2672 -1.5925,-2.9736 -2.04288,-3.792 -0.45038,-0.8184 -1.42349,-2.5464 -2.16247,-3.84 -0.73899,-1.2936 -1.88493,-3.2592 -2.54655,-4.368 -0.66162,-1.1088 -1.79293,-2.9664 -2.51403,-4.128 -0.7211,-1.1616 -1.95069,-3.1056 -2.73241,-4.32 -0.78173,-1.2144 -2.12332,-3.24722 -2.98131,-4.51738 -0.858,-1.27016 -2.23752,-3.27205 -3.06562,-4.44864 -0.82809,-1.17659 -2.12876,-2.98856 -2.89037,-4.02661 -0.76161,-1.03806 -2.06189,-2.77297 -2.8895,-3.85537 -0.82761,-1.0824 -2.11032,-2.724 -2.85046,-3.648 -0.74013,-0.924 -1.96043,-2.41797 -2.71176,-3.31993 -0.75133,-0.90197 -1.85086,-2.19797 -2.44341,-2.88 -0.59255,-0.68204 -1.87969,-2.12567 -2.86032,-3.20807 -0.98063,-1.0824 -3.00476,-3.19041 -4.49807,-4.68446 l -2.71512,-2.71646 -0.98493,0.0765 c -0.54171,0.042 -2.38893,0.0731 -4.10493,0.0691 -2.18178,-0.005 -3.6252,-0.057 -4.8,-0.17222 -0.924,-0.0907 -2.2632,-0.25244 -2.976,-0.35949 -0.7128,-0.10706 -2.02157,-0.34544 -2.90837,-0.52974 -0.8868,-0.18431 -2.28217,-0.52735 -3.10082,-0.76232 -0.81865,-0.23497 -2.03041,-0.62367 -2.6928,-0.86378 -0.6624,-0.24011 -1.66137,-0.63176 -2.21994,-0.87034 -0.55857,-0.23858 -1.45084,-0.65185 -1.98283,-0.91837 -0.53198,-0.26652 -1.31284,-0.68077 -1.73524,-0.92056 -0.4224,-0.23979 -1.31732,-0.79621 -1.98871,-1.23649 -0.67139,-0.44029 -1.77299,-1.2391 -2.448,-1.77513 -0.67501,-0.53604 -1.87529,-1.62731 -2.66729,-2.42506 -0.792,-0.79774 -1.82392,-1.94649 -2.29315,-2.55278 -0.46923,-0.60628 -1.09944,-1.46953 -1.40046,-1.91833 -0.30103,-0.4488 -0.79682,-1.24124 -1.10175,-1.76098 -0.30493,-0.51974 -0.80376,-1.47014 -1.10852,-2.112 -0.30476,-0.64186 -0.71514,-1.57742 -0.91194,-2.07902 -0.19681,-0.5016 -0.50716,-1.3656 -0.68966,-1.92 -0.18251,-0.5544 -0.48116,-1.6128 -0.66368,-2.352 -0.18252,-0.7392 -0.43858,-1.9704 -0.56902,-2.736 -0.13044,-0.7656 -0.2648,-1.72299 -0.29858,-2.12752 -0.0338,-0.40454 -0.0948,-0.78945 -0.13548,-0.85535 -0.0524,-0.0848 -0.36394,0.10749 -1.06691,0.65869 -0.54607,0.42818 -1.59765,1.30947 -2.33685,1.95842 -0.7392,0.64896 -2.3204,2.15233 -3.51378,3.34084 -1.19338,1.18851 -3.45876,3.52172 -5.03418,5.18492 -1.57542,1.6632 -3.80275,3.95727 -4.94963,5.09793 -1.14688,1.14066 -2.76138,2.68484 -3.58778,3.43151 -0.8264,0.74667 -2.05066,1.81579 -2.72059,2.3758 -0.66992,0.56002 -1.82284,1.47334 -2.56204,2.02961 -0.7392,0.55626 -2.0784,1.49786 -2.976,2.09243 -0.8976,0.59458 -2.256,1.43811 -3.01866,1.87451 -0.76266,0.4364 -2.16666,1.17059 -3.12,1.63154 -0.95334,0.46095 -2.38134,1.09723 -3.17334,1.41396 -0.792,0.31672 -2.1096,0.79524 -2.928,1.06338 -0.8184,0.26814 -2.0496,0.64061 -2.736,0.82771 -0.6864,0.18709 -1.9824,0.49011 -2.88,0.67336 -0.8976,0.18325 -2.234324,0.42242 -2.970497,0.53149 -0.736173,0.10908 -1.945773,0.26012 -2.688,0.33565 -0.742227,0.0755 -1.440115,0.13818 -1.550863,0.13922 -0.110748,0.001 -0.564348,-0.27178 -1.008,-0.60629 -0.443652,-0.3345 -1.49784,-1.10345 -2.34264,-1.70879 -0.8448,-0.60533 -2.6808,-1.87986 -4.08,-2.83229 -1.3992,-0.95242 -4.27376,-2.89878 -6.387911,-4.32523 -2.114151,-1.42646 -4.619751,-3.14735 -5.568,-3.8242 -0.948249,-0.67685 -2.242489,-1.61983 -2.876089,-2.09552 -0.6336,-0.47569 -1.768023,-1.35429 -2.520939,-1.95245 -0.752917,-0.59816 -1.984117,-1.61583 -2.736,-2.26149 -0.751884,-0.64565 -2.204768,-1.99515 -3.228633,-2.99888 -1.023865,-1.00373 -2.37003,-2.39285 -2.991479,-3.08693 -0.621449,-0.69408 -1.555851,-1.7959 -2.076448,-2.4485 -0.520598,-0.65259 -1.183232,-1.5205 -1.472521,-1.92868 L 52.944,217.1547 52.128,216.9038 c -0.4488,-0.13799 -1.3776,-0.45751 -2.064,-0.71003 -0.6864,-0.25252 -2.0256,-0.79112 -2.976,-1.19688 -0.9504,-0.40576 -3.024,-1.38079 -4.608,-2.16673 -1.584,-0.78594 -4.9752,-2.55932 -7.536,-3.94085 -2.5608,-1.38153 -5.6712,-3.03697 -6.912,-3.67875 -1.2408,-0.64179 -3.0336,-1.53973 -3.984,-1.99541 -0.9504,-0.45569 -2.338927,-1.08967 -3.085617,-1.40884 -0.746689,-0.31917 -1.803928,-0.73566 -2.34942,-0.92553 -0.545492,-0.18987 -1.489764,-0.4751 -2.098383,-0.63383 -0.608619,-0.15874 -2.48898,-0.56818 -4.17858,-0.90987 -1.6896,-0.34168 -3.5707693,-0.74774 -4.1803762,-0.90234 -0.6096069,-0.15461 -1.4587773,-0.4103 -1.8870452,-0.5682 -0.428268,-0.15791 -1.0958987,-0.44592 -1.4836239,-0.64003 C 4.3972296,197.0324 3.8187565,196.68829 3.4994588,196.46183 3.1801611,196.23536 2.6536747,195.76652 2.329489,195.41997 2.0053032,195.07341 1.5582768,194.48388 1.3360969,194.1099 1.113917,193.73591 0.81107163,193.06966 0.66310715,192.62934 0.51514266,192.18902 0.31739147,191.44609 0.22366006,190.97838 0.1054377,190.38846 0.05350312,189.68694 0.05410061,188.688 c 5.959e-4,-0.99627 0.05210838,-1.68233 0.16716759,-2.2264 0.0914685,-0.43252 0.2782934,-1.12372 0.41516655,-1.536 0.13687314,-0.41228 0.43423375,-1.1384 0.66080145,-1.6136 0.2265676,-0.4752 0.6676094,-1.2528 0.9800929,-1.728 0.3124835,-0.4752 0.8930147,-1.2528 1.2900692,-1.728 0.3970546,-0.4752 1.1725569,-1.296 1.7233384,-1.824 0.5507816,-0.528 1.423988,-1.29914 1.9404587,-1.71364 0.5164707,-0.4145 1.398935,-1.0756 1.9610318,-1.46912 0.5620967,-0.39351 1.6073938,-1.07357 2.3228838,-1.51125 0.715489,-0.43768 1.955826,-1.14584 2.756304,-1.57368 0.800479,-0.42785 2.139679,-1.09957 2.976,-1.49273 0.836322,-0.39315 1.995785,-0.91871 2.576585,-1.16789 0.5808,-0.24919 1.8552,-0.76693 2.832,-1.15053 0.9768,-0.38359 2.64,-1.00124 3.696,-1.37254 1.056,-0.3713 2.8488,-0.96346 3.984,-1.31592 1.1352,-0.35245 2.9064,-0.87683 3.936,-1.16529 1.0296,-0.28846 3.06,-0.82209 4.512,-1.18584 1.452,-0.36376 3.5256,-0.85614 4.608,-1.09417 1.0824,-0.23804 2.724,-0.58436 3.648,-0.7696 0.924,-0.18525 2.6304,-0.50855 3.792,-0.71844 1.1616,-0.2099 3.2352,-0.55585 4.608,-0.76879 1.3728,-0.21294 3.2952,-0.49451 4.272,-0.62572 0.9768,-0.13121 2.964,-0.36913 4.416,-0.52871 1.452,-0.15959 3.7632,-0.37688 5.136,-0.48288 1.3728,-0.106 3.377133,-0.23694 4.454074,-0.29099 1.076941,-0.054 3.280141,-0.0979 4.896,-0.0973 1.615859,5e-4 3.780326,0.0435 4.809926,0.0955 1.0296,0.052 2.736,0.16082 3.792,0.24181 1.056,0.081 3.0216,0.25554 4.368,0.38792 1.3464,0.13237 5.1912,0.56126 8.544,0.9531 3.3528,0.39183 6.6792,0.77834 7.392,0.8589 0.7128,0.0806 2.4408,0.25205 3.84,0.38108 1.3992,0.12902 2.93164,0.26407 3.40543,0.30009 l 0.86142,0.0655 -2.97342,0.98478 c -1.63539,0.54164 -3.9224,1.34146 -5.08225,1.7774 -1.15985,0.43593 -2.90945,1.1286 -3.888,1.53927 -0.97855,0.41067 -2.36238,1.0122 -3.07518,1.33674 -0.7128,0.32453 -2.161926,1.03603 -3.220281,1.5811 -1.058354,0.54507 -2.635154,1.41331 -3.504,1.92941 -0.868845,0.5161 -2.184519,1.34936 -2.923719,1.85168 -0.7392,0.50233 -1.6896,1.17318 -2.112,1.49078 -0.4224,0.31761 -1.2648,0.9889 -1.872,1.49176 -0.6072,0.50286 -1.703133,1.49973 -2.435406,2.21528 -0.732273,0.71554 -1.772931,1.81939 -2.312573,2.45299 -0.539642,0.6336 -1.30081,1.584 -1.691485,2.112 -0.390674,0.528 -1.045542,1.49496 -1.455261,2.1488 -0.409719,0.65384 -1.044162,1.7785 -1.409872,2.49924 -0.365711,0.72074 -0.884501,1.84461 -1.152867,2.49747 -0.268366,0.65287 -0.697918,1.83941 -0.95456,2.63676 -0.256643,0.79735 -0.519771,1.67626 -0.58473,1.95313 -0.111339,0.47455 -0.149198,0.52014 -0.660676,0.79569 -0.298414,0.16077 -1.03937,0.70345 -1.64657,1.20595 -0.6072,0.50251 -1.3632,1.03991 -1.68,1.19423 -0.3168,0.15432 -0.833476,0.34631 -1.148169,0.42665 -0.314694,0.0803 -0.830934,0.14608 -1.1472,0.14608 -0.316267,0 -0.533991,0.0359 -0.483831,0.0798 0.05016,0.0439 0.266748,0.12962 0.481307,0.19049 0.214559,0.0609 0.819359,0.20244 1.344,0.31461 0.645459,0.13799 1.455655,0.22004 2.505692,0.25375 0.982121,0.0315 1.844727,0.007 2.349729,-0.0669 0.438862,-0.0642 1.144552,-0.22603 1.568201,-0.35969 0.423649,-0.13365 1.138489,-0.42778 1.588533,-0.65361 0.450044,-0.22583 1.162844,-0.66704 1.584,-0.98047 0.421156,-0.31343 1.162218,-0.98588 1.646804,-1.49434 0.484586,-0.50845 1.182102,-1.34729 1.550035,-1.86408 0.367933,-0.51679 0.978341,-1.47962 1.356464,-2.13962 0.378122,-0.66 1.003361,-1.848 1.389419,-2.64 0.386059,-0.792 1.245572,-2.67707 1.910029,-4.18904 0.664457,-1.51197 1.514294,-3.41253 1.888527,-4.22347 0.374232,-0.81095 0.986337,-2.03628 1.360233,-2.72297 0.373896,-0.68668 0.961255,-1.68052 1.305242,-2.20852 0.343987,-0.528 0.822155,-1.2192 1.062595,-1.536 0.24044,-0.3168 0.80689,-0.95997 1.258777,-1.42927 0.451887,-0.4693 1.165107,-1.11017 1.584933,-1.42416 0.710159,-0.53113 0.772141,-0.55883 0.889964,-0.3977 0.06965,0.0953 0.167277,0.32573 0.21694,0.51216 0.05118,0.19211 0.05597,0.48935 0.01106,0.68605 -0.04358,0.19089 -0.197252,0.56391 -0.341493,0.82893 -0.144241,0.26502 -0.463302,0.71976 -0.709024,1.01054 -0.245722,0.29077 -1.064994,1.19215 -1.820604,2.00306 -0.755611,0.81092 -1.611749,1.82365 -1.90253,2.25052 -0.290781,0.42686 -0.567923,0.94526 -0.615872,1.152 -0.04795,0.20673 -0.08821,0.64237 -0.08947,0.96809 -0.0015,0.39084 0.05484,0.69288 0.16571,0.88825 0.0924,0.16281 0.243035,0.32024 0.334744,0.34985 0.09171,0.0296 0.359165,0.025 0.594346,-0.0103 0.366699,-0.055 0.494062,-0.14132 0.894208,-0.60607 0.256632,-0.29807 0.595495,-0.73635 0.753028,-0.97395 0.157534,-0.2376 0.475487,-0.972 0.706563,-1.632 0.231077,-0.66 0.558482,-1.53036 0.727569,-1.93413 0.169086,-0.40377 0.489957,-0.99434 0.713046,-1.31237 0.309858,-0.44174 0.737889,-0.82667 1.813057,-1.63049 0.774091,-0.57873 1.986128,-1.42883 2.693408,-1.8891 0.70728,-0.46027 1.84666,-1.15903 2.53195,-1.5528 0.68529,-0.39377 1.93178,-1.05935 2.76997,-1.47906 0.83819,-0.41972 2.13962,-1.02667 2.89205,-1.34879 0.75243,-0.32211 2.18886,-0.85867 3.19206,-1.19234 1.0032,-0.33367 2.364,-0.7381 3.024,-0.89873 0.66,-0.16063 1.73739,-0.37939 2.39419,-0.48613 0.65681,-0.10675 1.78001,-0.24337 2.496,-0.30361 0.74719,-0.0629 1.86329,-0.0832 2.61972,-0.0477 0.72485,0.034 1.82645,0.14845 2.448,0.25434 0.62155,0.10589 1.52905,0.30543 2.01667,0.44342 l 0.88658,0.2509 -0.54328,0.58681 c -0.2988,0.32275 -0.78282,0.91072 -1.0756,1.30661 -0.29278,0.39589 -0.8121,1.17371 -1.15405,1.72849 -0.34195,0.55478 -1.64321,3.01749 -2.89168,5.47269 -1.24847,2.4552 -2.5197,4.896 -2.82495,5.424 -0.30526,0.528 -0.85845,1.4136 -1.22932,1.968 -0.37087,0.5544 -0.92214,1.3104 -1.22503,1.68 -0.3029,0.3696 -0.8474,0.95431 -1.20999,1.29936 -0.36259,0.34506 -0.87752,0.78526 -1.14427,0.97824 -0.26676,0.19298 -0.78641,0.50399 -1.1548,0.69114 -0.36838,0.18715 -1.01023,0.42734 -1.42634,0.53376 -0.51749,0.13235 -1.06826,0.1935 -1.74293,0.1935 -0.5425,0 -1.28079,-0.0628 -1.64064,-0.13953 -0.35986,-0.0767 -0.95668,-0.24334 -1.32628,-0.37021 -0.3696,-0.12688 -1.09827,-0.44209 -1.61927,-0.70047 -0.521,-0.25839 -1.04246,-0.55775 -1.15879,-0.66525 -0.14978,-0.13842 -0.25758,-0.4326 -0.36938,-1.008 -0.0868,-0.4469 -0.20827,-1.20134 -0.26988,-1.67654 -0.0647,-0.49876 -0.0875,-1.29011 -0.054,-1.872 0.0319,-0.5544 0.12468,-1.28306 0.20617,-1.61925 0.0815,-0.33618 0.28618,-0.88857 0.45487,-1.22752 0.16869,-0.33895 0.5129,-0.84762 0.76492,-1.13037 0.25201,-0.28276 0.68619,-0.66543 0.96483,-0.85038 0.27865,-0.18496 0.78695,-0.4502 1.12957,-0.58943 0.34262,-0.13924 1.03335,-0.3364 1.53495,-0.43815 0.5016,-0.10175 1.48664,-0.21496 2.18898,-0.25157 l 1.27698,-0.0666 0.38715,0.37462 c 0.21294,0.20604 0.4699,0.5349 0.57102,0.7308 0.10167,0.19693 0.18387,0.55056 0.18387,0.79097 0,0.23913 -0.0797,0.64045 -0.17705,0.89182 -0.0974,0.25137 -0.52555,1.0285 -0.95149,1.72696 -0.42593,0.69846 -0.8631,1.54086 -0.97148,1.872 -0.10838,0.33114 -0.22546,0.8265 -0.26019,1.10081 -0.0347,0.27431 -0.035,0.64854 -6.8e-4,0.83162 l 0.0624,0.33287 0.78923,0.0639 c 0.46052,0.0373 1.0691,0.0188 1.46122,-0.0445 0.3696,-0.0596 0.89557,-0.21035 1.16881,-0.33493 0.27325,-0.12459 0.6933,-0.40763 0.93344,-0.62898 0.24014,-0.22136 0.56459,-0.65855 0.72099,-0.97153 0.1564,-0.31299 0.33542,-0.815 0.39782,-1.11559 0.0688,-0.3313 0.0941,-0.96338 0.0644,-1.60507 -0.027,-0.5822 -0.12047,-1.31775 -0.20769,-1.63455 -0.0872,-0.3168 -0.29845,-0.90022 -0.46941,-1.29648 -0.17095,-0.39626 -0.47276,-0.96446 -0.67069,-1.26265 -0.19793,-0.29819 -0.59695,-0.77736 -0.8867,-1.06481 -0.28976,-0.28745 -0.75275,-0.63589 -1.02887,-0.7743 -0.27613,-0.13841 -0.67691,-0.27876 -0.89064,-0.31188 -0.2786,-0.0432 -0.74051,0.0276 -1.632,0.24999 -0.68387,0.17061 -1.73067,0.47773 -2.32621,0.68249 -0.59555,0.20476 -1.48115,0.55149 -1.968,0.77053 -0.48686,0.21904 -1.24216,0.61216 -1.67845,0.8736 -0.43628,0.26144 -1.12606,0.76309 -1.53284,1.11477 -0.43502,0.37611 -0.94646,0.94357 -1.24194,1.378 -0.2875,0.42269 -0.58967,1.01704 -0.70652,1.38966 -0.13048,0.41611 -0.20764,0.92825 -0.21379,1.41908 -0.005,0.4224 0.047,1.0056 0.11617,1.296 0.0692,0.2904 0.2447,0.79313 0.39005,1.11717 0.14534,0.32405 0.45054,0.86405 0.67822,1.2 0.22768,0.33596 0.73577,0.92594 1.1291,1.31107 0.39333,0.38513 1.1326,0.97815 1.64282,1.31781 0.51022,0.33967 1.29266,0.7862 1.73875,0.9923 0.44609,0.20609 1.1617,0.48548 1.59024,0.62086 0.42855,0.13537 1.14094,0.31054 1.58309,0.38926 0.44214,0.0787 1.1279,0.16925 1.5239,0.20119 0.396,0.0319 1.152,0.0123 1.68,-0.0436 0.528,-0.0559 1.3056,-0.19156 1.728,-0.30147 0.4224,-0.10991 1.2,-0.40754 1.728,-0.6614 0.528,-0.25385 1.2408,-0.67541 1.584,-0.93679 0.3432,-0.26138 0.96058,-0.82835 1.37195,-1.25992 0.41137,-0.43157 0.96615,-1.11809 1.23284,-1.52559 0.26669,-0.40751 0.67598,-1.13809 0.90954,-1.62353 0.23357,-0.48543 0.59374,-1.39263 0.80039,-2.016 0.20665,-0.62336 0.47854,-1.60011 0.60419,-2.17055 l 0.22847,-1.03716 0.59421,1.18116 c 0.32682,0.64964 0.87074,1.54957 1.20872,1.99984 0.33798,0.45028 0.93849,1.12644 1.33446,1.50258 0.39598,0.37614 1.03784,0.89839 1.42636,1.16056 0.38852,0.26217 1.05165,0.65022 1.47363,0.86233 0.42198,0.21211 1.15165,0.5213 1.62149,0.68709 0.46984,0.16578 1.37704,0.40646 2.016,0.53483 0.63896,0.12838 1.60913,0.27853 2.15592,0.33367 0.5468,0.0551 1.5836,0.0998 2.304,0.0993 0.72041,-5.5e-4 1.82823,-0.0447 2.46183,-0.098 0.6336,-0.0534 1.6488,-0.16272 2.256,-0.24301 0.6072,-0.0803 1.18111,-0.16916 1.27536,-0.19751 0.15516,-0.0467 0.1504,-0.068 -0.0502,-0.22586 -0.1219,-0.0959 -0.50708,-0.33124 -0.85598,-0.52302 -0.34889,-0.19177 -0.98083,-0.47513 -1.4043,-0.62967 -0.42347,-0.15455 -1.11154,-0.36822 -1.52904,-0.47481 -0.4175,-0.1066 -1.92432,-0.40738 -3.34849,-0.6684 -1.42417,-0.26102 -2.86883,-0.54507 -3.21035,-0.63121 -0.34152,-0.0861 -0.96655,-0.26803 -1.38895,-0.40419 -0.4224,-0.13617 -1.14069,-0.43814 -1.5962,-0.67106 -0.4555,-0.23292 -0.98968,-0.56308 -1.18706,-0.7337 l -0.35886,-0.31021 -0.27269,-1.67817 c -0.14998,-0.92299 -0.34162,-2.20918 -0.42587,-2.8582 -0.0842,-0.64902 -0.15239,-1.79382 -0.15143,-2.544 0.001,-1.03992 0.0467,-1.53887 0.19102,-2.10019 0.10409,-0.40493 0.28226,-0.91852 0.39592,-1.14132 0.11366,-0.22279 0.41273,-0.61115 0.6646,-0.86302 0.25187,-0.25187 0.64023,-0.55094 0.86302,-0.6646 0.2228,-0.11366 0.7325,-0.2904 1.13268,-0.39274 0.40017,-0.10235 1.01852,-0.18609 1.37411,-0.18609 0.38082,0 0.91701,0.0823 1.30465,0.20012 0.36196,0.11007 0.93891,0.35268 1.28211,0.53914 0.3432,0.18645 0.8832,0.54532 1.2,0.79748 0.3168,0.25215 0.81556,0.71154 1.10835,1.02086 0.2928,0.30932 0.79263,0.908 1.11074,1.3304 0.31811,0.4224 1.02493,1.416 1.57071,2.208 0.54578,0.792 1.18886,1.6992 1.42906,2.016 0.2402,0.3168 0.66898,0.84134 0.95284,1.16565 0.28386,0.32431 0.78795,0.81021 1.12019,1.07977 0.33225,0.26957 0.84557,0.63554 1.14073,0.81327 0.52551,0.31644 0.56611,0.32451 1.95601,0.38829 0.78066,0.0358 1.98097,0.10843 2.66737,0.16134 0.6864,0.0529 1.6584,0.16383 2.16,0.24648 0.5016,0.0827 1.27707,0.25586 1.72326,0.3849 0.4462,0.12904 1.159,0.41364 1.584,0.63244 0.55027,0.28329 0.98254,0.60656 1.50145,1.12284 0.53325,0.53055 0.82338,0.91815 1.08163,1.44502 0.1941,0.396 0.45991,1.1304 0.5907,1.632 l 0.23779,0.912 -0.0571,-0.672 c -0.0314,-0.3696 -0.15849,-1.07246 -0.28237,-1.56192 -0.12388,-0.48946 -0.38453,-1.26706 -0.57922,-1.728 -0.19469,-0.46094 -0.6148,-1.30295 -0.93358,-1.87111 -0.31878,-0.56817 -0.99152,-1.58337 -1.49497,-2.256 -0.57289,-0.76542 -1.49156,-1.79979 -2.45545,-2.76472 -0.84706,-0.84796 -2.0153,-1.91943 -2.5961,-2.38104 -0.5808,-0.46161 -1.6608,-1.24398 -2.4,-1.7386 -0.7392,-0.49462 -1.89101,-1.19737 -2.55958,-1.56166 -0.66856,-0.3643 -1.70536,-0.87023 -2.304,-1.12429 -0.59863,-0.25407 -1.10241,-0.47384 -1.1195,-0.48838 -0.0171,-0.0145 0.0374,-0.15877 0.12099,-0.32051 0.0836,-0.16174 0.24519,-0.34391 0.35899,-0.40482 0.12257,-0.0656 0.42543,-0.0907 0.74301,-0.0617 0.29485,0.027 1.20172,0.26909 2.01528,0.53805 0.81355,0.26896 1.72929,0.53823 2.03498,0.59837 0.30569,0.0601 0.8372,0.0914 1.18113,0.0695 0.34393,-0.0219 0.65469,-0.0692 0.69058,-0.10507 0.0359,-0.0359 -0.10286,-0.27049 -0.30832,-0.52134 -0.20546,-0.25085 -0.99398,-1.07484 -1.75226,-1.83109 -0.75829,-0.75625 -2.68069,-2.56954 -4.272,-4.02952 -1.59132,-1.45999 -3.7357,-3.43872 -4.7653,-4.39719 -1.0296,-0.95846 -2.33575,-2.22665 -2.90256,-2.8182 -0.5668,-0.59154 -1.366,-1.52301 -1.776,-2.06992 -0.40999,-0.54691 -0.89036,-1.23445 -1.06748,-1.52786 -0.17713,-0.29341 -0.43185,-0.80472 -0.56606,-1.13624 -0.13876,-0.34275 -0.26398,-0.87892 -0.2903,-1.24296 -0.0382,-0.52867 -0.009,-0.71737 0.16817,-1.08319 0.11915,-0.24614 0.44449,-0.6416 0.73208,-0.88989 l 0.51763,-0.44689 -0.21574,-0.23082 c -0.11866,-0.12694 -0.71825,-0.63562 -1.33242,-1.13038 -0.61417,-0.49476 -1.28377,-1.10177 -1.488,-1.34891 -0.20423,-0.24714 -0.47932,-0.56685 -0.61132,-0.71047 -0.132,-0.14362 -0.5424,-0.46148 -0.912,-0.70636 -0.3696,-0.24488 -0.85401,-0.61489 -1.07646,-0.82225 -0.22246,-0.20737 -0.43304,-0.49087 -0.46796,-0.63 -0.0349,-0.13914 -0.20423,-0.3474 -0.37624,-0.46281 -0.17201,-0.11541 -1.14943,-0.88182 -2.17204,-1.70314 -1.02262,-0.82132 -2.2481,-1.77505 -2.7233,-2.1194 -0.4752,-0.34435 -1.3824,-0.97194 -2.016,-1.39464 -0.6336,-0.42271 -1.6272,-1.04945 -2.208,-1.39276 -0.5808,-0.34332 -1.5528,-0.88724 -2.16,-1.20871 -0.6072,-0.32147 -1.7304,-0.8639 -2.496,-1.2054 -0.7656,-0.34149 -2.148,-0.90156 -3.072,-1.2446 -0.924,-0.34304 -2.2632,-0.79956 -2.976,-1.01449 -0.7128,-0.21493 -1.7712,-0.5189 -2.352,-0.67549 -0.5808,-0.15659 -1.6392,-0.41992 -2.352,-0.5852 -0.7128,-0.16527 -2.527199,-0.55504 -4.031999,-0.86617 -1.5048,-0.31112 -4.0536,-0.84596 -5.664,-1.18854 -1.6104,-0.34258 -3.73247,-0.77504 -4.71571,-0.96103 -0.983241,-0.18599 -2.668041,-0.46788 -3.744,-0.62642 -1.07596,-0.15855 -2.539668,-0.34088 -3.252685,-0.40517 l -1.296395,-0.11691 -0.719064,0.55558 c -0.395486,0.30557 -0.957255,0.67582 -1.248377,0.82278 -0.291122,0.14695 -0.896166,0.37651 -1.344541,0.51011 -0.448375,0.13361 -1.303077,0.35648 -1.899338,0.49528 -0.59626,0.1388 -1.425824,0.39648 -1.843476,0.57263 l -0.759367,0.32026 -0.472244,-0.6852 c -0.259734,-0.37686 -0.61163,-0.96241 -0.781992,-1.30122 -0.28741,-0.57159 -0.305075,-0.66159 -0.244961,-1.248 0.03563,-0.34759 0.127998,-0.91585 0.205256,-1.2628 l 0.140469,-0.63082 0.500213,-0.12513 c 0.275116,-0.0688 0.997012,-0.28953 1.604212,-0.49045 0.6072,-0.20092 1.441926,-0.41154 1.854947,-0.46805 0.41302,-0.0565 0.85582,-0.10273 0.984,-0.10273 0.143158,0 0.233053,0.0555 0.233053,0.144 0,0.12194 0.233118,0.144 1.522059,0.144 0.837133,0 2.079133,0.0432 2.76,0.0961 0.680868,0.0528 1.821141,0.16423 2.533941,0.24752 0.7128,0.0833 2.192882,0.29916 3.289071,0.47971 1.096189,0.18055 3.148189,0.56296 4.56,0.84979 1.411811,0.28684 4.122129,0.84808 6.022929,1.2472 1.9008,0.39913 4.168799,0.88011 5.039999,1.06886 0.8712,0.18876 2.25147,0.51634 3.06726,0.72796 0.81579,0.21163 2.18277,0.59574 3.03774,0.85358 0.85496,0.25784 2.32589,0.75621 3.26874,1.10749 0.94284,0.35128 2.34066,0.91797 3.10626,1.25931 0.7656,0.34134 1.97397,0.92551 2.68528,1.29816 0.7113,0.37264 1.8561,1.01281 2.544,1.42261 0.68789,0.40979 1.81232,1.12254 2.49872,1.58389 0.6864,0.46134 1.896,1.32422 2.688,1.9175 0.792,0.59328 2.0016,1.53916 2.688,2.10197 0.6864,0.5628 1.38832,1.20073 1.55983,1.41762 0.17151,0.21689 0.6696,0.76659 1.10688,1.22154 0.43728,0.45496 0.98816,0.97635 1.22417,1.15865 0.23602,0.1823 0.64052,0.5711 0.8989,0.864 0.25838,0.2929 0.86318,0.94752 1.344,1.45471 0.48082,0.50718 1.11587,1.18227 1.41123,1.5002 0.45604,0.4909 0.5646,0.56322 0.72,0.47969 0.10064,-0.0541 0.19421,-0.10682 0.20793,-0.11715 0.0137,-0.0103 -0.0584,-0.44676 -0.16024,-0.96984 -0.10185,-0.52308 -0.25301,-1.36146 -0.33591,-1.86306 -0.0829,-0.5016 -0.23985,-1.56 -0.3488,-2.352 -0.10894,-0.792 -0.30381,-1.96383 -0.43303,-2.60406 -0.12923,-0.64024 -0.23496,-1.33098 -0.23496,-1.53499 0,-0.204 -0.11305,-0.91137 -0.25122,-1.57193 -0.13816,-0.66056 -0.44318,-1.79795 -0.67782,-2.52753 -0.23463,-0.72958 -0.66556,-1.89598 -0.95761,-2.592 -0.29206,-0.69602 -0.93142,-2.0656 -1.42081,-3.04352 -0.48938,-0.97792 -1.27906,-2.46832 -1.75485,-3.312 -0.47578,-0.84368 -1.53382,-2.70037 -2.35119,-4.12597 -0.81737,-1.4256 -1.87973,-3.3264 -2.36081,-4.224 -0.48108,-0.8976 -1.17332,-2.28 -1.53832,-3.072 -0.36499,-0.792 -0.88421,-2.03241 -1.15382,-2.75646 -0.2696,-0.72406 -0.76817,-2.23606 -1.10792,-3.36 -0.33975,-1.12395 -0.79276,-2.75634 -1.00669,-3.62754 -0.21392,-0.8712 -0.49537,-2.124 -0.62544,-2.784 -0.13006,-0.66 -0.3254,-1.833955 -0.43408,-2.608788 -0.10868,-0.774833 -0.24746,-2.135633 -0.30841,-3.024 -0.0824,-1.201388 -0.0838,-2.279293 -0.005,-4.207212 0.0579,-1.4256 0.12635,-3.2184 0.15204,-3.984 0.0257,-0.7656 0.1083,-1.6512 0.18359,-1.968 0.0753,-0.3168 0.23766,-0.9432 0.36084,-1.392 0.12318,-0.4488 0.25627,-0.838698 0.29575,-0.866439 0.0395,-0.02774 0.15066,-0.236134 0.24705,-0.463095 l 0.17526,-0.412655 0.23796,0.178735 c 0.13089,0.09831 0.7048,0.389456 1.27538,0.647003 0.82961,0.374471 1.12108,0.561338 1.45516,0.932916 0.22977,0.255556 0.48792,0.669598 0.57368,0.920091 0.0858,0.250494 0.19899,0.757025 0.25163,1.125623 0.0641,0.44852 0.0635,0.959336 -0.002,1.544434 -0.0536,0.48084 -0.20718,1.296467 -0.34126,1.812505 -0.13408,0.516039 -0.41991,1.354644 -0.63517,1.863567 -0.21527,0.508923 -0.48151,1.076515 -0.59164,1.261315 -0.11014,0.1848 -0.38789,0.582924 -0.61723,0.884721 l -0.41699,0.548721 0.10301,1.467279 c 0.0567,0.807003 0.19038,2.093679 0.29718,2.859279 0.10679,0.7656 0.3451,2.116537 0.52957,3.002082 0.18447,0.885545 0.55168,2.419145 0.81603,3.408 0.26435,0.988858 0.77504,2.683518 1.13489,3.765918 0.35984,1.0824 0.85843,2.4432 1.10797,3.024 0.24954,0.5808 0.85756,1.8552 1.35114,2.832 0.49359,0.9768 2.06886,3.828 3.50062,6.336 1.43175,2.508 3.11547,5.5968 3.74159,6.864 0.62612,1.2672 1.37529,2.9088 1.66481,3.648 0.28952,0.7392 0.68069,1.85466 0.86926,2.4788 0.18857,0.62415 0.43842,1.59615 0.55522,2.16 0.11679,0.56386 0.24341,1.04706 0.28138,1.07377 0.038,0.0267 0.11713,0.37232 0.17591,0.768 0.0588,0.39569 0.19247,1.32423 0.29709,2.06343 0.10462,0.7392 0.23226,1.56 0.28363,1.824 0.0514,0.264 0.13812,0.8688 0.19276,1.344 0.0546,0.4752 0.14182,1.1564 0.19373,1.51378 0.0519,0.35738 0.0944,0.86498 0.0944,1.128 v 0.47822 h 1.46459 c 0.80552,0 2.0123,0.0641 2.68173,0.14238 0.66942,0.0783 1.61956,0.23157 2.11141,0.34059 0.49185,0.10902 1.41267,0.37061 2.04627,0.58131 0.6336,0.21069 1.7568,0.67919 2.496,1.0411 0.7392,0.36191 1.9272,1.04739 2.64,1.52329 0.7128,0.47591 1.69798,1.18846 2.1893,1.58346 0.49131,0.39499 1.26891,1.05256 1.728,1.46127 0.45908,0.4087 1.9363,1.78978 3.2827,3.06907 1.3464,1.27929 2.9232,2.7486 3.504,3.26514 0.5808,0.51654 1.19758,1.04716 1.37061,1.17916 0.17304,0.132 0.33238,0.22224 0.3541,0.20052 0.0217,-0.0217 -0.12635,-0.79454 -0.32903,-1.71738 -0.20267,-0.92285 -0.59196,-2.62831 -0.86508,-3.78991 -0.27313,-1.1616 -0.84192,-3.4944 -1.264,-5.184 -0.42208,-1.6896 -1.64742,-6.4632 -2.72298,-10.608 -1.07556,-4.1448 -2.43095,-9.4368 -3.01197,-11.76 -0.58103,-2.3232 -1.34161,-5.4336 -1.69019,-6.912 -0.34858,-1.4784 -0.88848,-3.8328 -1.19977,-5.232 -0.31129,-1.3992 -0.82965,-3.84 -1.15191,-5.424 -0.32226,-1.584 -0.81856,-4.1544 -1.10288,-5.712 -0.28433,-1.5576 -0.69111,-3.9552 -0.90397,-5.328 -0.21286,-1.3728 -0.49606,-3.2952 -0.62932,-4.272 -0.13327,-0.9768 -0.33094,-2.532 -0.43926,-3.456 l -0.19695,-1.68 0.24019,-0.96 c 0.19282,-0.770665 0.48582,-1.452271 1.48562,-3.456 0.68498,-1.3728 1.31202,-2.712 1.39342,-2.976 0.0814,-0.264 0.18827,-0.768656 0.23751,-1.121457 0.0532,-0.381074 0.0553,-0.913679 0.005,-1.312079 -0.0463,-0.368843 -0.17136,-0.918603 -0.27789,-1.22169 -0.10653,-0.303087 -0.3641,-0.835851 -0.57239,-1.183921 -0.20829,-0.348069 -0.44273,-0.718497 -0.52098,-0.823174 -0.13582,-0.181702 -0.10681,-0.204777 0.64077,-0.509541 0.43066,-0.175572 1.79823,-0.659619 3.03903,-1.075661 1.2408,-0.416042 3.12193,-0.972183 4.18029,-1.235867 1.05835,-0.263685 2.50555,-0.58955 3.216,-0.724146 0.71044,-0.134595 1.72371,-0.308634 2.25171,-0.386752 0.528,-0.07812 1.6296,-0.209383 2.448,-0.291698 0.8184,-0.08232 2.4168,-0.176038 3.552,-0.208273 1.22999,-0.03493 2.76224,-0.01309 3.792,0.05405 0.9504,0.06196 2.3976,0.197957 3.216,0.302211 0.8184,0.104254 2.2268,0.33983 3.12978,0.523502 0.90297,0.183673 2.24217,0.503933 2.976,0.711691 0.73382,0.207757 1.91645,0.580607 2.62807,0.828554 0.71162,0.247948 1.85296,0.686204 2.5363,0.973904 0.68334,0.287699 1.72111,0.762797 2.30615,1.055774 0.58503,0.292976 1.5605,0.814305 2.1677,1.158508 0.6072,0.344203 1.52934,0.901788 2.04921,1.239079 0.51986,0.33729 1.42706,0.968245 2.016,1.402121 0.58893,0.433876 1.58919,1.218189 2.22279,1.742918 0.6336,0.524729 1.82518,1.626329 2.64797,2.448 0.82278,0.821671 1.90073,1.969148 2.39544,2.549948 0.49471,0.5808 1.34603,1.657562 1.89181,2.392805 0.54578,0.735243 1.31735,1.849843 1.7146,2.476888 0.39725,0.627045 0.98164,1.602283 1.29864,2.167195 0.317,0.564911 0.82736,1.545512 1.13415,2.179112 0.30679,0.6336 0.7354,1.56982 0.95248,2.080489 0.21707,0.510668 0.58925,1.451406 0.82706,2.090527 0.2378,0.639121 0.64368,1.884501 0.90194,2.767511 0.25827,0.88301 0.60114,2.231872 0.76194,2.997472 0.16081,0.7656 0.37929,1.9752 0.48552,2.688 0.10623,0.7128 0.24645,1.8144 0.31161,2.448 0.0652,0.6336 0.11814,2.3184 0.11773,3.744 -5.1e-4,1.77915 -0.0517,3.05863 -0.16311,4.08 -0.0893,0.8184 -0.2742,2.136 -0.41087,2.928 -0.13667,0.792 -0.39611,2.0448 -0.57653,2.784 -0.18042,0.7392 -0.5034,1.9056 -0.71774,2.592 -0.21434,0.6864 -0.67116,1.9608 -1.01515,2.832 -0.34399,0.8712 -0.94101,2.232 -1.32672,3.024 -0.38571,0.792 -1.0061,1.96822 -1.37865,2.61383 -0.37256,0.6456 -0.99832,1.6608 -1.39058,2.256 -0.39227,0.59519 -0.92877,1.37675 -1.19221,1.7368 l -0.479,0.65463 -0.12086,-0.51063 c -0.0665,-0.28085 -0.29059,-1.00743 -0.49804,-1.61463 -0.20746,-0.6072 -0.67466,-1.72168 -1.03824,-2.47662 -0.36357,-0.75493 -0.97243,-1.89973 -1.35302,-2.544 -0.38059,-0.64426 -1.16742,-1.88418 -1.7485,-2.75538 -0.58109,-0.8712 -1.5641,-2.30351 -2.18448,-3.1829 -0.62037,-0.8794 -1.57193,-2.2618 -2.11456,-3.072 -0.54264,-0.81021 -1.2817,-1.96881 -1.64237,-2.57468 -0.36067,-0.60587 -0.86997,-1.54129 -1.13179,-2.07871 -0.26181,-0.53742 -0.60788,-1.31611 -0.76905,-1.73042 -0.16116,-0.41431 -0.39796,-1.15244 -0.52623,-1.64029 -0.12826,-0.48785 -0.28515,-1.36592 -0.34864,-1.95126 -0.0897,-0.82684 -0.0898,-1.28443 -7.1e-4,-2.05115 0.0631,-0.54279 0.2024,-1.30632 0.30957,-1.69674 0.10716,-0.39042 0.42362,-1.18505 0.70323,-1.76585 0.27961,-0.5808 0.72102,-1.36656 0.98091,-1.74614 0.25989,-0.37957 0.78347,-1.0553 1.16351,-1.50162 0.68881,-0.808936 0.69291,-0.811828 1.30183,-0.917866 0.33596,-0.0585 1.05192,-0.106373 1.59102,-0.106373 0.5391,0 1.31316,0.06841 1.72014,0.152024 0.40697,0.08361 1.1176,0.293475 1.57918,0.466355 0.46157,0.17288 1.19431,0.52567 1.6283,0.78398 0.50764,0.30213 1.11778,0.79492 1.71066,1.38164 0.54869,0.54298 1.10458,1.20798 1.37384,1.64349 0.24874,0.40233 0.58678,1.09353 0.7512,1.536 0.24286,0.65357 0.30768,0.99492 0.34549,1.81939 0.0273,0.59635 5.6e-4,1.22979 -0.065,1.536 -0.0613,0.28662 -0.26542,0.83295 -0.45356,1.21408 -0.18884,0.38255 -0.59812,0.97239 -0.91367,1.31675 -0.31437,0.34309 -0.89631,0.84099 -1.29319,1.10644 -0.39689,0.26545 -0.96186,0.55248 -1.25549,0.63784 -0.32904,0.0956 -0.74646,0.13983 -1.0879,0.11513 -0.37586,-0.0272 -0.66077,-0.11323 -0.88605,-0.2676 -0.18263,-0.12514 -0.46555,-0.42507 -0.62872,-0.66652 -0.16318,-0.24145 -0.5154,-1.00422 -0.78274,-1.69505 -0.26733,-0.69083 -0.61253,-1.45549 -0.76712,-1.69925 -0.15458,-0.24375 -0.44935,-0.55455 -0.65503,-0.69067 -0.21678,-0.14345 -0.57896,-0.27176 -0.86161,-0.30524 -0.40721,-0.0482 -0.54824,-0.0205 -0.85515,0.16832 -0.20214,0.12433 -0.55764,0.39995 -0.79,0.61248 -0.23762,0.21733 -0.54212,0.63844 -0.69593,0.96241 -0.21705,0.4572 -0.27346,0.71027 -0.27352,1.22703 -5e-5,0.40506 0.0752,0.87442 0.1991,1.24229 0.10955,0.3252 0.38256,0.87463 0.60667,1.22097 0.22412,0.34634 0.65842,0.90065 0.9651,1.23181 0.30669,0.33115 0.89908,0.8594 1.31643,1.17388 0.41735,0.31448 1.07062,0.71896 1.45172,0.89884 0.38109,0.17988 0.80626,0.35309 0.94481,0.38491 0.19354,0.0444 0.62723,-0.12891 1.872,-0.74832 0.89105,-0.44339 2.07369,-1.10942 2.62809,-1.48007 0.5544,-0.37064 1.36429,-0.98034 1.79975,-1.35488 0.43547,-0.37454 1.02972,-0.96948 1.32056,-1.32208 0.29084,-0.3526 0.69609,-0.92398 0.90056,-1.26974 0.20446,-0.34575 0.48226,-0.93679 0.61733,-1.31341 0.13506,-0.37662 0.29358,-1.03542 0.35226,-1.464 0.0774,-0.56567 0.0781,-0.98817 0.002,-1.54161 -0.0574,-0.41931 -0.20987,-1.07253 -0.33881,-1.45161 -0.12893,-0.37907 -0.38821,-0.96423 -0.57618,-1.30035 -0.18796,-0.33611 -0.59129,-0.92489 -0.89628,-1.30839 -0.30499,-0.3835 -0.854,-0.97161 -1.22001,-1.30691 -0.36602,-0.3353 -1.05199,-0.86829 -1.52437,-1.18442 -0.47239,-0.316132 -1.20194,-0.747269 -1.62123,-0.958081 -0.41928,-0.210813 -1.26398,-0.549529 -1.87711,-0.752702 -0.61313,-0.203174 -1.56144,-0.442714 -2.10737,-0.532313 -0.73925,-0.121329 -1.32729,-0.150251 -2.304,-0.113319 -0.88367,0.03341 -1.56191,0.11531 -2.07941,0.251082 -0.4224,0.110821 -1.1568,0.393481 -1.632,0.628133 -0.4752,0.234652 -1.15466,0.667251 -1.5099,0.961333 -0.35525,0.294082 -0.86231,0.804517 -1.1268,1.134307 -0.26448,0.32979 -0.71716,1.07482 -1.00594,1.65562 -0.28878,0.5808 -0.63455,1.44166 -0.76839,1.91303 -0.13383,0.47137 -0.31655,1.33537 -0.40602,1.92 -0.10345,0.67587 -0.16373,1.65729 -0.16555,2.69497 -0.002,0.94226 0.0509,1.9363 0.12434,2.352 0.07,0.396 0.25734,1.1304 0.41641,1.632 0.15906,0.5016 0.47795,1.28834 0.70864,1.74831 0.23069,0.45997 0.69934,1.24915 1.04144,1.75373 0.34211,0.50459 0.93896,1.31625 1.32633,1.80369 0.38737,0.48745 1.01734,1.28817 1.39993,1.77938 0.38259,0.49121 0.99112,1.33361 1.35228,1.872 0.36117,0.53839 0.88432,1.40603 1.16256,1.92809 0.27824,0.52207 0.46647,0.9302 0.41828,0.90696 -0.0482,-0.0232 -0.49801,-0.24015 -0.99961,-0.48205 -0.5016,-0.24189 -1.25862,-0.54903 -1.68227,-0.68253 -0.42365,-0.1335 -1.1324,-0.29567 -1.57501,-0.36039 -0.46294,-0.0677 -1.15512,-0.0936 -1.62972,-0.0609 -0.45375,0.0312 -1.0842,0.12469 -1.401,0.20773 -0.3168,0.083 -0.94011,0.32437 -1.38512,0.53629 -0.44502,0.21192 -1.09302,0.58767 -1.44,0.83501 -0.34699,0.24733 -0.9931,0.79643 -1.43582,1.2202 -0.44272,0.42378 -1.1568,1.20251 -1.58684,1.73051 -0.43005,0.528 -0.95944,1.20021 -1.17644,1.49381 -0.21699,0.29359 -1.07501,1.52479 -1.90671,2.736 -0.8317,1.2112 -1.80347,2.59099 -2.15951,3.06619 -0.35603,0.4752 -0.94572,1.20903 -1.31042,1.63073 -0.36471,0.42171 -0.96341,1.01896 -1.33045,1.32723 -0.36705,0.30827 -0.91661,0.7119 -1.22126,0.89696 -0.30464,0.18506 -0.78464,0.41758 -1.06666,0.5167 -0.28202,0.0991 -0.7966,0.22556 -1.14351,0.28098 -0.43516,0.0695 -0.84881,0.0702 -1.334,0.002 -0.38679,-0.0541 -0.91926,-0.16847 -1.18326,-0.25411 -0.264,-0.0856 -0.7824,-0.30642 -1.152,-0.4906 -0.3696,-0.18419 -1.0455,-0.59018 -1.502,-0.90221 -0.72212,-0.4936 -0.83841,-0.61217 -0.89472,-0.91232 -0.0356,-0.18974 -0.0625,-0.7502 -0.0598,-1.24547 0.003,-0.49527 0.0714,-1.18724 0.15267,-1.53773 0.0813,-0.35048 0.27696,-0.9079 0.43484,-1.2387 0.15787,-0.3308 0.48034,-0.85861 0.7166,-1.17289 0.23626,-0.31429 0.61381,-0.7212 0.839,-0.90425 0.2252,-0.18304 0.60385,-0.44458 0.84145,-0.5812 0.2376,-0.13661 0.68664,-0.32146 0.99787,-0.41078 0.41107,-0.11797 0.80499,-0.15139 1.44,-0.12214 0.69792,0.0321 0.99548,0.0952 1.47612,0.31285 0.3311,0.14992 0.62316,0.25143 0.64902,0.22557 0.0259,-0.0259 -0.20934,-0.32678 -0.52267,-0.66872 -0.3399,-0.37094 -0.79548,-0.74205 -1.12949,-0.92008 -0.3079,-0.16411 -0.84783,-0.34854 -1.19986,-0.40984 -0.47857,-0.0833 -0.81499,-0.0843 -1.33349,-0.004 -0.38139,0.0592 -1.00862,0.2388 -1.39383,0.39917 -0.38521,0.16036 -0.99452,0.49865 -1.35402,0.75176 -0.35951,0.25311 -0.90671,0.71453 -1.21601,1.02539 -0.3093,0.31086 -0.72442,0.8028 -0.92249,1.0932 -0.19807,0.2904 -0.45527,0.7151 -0.57155,0.94377 -0.11629,0.22867 -0.29517,0.74318 -0.39751,1.14335 -0.10235,0.40018 -0.18609,0.90079 -0.18609,1.11247 0,0.25284 0.10296,0.5687 0.30009,0.92065 0.16505,0.29467 0.45445,0.75176 0.64311,1.01576 0.18865,0.264 0.61765,0.81326 0.95333,1.22057 0.33567,0.40732 0.94268,1.00826 1.34889,1.33542 0.40622,0.32717 1.08948,0.76346 1.51836,0.96954 0.51527,0.24758 1.07925,0.42776 1.66262,0.53116 0.74586,0.13221 1.02045,0.1391 1.76982,0.0445 0.48784,-0.0616 1.18686,-0.20359 1.55338,-0.3155 0.36652,-0.11191 1.0984,-0.4112 1.6264,-0.66509 0.528,-0.2539 1.5432,-0.85009 2.256,-1.32488 0.7128,-0.47479 1.8792,-1.33248 2.592,-1.90598 0.7128,-0.5735 2.1816,-1.80131 3.264,-2.72846 1.0824,-0.92715 2.4648,-2.08667 3.072,-2.5767 0.6072,-0.49004 1.6224,-1.23934 2.256,-1.66511 0.6336,-0.42577 1.62878,-1.00423 2.21151,-1.28547 0.58273,-0.28123 1.39964,-0.59832 1.81535,-0.70465 0.48965,-0.12523 1.06808,-0.19331 1.64238,-0.19331 0.60994,0 1.07689,0.0588 1.49665,0.18851 0.33556,0.10369 0.86682,0.34314 1.18058,0.53212 0.31376,0.18899 0.80055,0.54017 1.08176,0.78041 0.28121,0.24025 0.78487,0.78919 1.11925,1.21989 0.33437,0.43069 0.8306,1.15523 1.10272,1.61008 0.27212,0.45486 0.68504,1.23418 0.91759,1.73182 0.23255,0.49764 0.57533,1.28303 0.76173,1.7453 0.31951,0.79237 0.33154,0.86141 0.21013,1.20552 -0.0708,0.20076 -0.22548,0.55522 -0.34366,0.78769 -0.11819,0.23246 -0.41265,0.67494 -0.65436,0.98327 -0.24172,0.30834 -0.7816,0.8184 -1.19974,1.13348 -0.41814,0.31508 -1.19712,0.78147 -1.73107,1.03642 -0.53395,0.25495 -1.38122,0.60066 -1.88282,0.76824 -0.5016,0.16757 -1.4736,0.45107 -2.16,0.62998 -0.6864,0.17891 -2.58263,0.6109 -4.21385,0.95997 -1.63121,0.34907 -3.61841,0.82275 -4.416,1.05263 -0.79758,0.22988 -1.88215,0.59519 -2.41015,0.81181 -0.528,0.21662 -1.29797,0.59809 -1.71105,0.84772 -0.41307,0.24962 -0.98625,0.6635 -1.27372,0.91972 -0.28748,0.25622 -0.71832,0.74002 -0.95743,1.0751 -0.23911,0.33509 -0.53849,0.86454 -0.66527,1.17656 -0.12679,0.31203 -0.28162,0.84465 -0.34408,1.18361 -0.0794,0.4311 -0.0922,1.15785 -0.0424,2.41852 l 0.0711,1.80222 0.44542,-0.0596 c 0.24498,-0.0328 1.07182,-0.16576 1.83742,-0.2955 0.7656,-0.12973 1.94433,-0.36563 2.61941,-0.52422 0.67507,-0.15858 1.75507,-0.44164 2.4,-0.62902 0.64492,-0.18738 1.71259,-0.53519 2.37259,-0.77293 0.66,-0.23773 1.8048,-0.69275 2.544,-1.01116 0.7392,-0.31841 1.6896,-0.7518 2.112,-0.96309 0.4224,-0.21128 1.2648,-0.66659 1.872,-1.0118 0.6072,-0.3452 1.7736,-1.07122 2.592,-1.61338 0.8184,-0.54216 1.9632,-1.36305 2.544,-1.8242 0.5808,-0.46116 1.5344,-1.26119 2.1191,-1.77785 0.58471,-0.51666 1.59991,-1.49369 2.256,-2.17117 0.6561,-0.67748 1.6425,-1.76863 2.19202,-2.42478 0.54951,-0.65615 1.35251,-1.6702 1.78444,-2.25344 0.43192,-0.58324 1.04527,-1.44924 1.36298,-1.92444 0.31771,-0.4752 0.95567,-1.4904 1.41769,-2.256 0.46201,-0.7656 1.34434,-2.4072 1.96074,-3.648 0.6164,-1.2408 1.43028,-3.0336 1.80862,-3.984 0.37835,-0.9504 0.88748,-2.3112 1.13141,-3.024 0.24393,-0.7128 0.67327,-2.0952 0.95409,-3.072 0.28082,-0.9768 0.66519,-2.4672 0.85417,-3.312 0.18897,-0.8448 0.45066,-2.1192 0.58152,-2.832 0.13086,-0.7128 0.32564,-1.9008 0.43285,-2.64 0.1072,-0.7392 0.26006,-1.992 0.33967,-2.784 0.0796,-0.792 0.18884,-2.13046 0.24273,-2.97436 0.0539,-0.8439 0.098,-2.78864 0.098,-4.321639 0,-1.533002 -0.0444,-3.47774 -0.0987,-4.321638 -0.0543,-0.843899 -0.16378,-2.182362 -0.24336,-2.974362 -0.0796,-0.792 -0.25322,-2.196 -0.38586,-3.12 -0.13264,-0.924 -0.41272,-2.540249 -0.6224,-3.591665 -0.20967,-1.051415 -0.57204,-2.671415 -0.80525,-3.6 -0.23322,-0.928584 -0.6464,-2.422735 -0.91817,-3.320335 -0.27178,-0.8976 -0.76821,-2.388 -1.10318,-3.312 -0.33496,-0.924 -0.85319,-2.25993 -1.15162,-2.968733 -0.29842,-0.708803 -0.82636,-1.896803 -1.17319,-2.64 -0.34683,-0.743197 -0.97591,-1.999267 -1.39795,-2.791267 -0.42204,-0.792 -1.15556,-2.088 -1.63005,-2.88 -0.47449,-0.792 -1.22937,-1.98 -1.67752,-2.64 -0.44815,-0.66 -1.30312,-1.848 -1.89994,-2.64 -0.59681,-0.792 -1.27225,-1.594882 -1.50097,-1.784183 -0.22872,-0.1893 -0.51855,-0.39896 -0.64407,-0.465911 -0.18689,-0.09969 -0.24407,-0.09821 -0.31581,0.0082 -0.0482,0.07145 -0.32183,0.605112 -0.60809,1.185912 -0.28626,0.5808 -0.62657,1.385353 -0.75623,1.787896 -0.12967,0.402543 -0.30956,1.17326 -0.39976,1.712706 -0.12708,0.760005 -0.15328,1.340853 -0.11636,2.580104 0.0338,1.13367 0.10991,1.892766 0.26151,2.607294 0.11762,0.5544 0.39893,1.5696 0.62513,2.256 0.2262,0.6864 0.63453,1.7664 0.9074,2.4 0.27287,0.6336 0.83283,1.8 1.24434,2.592 0.41151,0.792 1.12843,2.088 1.59316,2.88 0.46473,0.792 1.89123,3.1248 3.17,5.184 1.27877,2.0592 2.7964,4.565086 3.3725,5.568635 0.57611,1.003549 1.42004,2.580349 1.8754,3.504 0.45537,0.923651 1.08567,2.327365 1.40068,3.119365 0.315,0.792 0.7936,2.1744 1.06355,3.072 0.26995,0.8976 0.51784,1.809378 0.55086,2.026173 0.0527,0.346145 0.0354,0.400611 -0.14201,0.447013 -0.11114,0.02906 -0.35604,0.0056 -0.54423,-0.05217 -0.22578,-0.0693 -0.47411,-0.270309 -0.73011,-0.591013 -0.21338,-0.267301 -0.53156,-0.770492 -0.70709,-1.118203 -0.17552,-0.347711 -0.43262,-1.060511 -0.57132,-1.584 -0.13871,-0.523489 -0.31126,-1.124598 -0.38346,-1.335798 -0.0722,-0.2112 -0.32743,-0.824273 -0.5672,-1.362384 -0.23976,-0.538111 -0.57388,-1.337311 -0.74249,-1.776 -0.16861,-0.438689 -0.40023,-0.948816 -0.51471,-1.133616 -0.11447,-0.1848 -0.52053,-0.908015 -0.90235,-1.607144 -0.38181,-0.699129 -0.92684,-1.584729 -1.21117,-1.968 -0.28433,-0.383271 -0.69001,-0.912856 -0.9015,-1.176856 -0.2115,-0.264 -0.6391,-0.8688 -0.95024,-1.344 -0.31113,-0.4752 -0.81318,-1.1232 -1.11567,-1.44 -0.30248,-0.3168 -0.68436,-0.7704 -0.84863,-1.008 -0.16427,-0.2376 -0.62564,-0.794915 -1.02528,-1.238479 -0.39964,-0.443563 -1.35301,-1.345664 -2.11861,-2.004668 -0.7656,-0.659004 -2.04,-1.683833 -2.832,-2.277396 -0.792,-0.593563 -1.9152,-1.402977 -2.496,-1.798698 -0.5808,-0.395721 -1.596,-1.056584 -2.256,-1.468584 -0.66,-0.412 -2.0208,-1.219279 -3.024,-1.793954 -1.0032,-0.574674 -3.012,-1.642877 -4.464,-2.373785 -1.452,-0.730907 -3.3096,-1.640017 -4.128,-2.020244 -0.8184,-0.380228 -2.2656,-1.037747 -3.216,-1.461154 -0.9504,-0.423407 -3.7152,-1.631706 -6.144,-2.685109 -3.27096,-1.418656 -4.47044,-1.982 -4.62597,-2.172603 -0.11548,-0.141529 -0.38322,-0.602926 -0.59497,-1.025326 -0.21174,-0.4224 -0.55705,-1.2864 -0.76734,-1.92 -0.21029,-0.6336 -0.60094,-1.84877 -0.8681,-2.700377 -0.26717,-0.851608 -0.67807,-1.931608 -0.91313,-2.4 -0.23505,-0.468393 -0.61347,-1.073956 -0.84093,-1.345697 -0.22746,-0.27174 -0.64626,-0.649665 -0.93068,-0.839832 -0.28441,-0.190167 -0.69481,-0.399834 -0.912,-0.465926 -0.21718,-0.06609 -0.82688,-0.120058 -1.35488,-0.119923 -0.61818,1.58e-4 -1.22648,0.06545 -1.7084,0.183377 -0.58725,0.143695 -0.80029,0.244785 -0.98932,0.46944 -0.1325,0.15747 -0.34996,0.501503 -0.48324,0.764518 -0.13328,0.263016 -0.3053,0.780213 -0.38226,1.149329 -0.10889,0.52224 -0.11841,0.825869 -0.0429,1.36871 0.0534,0.383675 0.19777,0.975143 0.32091,1.314373 0.12313,0.339231 0.38527,0.905386 0.58254,1.258124 0.19726,0.352737 0.62296,0.976713 0.946,1.386612 0.32303,0.4099 0.91524,1.064012 1.31601,1.453584 0.40077,0.389571 1.07427,0.977752 1.49667,1.307068 0.4224,0.329316 1.092,0.813458 1.488,1.075871 0.396,0.262413 1.044,0.651624 1.44,0.864912 0.396,0.213289 1.07743,0.531724 1.51428,0.707634 l 0.79428,0.319837 -0.41028,0.122101 c -0.22565,0.06716 -0.84228,0.20921 -1.37028,0.315675 -0.528,0.106466 -1.5432,0.278927 -2.256,0.383247 -0.7128,0.10432 -2.592,0.342064 -4.176,0.52832 -1.584,0.186256 -3.5064,0.426402 -4.272,0.533658 -0.7656,0.107255 -2.0184,0.303542 -2.784,0.436192 -0.7656,0.132651 -2.08948,0.412063 -2.94196,0.620917 -0.85248,0.208853 -1.97568,0.528088 -2.496,0.709409 -0.52032,0.181322 -1.02144,0.358783 -1.11359,0.394358 -0.14768,0.05701 -0.1618,0.0151 -0.1191,-0.353414 0.0266,-0.229953 0.13524,-2.340497 0.24133,-4.690097 0.10609,-2.3496 0.2573,-5.6328 0.33601,-7.296 0.0787,-1.6632 0.20826,-4.1472 0.28787,-5.52 0.0796,-1.3728 0.20974,-3.36 0.28919,-4.416 0.0795,-1.056 0.20932,-2.6112 0.2886,-3.456 0.0793,-0.8448 0.23202,-2.3136 0.3394,-3.264 0.10738,-0.9504 0.32389,-2.6136 0.48114,-3.696 0.15724,-1.0824 0.43788,-2.787937 0.62366,-3.790083 0.18577,-1.002146 0.51182,-2.573201 0.72454,-3.491233 0.21273,-0.918032 0.57487,-2.322895 0.80476,-3.121917 0.22988,-0.799022 0.63077,-2.079167 0.89086,-2.844767 0.26009,-0.7656 0.70129,-1.9536 0.98044,-2.64 0.27915,-0.6864 0.77438,-1.810915 1.1005,-2.498922 0.32613,-0.688007 0.86395,-1.724807 1.19515,-2.304 0.33121,-0.579193 0.97212,-1.611659 1.42423,-2.294369 0.45212,-0.682709 1.25703,-1.784309 1.78869,-2.4479995 0.53167,-0.6636903 1.50748,-1.7475438 2.16847,-2.4085635 0.661,-0.6610197 1.65541,-1.5709858 2.20981,-2.0221468 0.5544,-0.4511611 1.3752,-1.0842 1.824,-1.4067531 0.4488,-0.3225531 1.2912,-0.8734694 1.872,-1.2242584 0.5808,-0.3507891 1.68369,-0.9505746 2.45086,-1.3328568 0.76717,-0.3822822 1.79719,-0.85608711 2.28892,-1.05289973 l 0.89406,-0.35784114 0.92708,0.74544662 c 0.50989,0.40999565 1.43947,1.24289265 2.06572,1.85088225 0.62625,0.6079896 1.57665,1.6184488 2.112,2.2454649 0.53535,0.6270161 1.3227,1.6051339 1.74966,2.1735951 0.42697,0.5684611 1.12324,1.5460382 1.54727,2.1723934 0.42404,0.6263552 1.2245,1.8948277 1.77882,2.8188277 0.55432,0.924 1.406,2.4144 1.89263,3.312 0.48663,0.8976 1.52591,2.928 2.3095,4.512 0.7836,1.584 2.31536,4.7376 3.40393,7.008 1.08857,2.2704 2.53332,5.1864 3.21056,6.48 0.67724,1.2936 1.56657,2.9352 1.97629,3.648 0.40972,0.7128 1.10923,1.8792 1.55448,2.592 0.44524,0.7128 1.1678,1.808032 1.60568,2.433849 0.43788,0.625817 1.24533,1.703119 1.79434,2.394004 0.54901,0.690885 1.60105,1.878439 2.33787,2.639008 0.73682,0.760569 1.73042,1.711042 2.208,2.112163 0.47758,0.401121 1.24208,1.002916 1.69889,1.337321 0.45682,0.334406 0.85307,0.666657 0.88058,0.738336 0.0275,0.07168 0.45295,0.457107 0.94544,0.856507 0.49248,0.3994 1.17972,1.020174 1.52721,1.379497 0.34748,0.359323 0.91419,1.042115 1.25935,1.517315 0.34516,0.4752 0.70457,1.0152 0.79868,1.2 0.0941,0.1848 0.39599,0.6384 0.67083,1.008 0.27484,0.3696 0.86719,1.0392 1.31634,1.488 0.44914,0.4488 1.15736,1.143782 1.57382,1.544406 0.41645,0.400623 0.88679,0.811023 1.04519,0.912 0.1584,0.100976 0.39079,0.269994 0.51642,0.375594 0.12563,0.1056 0.91198,0.886957 1.74745,1.736348 0.83546,0.849392 2.46068,2.408118 3.61158,3.463835 1.1509,1.055717 3.04295,2.784935 4.20455,3.842706 1.1616,1.057771 2.81239,2.621653 3.66842,3.475293 0.85603,0.85364 1.97167,2.035256 2.4792,2.625814 0.50753,0.590557 1.15481,1.382019 1.43838,1.758805 0.28358,0.376786 0.77228,1.069395 1.08601,1.539132 0.31372,0.469737 0.78833,1.264467 1.05468,1.766067 0.26635,0.5016 0.62079,1.2576 0.78763,1.68 0.16685,0.4224 0.45168,1.282873 0.63296,1.912163 0.18128,0.629289 0.43323,1.709289 0.55988,2.4 0.12666,0.69071 0.28272,1.860637 0.34682,2.599837 0.0715,0.824466 0.093,1.937752 0.0555,2.88 -0.0335,0.8448 -0.14874,2.1408 -0.25598,2.88 -0.10723,0.7392 -0.3416,1.9488 -0.52081,2.688 -0.17921,0.7392 -0.46319,1.775999 -0.63107,2.303999 -0.16787,0.528 -0.54272,1.5648 -0.833,2.304 -0.29027,0.7392 -0.88659,2.0784 -1.32514,2.976 -0.43856,0.8976 -1.15862,2.2584 -1.60014,3.024 -0.44153,0.7656 -1.16495,1.95891 -1.60761,2.65181 -0.44266,0.69289 -1.32749,1.98981 -1.9663,2.88204 -0.63881,0.89223 -1.50431,2.07492 -1.92334,2.62819 -0.41902,0.55328 -1.38883,1.78356 -2.15513,2.73396 -0.7663,0.9504 -1.97866,2.41875 -2.69413,3.26301 -0.71548,0.84425 -2.56946,3.00425 -4.11996,4.8 -1.55051,1.79574 -3.43185,3.99939 -4.18076,4.89699 -0.74891,0.8976 -1.75245,2.1288 -2.23009,2.736 -0.47763,0.6072 -1.17047,1.5144 -1.53963,2.016 -0.36917,0.5016 -1.01641,1.4304 -1.43831,2.064 -0.42191,0.6336 -0.92754,1.42739 -1.12362,1.76399 -0.19609,0.33659 -0.34021,0.6283 -0.32026,0.64825 0.0199,0.0199 0.29175,-0.0523 0.60401,-0.16046 0.31226,-0.10819 1.05804,-0.2811 1.65729,-0.38425 0.75576,-0.13008 1.53512,-0.18739 2.544,-0.18709 0.93783,2.9e-4 1.90373,0.0665 2.71926,0.18653 0.69565,0.10235 1.71085,0.29767 2.256,0.43406 0.54516,0.13638 1.4664,0.40302 2.0472,0.59253 0.5808,0.18952 1.488,0.51571 2.016,0.72488 0.528,0.20917 1.52492,0.65129 2.21538,0.98248 0.69046,0.3312 1.87846,0.95934 2.64,1.39587 0.76154,0.43653 1.98856,1.2039 2.7267,1.70526 0.73814,0.50136 1.77494,1.24677 2.304,1.65646 0.52906,0.4097 1.5101,1.22615 2.18011,1.81434 0.67,0.58819 1.69505,1.57652 2.27788,2.19629 0.58283,0.61977 1.38786,1.53726 1.78897,2.03886 0.4011,0.5016 0.96423,1.26326 1.25138,1.69259 0.28715,0.42932 0.73598,1.18687 0.9974,1.68343 0.26142,0.49657 0.58335,1.1899 0.7154,1.54073 0.13205,0.35083 0.34688,1.01888 0.47739,1.48456 0.13052,0.46568 0.32536,1.30029 0.43298,1.85469 0.10762,0.5544 0.25936,1.5264 0.3372,2.16 0.0778,0.6336 0.1873,1.7136 0.24326,2.4 0.056,0.6864 0.16654,2.2416 0.24573,3.456 0.0792,1.2144 0.21096,2.856 0.29282,3.648 0.0819,0.792 0.25335,2.0016 0.38109,2.688 0.12774,0.6864 0.31762,1.54347 0.42196,1.9046 0.13713,0.47459 0.30851,0.79565 0.61829,1.15825 0.23572,0.27591 0.87486,0.93815 1.42032,1.47164 0.54546,0.5335 1.80172,1.65389 2.79169,2.48975 0.98997,0.83587 2.1474,1.80056 2.57207,2.14376 0.42467,0.3432 0.91881,0.732 1.09809,0.864 0.17929,0.132 0.67936,0.5208 1.11129,0.864 0.43192,0.3432 0.90549,0.7104 1.05237,0.816 0.14688,0.1056 0.93017,0.69062 1.74065,1.30005 0.81047,0.60943 1.68335,1.25743 1.93973,1.44 0.25637,0.18257 0.75317,0.53753 1.104,0.7888 0.35082,0.25126 0.89705,0.638 1.21385,0.85942 0.3168,0.22142 1.008,0.69912 1.536,1.06155 0.528,0.36244 1.7592,1.18951 2.736,1.83793 0.9768,0.64843 2.208,1.45844 2.736,1.80003 0.528,0.34159 1.29849,0.83418 1.71221,1.09465 0.41371,0.26046 0.89294,0.55997 1.06495,0.66557 0.17201,0.1056 0.65431,0.39991 1.07179,0.65401 0.41748,0.25411 1.14785,0.70288 1.62305,0.99728 0.4752,0.2944 1.0152,0.62078 1.2,0.72529 0.1848,0.10451 0.9192,0.53777 1.632,0.9628 0.7128,0.42504 1.5768,0.92349 1.92,1.10767 0.3432,0.18419 0.732,0.40834 0.864,0.49811 0.132,0.0898 1.212,0.70298 2.4,1.36267 1.188,0.65968 2.484,1.37389 2.88,1.58713 0.396,0.21323 1.0656,0.57298 1.488,0.79944 0.4224,0.22645 1.3728,0.72945 2.112,1.11778 0.7392,0.38833 3.072,1.56323 5.184,2.61089 2.112,1.04766 4.0992,2.02341 4.416,2.16833 0.3168,0.14493 0.9216,0.4255 1.344,0.62351 0.4224,0.198 1.0704,0.49963 1.44,0.67027 0.3696,0.17065 0.8448,0.38864 1.056,0.48444 0.2112,0.0958 0.6648,0.30165 1.008,0.45747 0.3432,0.15582 0.9696,0.43435 1.392,0.61897 0.4224,0.18462 1.2432,0.5403 1.824,0.7904 0.5808,0.2501 1.488,0.64051 2.016,0.86759 0.528,0.22708 2.0832,0.86619 3.456,1.42024 1.3728,0.55406 2.9496,1.16144 3.504,1.34975 0.5544,0.1883 1.5912,0.49331 2.304,0.67779 0.7128,0.18448 1.8144,0.42702 2.448,0.53897 0.6336,0.11196 1.4544,0.24326 1.824,0.29178 0.3696,0.0485 0.8232,0.10799 1.008,0.13216 0.1848,0.0242 0.7896,0.0874 1.344,0.14043 0.5544,0.053 1.4616,0.12527 2.016,0.16048 0.5544,0.0352 1.224,0.0785 1.488,0.0961 0.264,0.0176 3.6336,0.0536 7.488,0.0799 3.8544,0.0263 7.9368,0.0723 9.072,0.10231 1.1352,0.03 2.5176,0.0771 3.072,0.10472 0.5544,0.0276 1.9152,0.13385 3.024,0.23612 1.1088,0.10226 2.1888,0.20894 2.4,0.23706 0.2112,0.0281 0.7728,0.11683 1.248,0.19715 0.4752,0.0803 0.9936,0.16678 1.152,0.19217 0.1584,0.0254 0.396,0.0677 0.528,0.0941 0.132,0.0264 0.348,0.068 0.48,0.0926 0.132,0.0245 0.456,0.0945 0.72,0.15545 0.264,0.061 0.804,0.19538 1.2,0.29866 0.396,0.10328 0.936,0.25291 1.2,0.33251 0.264,0.0796 0.85738,0.27113 1.31863,0.42564 0.46124,0.15451 1.40235,0.52152 2.09135,0.81557 0.689,0.29405 1.5596,0.70332 1.93467,0.90949 0.37507,0.20617 0.71246,0.37485 0.74977,0.37485 0.0373,0 0.14894,0.0896 0.24809,0.1992 0.17825,0.19696 0.17761,0.19854 -0.0571,0.14053 -0.13056,-0.0323 -0.79899,-0.0717 -1.48539,-0.0876 -0.68895,-0.016 -1.65733,0.028 -2.16175,0.0982 -0.50257,0.0699 -1.10737,0.16667 -1.344,0.21498 -0.23664,0.0483 -0.73265,0.17308 -1.10225,0.27728 -0.3696,0.10419 -0.95731,0.29825 -1.30603,0.43124 -0.34871,0.13299 -1.02487,0.43777 -1.50257,0.67728 -0.47771,0.23952 -0.94839,0.47999 -1.04598,0.53439 -0.0976,0.0544 -0.73902,0.41892 -1.42542,0.81005 -0.6864,0.39113 -1.788,0.99048 -2.448,1.33189 -0.66,0.34141 -1.4592,0.71851 -1.776,0.838 -0.3168,0.1195 -0.6624,0.25753 -0.768,0.30673 -0.1056,0.0492 -0.4296,0.15599 -0.72,0.2373 -0.2904,0.0813 -0.6792,0.18639 -0.864,0.23349 -0.1848,0.0471 -0.5088,0.0606 -0.72,0.03 -0.2112,-0.0306 -0.6648,-0.13284 -1.008,-0.2272 -0.3432,-0.0943 -0.79669,-0.2455 -1.00777,-0.33588 -0.21107,-0.0904 -1.03479,-0.47892 -1.8305,-0.86341 -0.7957,-0.3845 -1.78941,-0.80716 -2.20823,-0.93924 -0.41883,-0.13209 -0.9991,-0.2659 -1.2895,-0.29735 -0.2904,-0.0315 -1.068,-0.0801 -1.728,-0.10809 -0.66,-0.028 -1.3944,-0.0713 -1.632,-0.0963 -0.2376,-0.025 -0.7344,-0.0723 -1.104,-0.10523 -0.3696,-0.0329 -0.7584,-0.0682 -0.864,-0.0783 -0.1056,-0.0102 -0.4512,-0.0525 -0.768,-0.094 -0.3168,-0.0415 -1.1808,-0.17729 -1.92,-0.30174 -0.7392,-0.12445 -1.8408,-0.33344 -2.448,-0.46442 -0.6072,-0.13098 -1.3632,-0.30392 -1.68,-0.38431 -0.3168,-0.0804 -0.7704,-0.1976 -1.008,-0.26045 -0.2376,-0.0628 -1.2096,-0.34846 -2.16,-0.63469 -0.9504,-0.28623 -2.484,-0.79391 -3.408,-1.12817 -0.924,-0.33426 -2.1336,-0.78848 -2.688,-1.00938 -0.5544,-0.22089 -1.5912,-0.65221 -2.304,-0.95849 -0.7128,-0.30627 -1.9224,-0.84544 -2.688,-1.19816 -0.7656,-0.35271 -2.472,-1.17963 -3.792,-1.8376 -1.32,-0.65797 -2.9749,-1.49529 -3.67756,-1.8607 -0.70266,-0.36542 -1.63146,-0.85573 -2.064,-1.08957 -0.43254,-0.23385 -1.13204,-0.60911 -1.55444,-0.83391 -0.4224,-0.2248 -1.5888,-0.85074 -2.592,-1.39098 -1.0032,-0.54024 -2.2128,-1.18753 -2.688,-1.43844 -0.4752,-0.2509 -1.188,-0.63133 -1.584,-0.8454 -0.396,-0.21406 -1.1952,-0.64368 -1.776,-0.9547 -0.5808,-0.31102 -2.5464,-1.30863 -4.368,-2.2169 -1.8216,-0.90828 -3.7656,-1.8624 -4.32,-2.12028 -0.5544,-0.25788 -1.4832,-0.68268 -2.064,-0.944 -0.5808,-0.26131 -1.7688,-0.77592 -2.64,-1.14357 -0.8712,-0.36765 -1.908,-0.79125 -2.304,-0.94134 -0.396,-0.15008 -1.1952,-0.45245 -1.776,-0.67192 -0.5808,-0.21947 -1.4232,-0.52902 -1.872,-0.6879 -0.4488,-0.15887 -1.3992,-0.48205 -2.112,-0.71816 -0.7128,-0.23612 -2.0736,-0.66586 -3.024,-0.95499 -0.9504,-0.28913 -1.9656,-0.59321 -2.256,-0.67573 -0.2904,-0.0825 -0.7872,-0.22632 -1.104,-0.31955 -0.3168,-0.0932 -0.8352,-0.241 -1.152,-0.32838 -0.3168,-0.0874 -1.0728,-0.28861 -1.68,-0.44715 -0.6072,-0.15855 -1.2336,-0.32964 -1.392,-0.38021 -0.1584,-0.0506 -0.72693,-0.19782 -1.2634,-0.32722 -0.53648,-0.12941 -1.37888,-0.34704 -1.872,-0.48362 -0.49313,-0.13659 -3.9422,-1.00604 -7.6646,-1.93212 -3.7224,-0.92608 -7.2648,-1.81408 -7.872,-1.97335 -0.6072,-0.15926 -1.2336,-0.32499 -1.392,-0.36828 -0.1584,-0.0433 -1.0872,-0.30432 -2.064,-0.58006 -0.9768,-0.27574 -2.1864,-0.62995 -2.688,-0.78713 -0.5016,-0.15719 -1.7544,-0.56256 -2.784,-0.90084 -1.0296,-0.33828 -2.1744,-0.72669 -2.544,-0.86314 -0.3696,-0.13644 -0.9528,-0.34787 -1.296,-0.46983 -0.3432,-0.12196 -1.0128,-0.38248 -1.488,-0.57893 -0.4752,-0.19645 -1.4472,-0.61673 -2.16,-0.93397 -0.7128,-0.31723 -1.9224,-0.89441 -2.688,-1.28261 -0.7656,-0.3882 -1.8456,-0.97949 -2.4,-1.31397 -0.5544,-0.33449 -1.3752,-0.84843 -1.824,-1.14209 -0.4488,-0.29366 -1.3128,-0.84794 -1.92,-1.23174 -0.6072,-0.3838 -2.8968,-1.91799 -5.088,-3.40931 -2.1912,-1.49132 -4.5888,-3.09315 -5.328,-3.55961 -0.7392,-0.46646 -1.9704,-1.21064 -2.736,-1.65373 -0.7656,-0.44309 -2.1264,-1.16506 -3.024,-1.60438 -0.8976,-0.43931 -2.2368,-1.03664 -2.976,-1.32738 -0.7392,-0.29074 -1.8624,-0.68631 -2.496,-0.87904 -0.6336,-0.19273 -1.6272,-0.45857 -2.208,-0.59077 -0.5808,-0.13219 -1.6176,-0.32651 -2.304,-0.43183 -0.78854,-0.12099 -1.99904,-0.21161 -3.288,-0.24613 -1.25879,-0.0337 -2.04,-0.0198 -2.04,0.0363 0,0.05 0.27672,0.65008 0.61493,1.33347 0.3382,0.68338 0.89767,1.6645 1.24324,2.18025 0.34558,0.51575 0.90013,1.27175 1.23234,1.68 0.33221,0.40825 1.03635,1.17604 1.56475,1.70621 0.52841,0.53017 1.34954,1.28889 1.82474,1.68606 0.4752,0.39717 1.296,1.04747 1.824,1.44511 0.528,0.39764 2.2245,1.59301 3.76999,2.65638 1.5455,1.06337 3.0575,2.11484 3.36,2.3366 0.30251,0.22176 1.04681,0.79836 1.65401,1.28132 0.6072,0.48296 1.55061,1.30384 2.09648,1.82418 0.54586,0.52033 1.33868,1.35924 1.76183,1.86423 0.42314,0.505 1.07156,1.37178 1.44092,1.92618 0.36936,0.5544 0.96656,1.6128 1.32711,2.352 0.36054,0.7392 0.78913,1.72774 0.9524,2.19676 0.16328,0.46901 0.42462,1.35879 0.58077,1.97728 0.15614,0.61849 0.36861,1.64376 0.47214,2.27839 0.10354,0.63462 0.21851,1.52684 0.2555,1.98271 l 0.0673,0.82886 h -0.22979 c -0.12638,0 -0.79112,-0.065 -1.4772,-0.1444 -0.68607,-0.0794 -1.70101,-0.23509 -2.25541,-0.34594 -0.5544,-0.11085 -1.49192,-0.34779 -2.08337,-0.52653 -0.59145,-0.17874 -1.5096,-0.49798 -2.04032,-0.70941 -0.53073,-0.21144 -1.44553,-0.62546 -2.0329,-0.92004 -0.58738,-0.29457 -1.46203,-0.77764 -1.94368,-1.07348 -0.48165,-0.29583 -1.30773,-0.84222 -1.83573,-1.21418 -0.528,-0.37197 -1.4784,-1.09386 -2.112,-1.6042 -0.6336,-0.51034 -1.6488,-1.3751 -2.256,-1.92169 -0.6072,-0.54658 -2.0708,-1.92311 -3.25245,-3.05896 -1.18165,-1.13584 -2.65045,-2.53439 -3.264,-3.10787 -0.61355,-0.57349 -1.64919,-1.50229 -2.30141,-2.064 -0.65223,-0.56172 -1.76204,-1.4533 -2.46625,-1.9813 -0.70421,-0.528 -1.72577,-1.23994 -2.27014,-1.58209 -0.54436,-0.34215 -1.63775,-0.94785 -2.42975,-1.34599 -0.792,-0.39815 -1.62381,-0.78399 -1.84848,-0.85744 -0.22466,-0.0734 -0.43564,-0.10636 -0.46885,-0.0731 -0.0332,0.0332 -0.0811,0.8502 -0.10636,1.81553 -0.0346,1.32135 -0.007,2.03514 0.11286,2.88803 0.0874,0.62308 0.26617,1.54602 0.39737,2.05096 0.13119,0.50495 0.39353,1.33435 0.58296,1.84312 0.18944,0.50877 0.6234,1.47564 0.96436,2.14861 0.34096,0.67297 1.04432,1.86097 1.56302,2.64 0.51871,0.77903 1.36127,1.93482 1.87237,2.56842 0.5111,0.6336 1.43668,1.71362 2.05685,2.40004 0.62016,0.68642 2.55009,2.71781 4.28873,4.51419 1.73865,1.79639 3.63353,3.78357 4.21086,4.41596 0.57732,0.6324 1.48184,1.66821 2.01002,2.30181 0.52819,0.6336 1.31361,1.6272 1.74537,2.208 0.43176,0.5808 1.0673,1.488 1.41231,2.016 0.34501,0.528 1.02482,1.6512 1.51071,2.496 0.48588,0.8448 1.3285,2.4432 1.87249,3.552 0.54399,1.1088 1.25288,2.61517 1.57532,3.34749 0.32243,0.73232 0.97009,2.28752 1.43925,3.456 0.46916,1.16848 1.24997,3.20451 1.73513,4.52451 0.48517,1.32 2.19226,6.3096 3.79352,11.088 1.60127,4.7784 3.36511,9.9624 3.91964,11.52 0.55454,1.5576 1.37378,3.7824 1.82054,4.944 0.44677,1.1616 1.14547,2.9112 1.55269,3.888 0.40721,0.9768 1.04195,2.4456 1.41053,3.264 0.36858,0.8184 1.20743,2.55981 1.8641,3.86979 0.65668,1.30999 1.58724,3.09859 2.06792,3.97468 0.48068,0.87608 1.41488,2.52587 2.07599,3.6662 0.66111,1.14033 1.83057,3.08853 2.59881,4.32933 0.76824,1.2408 2.47606,3.9408 3.79515,6 1.3191,2.0592 3.15429,4.932 4.07821,6.384 0.92392,1.452 2.20586,3.504 2.84876,4.56 0.6429,1.056 1.60105,2.676 2.12922,3.6 0.52817,0.924 1.26412,2.2416 1.63543,2.928 0.37131,0.6864 0.99938,1.896 1.39571,2.688 0.39632,0.792 1.02846,2.12048 1.40474,2.95217 0.37628,0.83169 0.90466,2.06289 1.17419,2.736 0.26952,0.67311 0.70059,1.80352 0.95791,2.51203 0.25733,0.70851 0.66097,1.91811 0.89697,2.688 0.23601,0.76989 0.62464,2.199 0.86362,3.1758 0.23898,0.9768 0.54234,2.36766 0.67414,3.09079 0.1318,0.72313 0.30712,1.86793 0.3896,2.544 0.0825,0.67607 0.20785,1.55321 0.27858,1.94921 0.0707,0.396 0.26309,1.0656 0.42746,1.488 0.16436,0.4224 0.73207,1.5024 1.26158,2.4 0.52951,0.8976 1.09025,1.96234 1.24609,2.36609 0.15585,0.40375 0.32733,0.93032 0.38108,1.17015 0.074,0.33031 0.0619,0.62518 -0.0502,1.21578 -0.0814,0.42884 -0.25335,1.14355 -0.38222,1.58826 -0.12887,0.44471 -0.39232,1.20887 -0.58544,1.69814 -0.19312,0.48927 -0.69546,1.62398 -1.11632,2.52158 -0.42086,0.8976 -0.9791,2.1288 -1.24055,2.736 -0.26144,0.6072 -0.61911,1.5792 -0.79483,2.16 -0.17571,0.5808 -0.394,1.5096 -0.4851,2.064 -0.10884,0.66241 -0.16393,1.51816 -0.16067,2.496 0.003,0.83003 0.0688,1.89065 0.1493,2.3986 0.0794,0.50083 0.13346,0.92148 0.12015,0.93479 z M 116.016,232.608 c 0.0264,0 0.048,-0.0216 0.048,-0.048 0,-0.0264 -0.0216,-0.048 -0.048,-0.048 -0.0264,0 -0.048,0.0216 -0.048,0.048 0,0.0264 0.0216,0.048 0.048,0.048 z m -28.032,-0.096 c 0.0264,0 0.048,-0.0216 0.048,-0.048 0,-0.0264 -0.0216,-0.048 -0.048,-0.048 -0.0264,0 -0.048,0.0216 -0.048,0.048 0,0.0264 0.0216,0.048 0.048,0.048 z m 0.576,-0.48 c 0.0264,0 0.048,-0.0216 0.048,-0.048 0,-0.0264 -0.0216,-0.048 -0.048,-0.048 -0.0264,0 -0.048,0.0216 -0.048,0.048 0,0.0264 0.0216,0.048 0.048,0.048 z m 10.176,-1.248 c 0.0264,0 0.048,-0.0216 0.048,-0.048 0,-0.0264 -0.0216,-0.048 -0.048,-0.048 -0.0264,0 -0.048,0.0216 -0.048,0.048 0,0.0264 0.0216,0.048 0.048,0.048 z M 82.8,230.496 c 0.0264,0 0.048,-0.0216 0.048,-0.048 0,-0.0264 -0.0216,-0.048 -0.048,-0.048 -0.0264,0 -0.048,0.0216 -0.048,0.048 0,0.0264 0.0216,0.048 0.048,0.048 z m 22.176,-0.384 c 0.0264,0 0.048,-0.0216 0.048,-0.048 0,-0.0264 -0.0216,-0.048 -0.048,-0.048 -0.0264,0 -0.048,0.0216 -0.048,0.048 0,0.0264 0.0216,0.048 0.048,0.048 z m -21.888,-1.44 c 0.0264,0 0.048,-0.0216 0.048,-0.048 0,-0.0264 -0.0216,-0.048 -0.048,-0.048 -0.0264,0 -0.048,0.0216 -0.048,0.048 0,0.0264 0.0216,0.048 0.048,0.048 z m 23.808,-0.096 c 0.0264,0 0.048,-0.0216 0.048,-0.048 0,-0.0264 -0.0216,-0.048 -0.048,-0.048 -0.0264,0 -0.048,0.0216 -0.048,0.048 0,0.0264 0.0216,0.048 0.048,0.048 z m 4.032,-0.384 c 0.0264,0 0.048,-0.0216 0.048,-0.048 0,-0.0264 -0.0216,-0.048 -0.048,-0.048 -0.0264,0 -0.048,0.0216 -0.048,0.048 0,0.0264 0.0216,0.048 0.048,0.048 z m -12.96,-2.016 c 0.0264,0 0.048,-0.0216 0.048,-0.048 0,-0.0264 -0.0216,-0.048 -0.048,-0.048 -0.0264,0 -0.048,0.0216 -0.048,0.048 0,0.0264 0.0216,0.048 0.048,0.048 z m -1.632,-2.208 c 0.0264,0 0.048,-0.0216 0.048,-0.048 0,-0.0264 -0.0216,-0.048 -0.048,-0.048 -0.0264,0 -0.048,0.0216 -0.048,0.048 0,0.0264 0.0216,0.048 0.048,0.048 z m -5.418334,-0.096 c 0.04968,0 0.09033,-0.017 0.09033,-0.0377 0,-0.0207 -0.06704,-0.0635 -0.148986,-0.0949 -0.08543,-0.0328 -0.123967,-0.0167 -0.09033,0.0377 0.03226,0.0522 0.0993,0.0949 0.148986,0.0949 z m -0.336,-0.192 c 0.02328,0 0.04233,-0.019 0.04233,-0.0423 0,-0.0233 -0.04988,-0.0732 -0.110833,-0.11084 -0.06867,-0.0424 -0.08477,-0.0263 -0.04233,0.0423 0.03767,0.0609 0.08755,0.11083 0.110833,0.11083 z M 90.288,223.296 c 0.0264,0 0.048,-0.0216 0.048,-0.048 0,-0.0264 -0.0216,-0.048 -0.048,-0.048 -0.0264,0 -0.048,0.0216 -0.048,0.048 0,0.0264 0.0216,0.048 0.048,0.048 z m 2.88,0 c 0.0264,0 0.048,-0.0216 0.048,-0.048 0,-0.0264 -0.0216,-0.048 -0.048,-0.048 -0.0264,0 -0.048,0.0216 -0.048,0.048 0,0.0264 0.0216,0.048 0.048,0.048 z m -2.96,-0.224 c 0.0352,-0.0352 0.0352,-0.0928 0,-0.128 -0.0352,-0.0352 -0.064,-0.006 -0.064,0.064 0,0.0704 0.0288,0.0992 0.064,0.064 z m -0.112,-0.256 c 0.0264,0 0.048,-0.0216 0.048,-0.048 0,-0.0264 -0.0216,-0.048 -0.048,-0.048 -0.0264,0 -0.048,0.0216 -0.048,0.048 0,0.0264 0.0216,0.048 0.048,0.048 z m -0.08,-0.224 c 0.0352,-0.0352 0.0352,-0.0928 0,-0.128 -0.0352,-0.0352 -0.064,-0.006 -0.064,0.064 0,0.0704 0.0288,0.0992 0.064,0.064 z m 2.852669,0.032 c 0.0264,0 0.0747,-0.0432 0.107331,-0.096 0.03263,-0.0528 0.03773,-0.096 0.01133,-0.096 -0.0264,0 -0.0747,0.0432 -0.107331,0.096 -0.03263,0.0528 -0.03773,0.096 -0.01133,0.096 z m 0.263243,-0.3584 c 0.06561,-0.0651 0.09511,-0.14258 0.06555,-0.17214 -0.02956,-0.0296 -0.08324,0.0237 -0.119288,0.1184 -0.0521,0.13682 -0.04107,0.14785 0.05374,0.0537 z M 89.92,222.208 c 0.0352,-0.0352 0.0352,-0.0928 0,-0.128 -0.0352,-0.0352 -0.064,-0.006 -0.064,0.064 0,0.0704 0.0288,0.0992 0.064,0.064 z m -0.112,-0.256 c 0.0264,0 0.048,-0.0216 0.048,-0.048 0,-0.0264 -0.0216,-0.048 -0.048,-0.048 -0.0264,0 -0.048,0.0216 -0.048,0.048 0,0.0264 0.0216,0.048 0.048,0.048 z m 3.504,-0.192 c 0.05118,-0.0792 0.09306,-0.1872 0.09306,-0.24 0,-0.0528 -0.04188,-0.0312 -0.09306,0.048 -0.05118,0.0792 -0.09306,0.1872 -0.09306,0.24 0,0.0528 0.04188,0.0312 0.09306,-0.048 z m -3.6,0 c 0.0264,0 0.048,-0.0216 0.048,-0.048 0,-0.0264 -0.0216,-0.048 -0.048,-0.048 -0.0264,0 -0.048,0.0216 -0.048,0.048 0,0.0264 0.0216,0.048 0.048,0.048 z m 5.088,-0.192 c 0.0264,0 0.048,-0.0216 0.048,-0.048 0,-0.0264 -0.0216,-0.048 -0.048,-0.048 -0.0264,0 -0.048,0.0216 -0.048,0.048 0,0.0264 0.0216,0.048 0.048,0.048 z m -5.174,-0.218 c 0.0319,-0.0319 0.03531,-0.1147 0.0076,-0.184 -0.03065,-0.0766 -0.05339,-0.0538 -0.058,0.058 -0.0042,0.1012 0.01852,0.1579 0.05042,0.126 z m 3.846,-0.102 c 0.0352,-0.0352 0.0352,-0.0928 0,-0.128 -0.0352,-0.0352 -0.064,-0.006 -0.064,0.064 0,0.0704 0.0288,0.0992 0.064,0.064 z m -3.936,-0.288 c 0.0352,-0.0352 0.0352,-0.0928 0,-0.128 -0.0352,-0.0352 -0.064,-0.006 -0.064,0.064 0,0.0704 0.0288,0.0992 0.064,0.064 z m 4.004669,0.032 c 0.0264,0 0.0747,-0.0432 0.107331,-0.096 0.03263,-0.0528 0.03773,-0.096 0.01133,-0.096 -0.0264,0 -0.0747,0.0432 -0.107331,0.096 -0.03263,0.0528 -0.03773,0.096 -0.01133,0.096 z M 88.176,220.8 c 0.0264,0 0.048,-0.0216 0.048,-0.048 0,-0.0264 -0.0216,-0.048 -0.048,-0.048 -0.0264,0 -0.048,0.0216 -0.048,0.048 0,0.0264 0.0216,0.048 0.048,0.048 z m 5.584,-0.128 c 0.0352,-0.0352 0.0352,-0.0928 0,-0.128 -0.0352,-0.0352 -0.064,-0.006 -0.064,0.064 0,0.0704 0.0288,0.0992 0.064,0.064 z m -4.313318,-0.4749 c 0.01984,-0.25239 0.0196,-0.64119 -5.32e-4,-0.864 -0.02013,-0.2228 -0.03637,-0.0163 -0.03607,0.4589 2.92e-4,0.4752 0.01676,0.6575 0.03661,0.4051 z M 93.888,220.32 c 0.05118,-0.0792 0.09306,-0.1872 0.09306,-0.24 0,-0.0528 -0.04188,-0.0312 -0.09306,0.048 -0.05118,0.0792 -0.09306,0.1872 -0.09306,0.24 0,0.0528 0.04188,0.0312 0.09306,-0.048 z m -4.896,-1.26316 c 0.132,0 0.186,-0.0218 0.12,-0.0484 -0.066,-0.0266 -0.174,-0.0266 -0.24,0 -0.066,0.0266 -0.012,0.0484 0.12,0.0484 z M 88.08,212.448 c 0.0264,0 0.048,-0.0216 0.048,-0.048 0,-0.0264 -0.0216,-0.048 -0.048,-0.048 -0.0264,0 -0.048,0.0216 -0.048,0.048 0,0.0264 0.0216,0.048 0.048,0.048 z m -0.456,-2.49747 c 0.0396,-8.1e-4 0.1368,-0.0433 0.216,-0.0945 0.116444,-0.0752 0.102666,-0.0933 -0.072,-0.0945 -0.1188,-8.1e-4 -0.216,0.0417 -0.216,0.0945 0,0.0528 0.0324,0.0953 0.072,0.0945 z M 88.08,209.76 c 0.0264,0 0.048,-0.0216 0.048,-0.048 0,-0.0264 -0.0216,-0.048 -0.048,-0.048 -0.0264,0 -0.048,0.0216 -0.048,0.048 0,0.0264 0.0216,0.048 0.048,0.048 z m -0.72,-6.94273 c 0.3432,0 0.4836,-0.0174 0.312,-0.0387 -0.1716,-0.0213 -0.4524,-0.0213 -0.624,0 -0.1716,0.0213 -0.0312,0.0387 0.312,0.0387 z m 0.72,-0.0653 c 0.0264,0 0.048,-0.0216 0.048,-0.048 0,-0.0264 -0.0216,-0.048 -0.048,-0.048 -0.0264,0 -0.048,0.0216 -0.048,0.048 0,0.0264 0.0216,0.048 0.048,0.048 z m 13.728,-4.032 c 0.0264,0 0.048,-0.0216 0.048,-0.048 0,-0.0264 -0.0216,-0.048 -0.048,-0.048 -0.0264,0 -0.048,0.0216 -0.048,0.048 0,0.0264 0.0216,0.048 0.048,0.048 z m -8.256,-0.768 c 0.0264,0 0.048,-0.0216 0.048,-0.048 0,-0.0264 -0.0216,-0.048 -0.048,-0.048 -0.0264,0 -0.048,0.0216 -0.048,0.048 0,0.0264 0.0216,0.048 0.048,0.048 z m -27.544084,-0.96 c 0.328747,0 0.449637,-0.0502 0.609116,-0.25295 0.109433,-0.13912 0.198968,-0.33156 0.198968,-0.42765 0,-0.12713 -0.09802,-0.19115 -0.36,-0.23513 -0.198,-0.0332 -0.494115,-0.10128 -0.658033,-0.15119 -0.163918,-0.0499 -0.478845,-0.24552 -0.699838,-0.43468 -0.220993,-0.18916 -0.5037,-0.54501 -0.628238,-0.79077 -0.124537,-0.24577 -0.276152,-0.63149 -0.336921,-0.85717 -0.06077,-0.22568 -0.151554,-0.77172 -0.201743,-1.21343 l -0.09125,-0.80309 0.416724,-0.99466 c 0.229199,-0.54706 0.528482,-1.1667 0.665075,-1.37697 0.136592,-0.21027 0.348672,-0.49556 0.471289,-0.63397 0.122616,-0.13842 0.383616,-0.36933 0.579999,-0.51315 0.196383,-0.14382 0.621432,-0.34378 0.944553,-0.44434 0.323121,-0.10057 0.690982,-0.18285 0.817468,-0.18285 0.22273,0 0.228153,0.0174 0.172126,0.55347 -0.039,0.3731 -0.0061,0.75532 0.100816,1.17281 0.08727,0.34063 0.294591,0.83116 0.460723,1.09005 0.166132,0.25889 0.510137,0.63519 0.764456,0.83622 0.254319,0.20103 0.701708,0.45504 0.994199,0.56448 0.292491,0.10943 0.747568,0.19897 1.011284,0.19897 0.263715,0 0.639505,-0.0669 0.835088,-0.14858 0.195584,-0.0817 0.4576,-0.24372 0.582259,-0.36 0.124659,-0.11628 0.308849,-0.3717 0.409311,-0.5676 0.100461,-0.19589 0.182657,-0.42269 0.182657,-0.504 0,-0.0813 -0.05764,-0.14782 -0.128085,-0.14782 -0.07045,0 -0.383328,-0.1788 -0.695293,-0.39733 -0.311964,-0.21853 -1.021126,-0.82963 -1.575915,-1.358 -0.554789,-0.52836 -1.262134,-1.14896 -1.571878,-1.37911 -0.309744,-0.23015 -0.747495,-0.49999 -0.97278,-0.59965 -0.225285,-0.0996 -0.632785,-0.22905 -0.905554,-0.28755 -0.27277,-0.0585 -0.728595,-0.10636 -1.012944,-0.10636 -0.284349,0 -0.811423,0.0629 -1.171275,0.13985 -0.359852,0.0769 -0.956566,0.24288 -1.326031,0.36881 l -0.671756,0.22897 -0.173595,0.66271 c -0.09548,0.36449 -0.427309,1.20292 -0.737405,1.86319 -0.310096,0.66026 -0.609847,1.37327 -0.666114,1.58447 -0.05627,0.2112 -0.102545,0.75552 -0.10284,1.2096 -5.02e-4,0.77491 0.01816,0.85152 0.303986,1.248 0.167486,0.23232 0.804686,0.92535 1.416,1.54008 0.611313,0.61472 1.388177,1.29512 1.726362,1.512 0.474487,0.30428 0.708533,0.39432 1.025033,0.39432 z m 26.584084,0 c 0.0264,0 0.048,-0.0216 0.048,-0.048 0,-0.0264 -0.0216,-0.048 -0.048,-0.048 -0.0264,0 -0.048,0.0216 -0.048,0.048 0,0.0264 0.0216,0.048 0.048,0.048 z m 53.664,-2.688 c 0.0264,0 0.048,-0.0216 0.048,-0.048 0,-0.0264 -0.0216,-0.048 -0.048,-0.048 -0.0264,0 -0.048,0.0216 -0.048,0.048 0,0.0264 0.0216,0.048 0.048,0.048 z M 86.64,194.016 c 0.0264,0 0.048,-0.0216 0.048,-0.048 0,-0.0264 -0.0216,-0.048 -0.048,-0.048 -0.0264,0 -0.048,0.0216 -0.048,0.048 0,0.0264 0.0216,0.048 0.048,0.048 z m 4.32,-0.768 c 0.0264,0 0.048,-0.0216 0.048,-0.048 0,-0.0264 -0.0216,-0.048 -0.048,-0.048 -0.0264,0 -0.048,0.0216 -0.048,0.048 0,0.0264 0.0216,0.048 0.048,0.048 z m 49.536,-1.056 c 0.0264,0 0.048,-0.0216 0.048,-0.048 0,-0.0264 -0.0216,-0.048 -0.048,-0.048 -0.0264,0 -0.048,0.0216 -0.048,0.048 0,0.0264 0.0216,0.048 0.048,0.048 z m -52.032,-1.728 c 0.0264,0 0.048,-0.0216 0.048,-0.048 0,-0.0264 -0.0216,-0.048 -0.048,-0.048 -0.0264,0 -0.048,0.0216 -0.048,0.048 0,0.0264 0.0216,0.048 0.048,0.048 z m 0.192,-0.768 c 0.0264,0 0.048,-0.0216 0.048,-0.048 0,-0.0264 -0.0216,-0.048 -0.048,-0.048 -0.0264,0 -0.048,0.0216 -0.048,0.048 0,0.0264 0.0216,0.048 0.048,0.048 z m 60.672,-0.384 c 0.0264,0 0.048,-0.0216 0.048,-0.048 0,-0.0264 -0.0216,-0.048 -0.048,-0.048 -0.0264,0 -0.048,0.0216 -0.048,0.048 0,0.0264 0.0216,0.048 0.048,0.048 z m -0.96,-2.4 c 0.0264,0 0.048,-0.0216 0.048,-0.048 0,-0.0264 -0.0216,-0.048 -0.048,-0.048 -0.0264,0 -0.048,0.0216 -0.048,0.048 0,0.0264 0.0216,0.048 0.048,0.048 z m -57.984,-1.728 c 0.0264,0 0.048,-0.0216 0.048,-0.048 0,-0.0264 -0.0216,-0.048 -0.048,-0.048 -0.0264,0 -0.048,0.0216 -0.048,0.048 0,0.0264 0.0216,0.048 0.048,0.048 z m 1.632,-2.496 c 0.0264,0 0.048,-0.0216 0.048,-0.048 0,-0.0264 -0.0216,-0.048 -0.048,-0.048 -0.0264,0 -0.048,0.0216 -0.048,0.048 0,0.0264 0.0216,0.048 0.048,0.048 z m -0.384,-0.576 c 0.0264,0 0.048,-0.0216 0.048,-0.048 0,-0.0264 -0.0216,-0.048 -0.048,-0.048 -0.0264,0 -0.048,0.0216 -0.048,0.048 0,0.0264 0.0216,0.048 0.048,0.048 z M 194.064,94.646701 c 0.5808,0.0033 1.35039,-0.05641 1.7102,-0.132651 0.35981,-0.07624 0.98621,-0.297829 1.392,-0.492422 0.55354,-0.265448 0.92021,-0.536091 1.4682,-1.083717 0.57455,-0.574166 0.81673,-0.908588 1.13496,-1.567293 0.24611,-0.509419 0.47735,-1.186196 0.59042,-1.728 0.13204,-0.632703 0.18705,-1.290199 0.18998,-2.270428 0.004,-1.316318 -0.007,-1.396578 -0.23704,-1.744232 -0.13264,-0.200433 -0.38564,-0.474623 -0.56223,-0.609311 -0.17658,-0.134687 -0.53468,-0.34336 -0.79578,-0.463715 -0.41099,-0.189459 -0.62289,-0.217849 -1.57871,-0.211526 -0.95367,0.0063 -1.33929,0.06354 -2.832,0.420313 -1.1755,0.280957 -1.95821,0.415983 -2.448,0.422312 -0.54017,0.007 -0.79372,-0.03476 -1.01515,-0.167108 -0.27476,-0.164225 -0.29084,-0.203858 -0.23277,-0.573668 0.0343,-0.21849 0.15484,-0.576213 0.26784,-0.79494 0.113,-0.218727 0.39055,-0.556311 0.61677,-0.750187 0.22622,-0.193876 0.80011,-0.572685 1.27531,-0.841798 0.4752,-0.269114 1.12563,-0.669434 1.44541,-0.889602 0.55126,-0.379549 0.59855,-0.39436 0.912,-0.285655 0.18182,0.06306 0.7742,0.337364 1.3164,0.60957 0.54219,0.272206 1.47099,0.781571 2.064,1.131922 0.593,0.350351 2.24459,1.379844 3.67019,2.287763 1.4256,0.907919 2.68636,1.700466 2.80169,1.761217 0.11533,0.06075 0.26579,0.110455 0.33436,0.110455 0.0686,0 -0.34979,-0.477827 -0.92969,-1.061838 -0.5799,-0.584011 -1.56592,-1.523611 -2.19117,-2.088 -0.62524,-0.564389 -1.44278,-1.25353 -1.81675,-1.531424 -0.37397,-0.277894 -1.00721,-0.69326 -1.40719,-0.923037 -0.39999,-0.229776 -1.11605,-0.572204 -1.59125,-0.76095 -0.4752,-0.188747 -1.31513,-0.434696 -1.86651,-0.546554 -0.72773,-0.147633 -1.35924,-0.203504 -2.304,-0.203839 -0.71582,-2.54e-4 -1.76852,0.06923 -2.33934,0.154399 -0.57082,0.08517 -1.40444,0.26109 -1.85248,0.390927 -0.44804,0.129837 -1.06681,0.363376 -1.37505,0.518976 -0.30824,0.155599 -0.71843,0.467479 -0.91152,0.693066 -0.19309,0.225586 -0.60687,0.929484 -0.9195,1.564216 -0.31263,0.634732 -0.64302,1.434858 -0.7342,1.778058 -0.11379,0.428284 -0.16671,1.000377 -0.16871,1.824 -0.002,0.871168 0.0447,1.370993 0.17071,1.824 0.0955,0.3432 0.32468,0.9264 0.50927,1.296 0.1846,0.3696 0.50318,0.89485 0.70796,1.167222 0.20478,0.272372 0.60072,0.720941 0.87985,0.99682 0.27914,0.275879 0.80992,0.715744 1.17952,0.977478 0.3696,0.261735 0.9096,0.596512 1.2,0.74395 0.2904,0.147437 0.852,0.382237 1.248,0.521776 0.396,0.139539 1.0008,0.313958 1.344,0.387598 0.3432,0.07364 1.0992,0.136576 1.68,0.139857 z"
       id="path1" />
  </g>
</svg>
