<?xml version="1.0" encoding="UTF-8" standalone="no"?>
<!-- Created with Inkscape (http://www.inkscape.org/) -->

<svg
   version="1.1"
   id="svg1"
   width="364.5437"
   height="362.09229"
   viewBox="0 0 364.5437 362.09229"
   sodipodi:docname="butterfly_Twintail_BLANK.png"
   xmlns:inkscape="http://www.inkscape.org/namespaces/inkscape"
   xmlns:sodipodi="http://sodipodi.sourceforge.net/DTD/sodipodi-0.dtd"
   xmlns="http://www.w3.org/2000/svg"
   xmlns:svg="http://www.w3.org/2000/svg">
  <defs
     id="defs1" />
  <sodipodi:namedview
     id="namedview1"
     pagecolor="#ffffff"
     bordercolor="#000000"
     borderopacity="0.25"
     inkscape:showpageshadow="2"
     inkscape:pageopacity="0.0"
     inkscape:pagecheckerboard="0"
     inkscape:deskcolor="#d1d1d1" />
  <g
     inkscape:groupmode="layer"
     inkscape:label="Image"
     id="g1"
     transform="translate(0.36893252,-0.41644806)">
    <path
       style="fill:#000000"
       d="m 245.49158,362.50842 c -0.0133,0.0133 -0.30004,-0.39647 -0.63719,-0.9106 -0.33715,-0.51414 -0.94714,-1.58279 -1.35553,-2.37479 -0.4084,-0.792 -0.9425,-1.9368 -1.18689,-2.544 -0.2444,-0.6072 -0.6159,-1.6161 -0.82557,-2.24199 -0.20966,-0.6259 -0.55288,-1.79723 -0.76269,-2.60297 -0.20981,-0.80574 -0.50754,-2.08644 -0.66162,-2.84601 -0.15407,-0.75957 -0.36732,-1.92103 -0.47387,-2.58103 -0.10656,-0.66 -0.27981,-1.8696 -0.38502,-2.688 -0.1052,-0.8184 -0.27949,-2.3736 -0.38731,-3.456 -0.10782,-1.0824 -0.32675,-3.6528 -0.48651,-5.712 -0.15975,-2.0592 -0.37756,-4.7376 -0.48402,-5.952 -0.10646,-1.2144 -0.28144,-2.9424 -0.38886,-3.84 -0.10741,-0.8976 -0.30111,-2.3016 -0.43045,-3.12 -0.12933,-0.8184 -0.32422,-1.9416 -0.43308,-2.496 -0.10887,-0.5544 -0.37311,-1.69916 -0.58721,-2.5439 -0.2141,-0.84475 -0.57483,-2.07595 -0.80163,-2.736 -0.22681,-0.66006 -0.57522,-1.5889 -0.77426,-2.0641 -0.19904,-0.4752 -1.03889,-2.2248 -1.86632,-3.888 -0.82744,-1.6632 -2.05524,-4.0608 -2.72844,-5.328 -0.67321,-1.2672 -1.5925,-2.9736 -2.04288,-3.792 -0.45038,-0.8184 -1.42349,-2.5464 -2.16247,-3.84 -0.73899,-1.2936 -1.88493,-3.2592 -2.54655,-4.368 -0.66162,-1.1088 -1.79293,-2.9664 -2.51403,-4.128 -0.7211,-1.1616 -1.95069,-3.1056 -2.73241,-4.32 -0.78173,-1.2144 -2.12332,-3.24722 -2.98131,-4.51738 -0.858,-1.27016 -2.23752,-3.27205 -3.06562,-4.44864 -0.82809,-1.17659 -2.12876,-2.98856 -2.89037,-4.02661 -0.76161,-1.03806 -2.06189,-2.77297 -2.8895,-3.85537 -0.82761,-1.0824 -2.11032,-2.724 -2.85046,-3.648 -0.74013,-0.924 -1.96043,-2.41797 -2.71176,-3.31993 -0.75133,-0.90197 -1.85086,-2.19797 -2.44341,-2.88 -0.59255,-0.68204 -1.87969,-2.12567 -2.86032,-3.20807 -0.98063,-1.0824 -3.00476,-3.19041 -4.49807,-4.68446 l -2.71512,-2.71646 -0.98493,0.0765 c -0.54171,0.042 -2.38893,0.0731 -4.10493,0.0691 -2.18178,-0.005 -3.6252,-0.057 -4.8,-0.17222 -0.924,-0.0907 -2.2632,-0.25244 -2.976,-0.35949 -0.7128,-0.10706 -2.02157,-0.34544 -2.90837,-0.52974 -0.8868,-0.18431 -2.28217,-0.52735 -3.10082,-0.76232 -0.81865,-0.23497 -2.03041,-0.62367 -2.6928,-0.86378 -0.6624,-0.24011 -1.66137,-0.63176 -2.21994,-0.87034 -0.55857,-0.23858 -1.45084,-0.65185 -1.98283,-0.91837 -0.53198,-0.26652 -1.31284,-0.68077 -1.73524,-0.92056 -0.4224,-0.23979 -1.31732,-0.79621 -1.98871,-1.23649 -0.67139,-0.44029 -1.77299,-1.2391 -2.448,-1.77513 -0.67501,-0.53604 -1.87529,-1.62731 -2.66729,-2.42506 -0.792,-0.79774 -1.82392,-1.94649 -2.29315,-2.55278 -0.46923,-0.60628 -1.09944,-1.46953 -1.40046,-1.91833 -0.30103,-0.4488 -0.79682,-1.24124 -1.10175,-1.76098 -0.30493,-0.51974 -0.80376,-1.47014 -1.10852,-2.112 -0.30476,-0.64186 -0.71514,-1.57742 -0.91194,-2.07902 -0.19681,-0.5016 -0.50716,-1.3656 -0.68966,-1.92 -0.18251,-0.5544 -0.48116,-1.6128 -0.66368,-2.352 -0.18252,-0.7392 -0.43858,-1.9704 -0.56902,-2.736 -0.13044,-0.7656 -0.2648,-1.72299 -0.29858,-2.12752 -0.0338,-0.40454 -0.0948,-0.78945 -0.13548,-0.85535 -0.0524,-0.0848 -0.36394,0.10749 -1.06691,0.65869 -0.54607,0.42818 -1.59765,1.30947 -2.33685,1.95842 -0.7392,0.64896 -2.3204,2.15233 -3.51378,3.34084 -1.19338,1.18851 -3.45876,3.52172 -5.03418,5.18492 -1.57542,1.6632 -3.80275,3.95727 -4.94963,5.09793 -1.14688,1.14066 -2.76138,2.68484 -3.58778,3.43151 -0.8264,0.74667 -2.05066,1.81579 -2.72059,2.3758 -0.66992,0.56002 -1.82284,1.47334 -2.56204,2.02961 -0.7392,0.55626 -2.0784,1.49786 -2.976,2.09243 -0.8976,0.59458 -2.256,1.43811 -3.01866,1.87451 -0.76266,0.4364 -2.16666,1.17059 -3.12,1.63154 -0.95334,0.46095 -2.38134,1.09723 -3.17334,1.41396 -0.792,0.31672 -2.1096,0.79524 -2.928,1.06338 -0.8184,0.26814 -2.0496,0.64061 -2.736,0.82771 -0.686398,0.18709 -1.982398,0.49011 -2.879998,0.67336 -0.8976,0.18325 -2.234324,0.42242 -2.970497,0.53149 -0.736173,0.10908 -1.945773,0.26012 -2.688,0.33565 -0.742227,0.0755 -1.440115,0.13818 -1.550863,0.13922 -0.110748,0.001 -0.564348,-0.27178 -1.008,-0.60629 -0.443652,-0.3345 -1.49784,-1.10345 -2.34264,-1.70879 -0.8448,-0.60533 -2.6808,-1.87986 -4.08,-2.83229 -1.3992,-0.95242 -4.27376,-2.89878 -6.387911,-4.32523 -2.114151,-1.42646 -4.619751,-3.14735 -5.568,-3.8242 -0.948249,-0.67685 -2.242489,-1.61983 -2.876089,-2.09552 -0.6336,-0.47569 -1.768023,-1.35429 -2.520939,-1.95245 -0.752917,-0.59816 -1.984117,-1.61583 -2.736,-2.26149 -0.751884,-0.64565 -2.204768,-1.99515 -3.228633,-2.99888 -1.023865,-1.00373 -2.37003,-2.39285 -2.991479,-3.08693 -0.621449,-0.69408 -1.555851,-1.7959 -2.076448,-2.4485 -0.520598,-0.65259 -1.183232,-1.5205 -1.472521,-1.92868 l -0.52598,-0.74222 -0.816,-0.2509 c -0.4488,-0.13799 -1.3776,-0.45751 -2.064,-0.71003 -0.6864,-0.25252 -2.0256,-0.79112 -2.976,-1.19688 -0.9504,-0.40576 -3.024,-1.38079 -4.608,-2.16673 -1.584,-0.78594 -4.9752,-2.55932 -7.536,-3.94085 -2.5608,-1.38153 -5.6712,-3.03697 -6.912,-3.67875 -1.2408,-0.64179 -3.0336,-1.53973 -3.984,-1.99541 -0.9504,-0.45569 -2.338927,-1.08967 -3.085617,-1.40884 -0.746689,-0.31917 -1.803928,-0.73566 -2.34942,-0.92553 -0.545492,-0.18987 -1.489764,-0.4751 -2.098383,-0.63383 -0.608619,-0.15874 -2.48898,-0.56818 -4.17858,-0.90987 -1.6896,-0.34168 -3.5707693,-0.74774 -4.1803762,-0.90234 -0.6096069,-0.15461 -1.4587773,-0.4103 -1.8870452,-0.5682 -0.428268,-0.15791 -1.0958987,-0.44592 -1.4836239,-0.64003 -0.3877251,-0.19411 -0.9661982,-0.53822 -1.2854959,-0.76468 -0.3192977,-0.22647 -0.8457841,-0.69531 -1.1699698,-1.04186 -0.3241858,-0.34656 -0.7712122,-0.93609 -0.99339214,-1.31007 -0.2221799,-0.37399 -0.52502527,-1.04024 -0.67298975,-1.48056 -0.14796449,-0.44032 -0.34571568,-1.18325 -0.43944709,-1.65096 -0.11822236,-0.58992 -0.17015694,-1.29144 -0.16955945,-2.29038 5.959e-4,-0.99627 0.0521084,-1.68233 0.16716759,-2.2264 0.0914685,-0.43252 0.2782934,-1.12372 0.41516655,-1.536 0.13687314,-0.41228 0.43423375,-1.1384 0.66080145,-1.6136 0.22656764,-0.4752 0.66760944,-1.2528 0.98009294,-1.728 0.3124835,-0.4752 0.8930147,-1.2528 1.2900692,-1.728 0.3970546,-0.4752 1.1725569,-1.296 1.7233384,-1.824 0.5507816,-0.528 1.423988,-1.29914 1.9404587,-1.71364 0.5164707,-0.4145 1.398935,-1.0756 1.9610318,-1.46912 0.5620967,-0.39351 1.6073938,-1.07357 2.3228838,-1.51125 0.715489,-0.43768 1.955826,-1.14584 2.756304,-1.57368 0.800479,-0.42785 2.139679,-1.09957 2.976,-1.49273 0.836322,-0.39315 1.995785,-0.91871 2.576585,-1.16789 0.5808,-0.24919 1.8552,-0.76693 2.832,-1.15053 0.9768,-0.38359 2.64,-1.00124 3.696,-1.37254 1.056,-0.3713 2.8488,-0.96346 3.984,-1.31592 1.1352,-0.35245 2.9064,-0.87683 3.936,-1.16529 1.0296,-0.28846 3.06,-0.82209 4.512,-1.18584 1.452,-0.36376 3.5256,-0.85614 4.608,-1.09417 1.0824,-0.23804 2.724,-0.58436 3.648,-0.7696 0.924,-0.18525 2.6304,-0.50855 3.792,-0.71844 1.1616,-0.2099 3.2352,-0.55585 4.608,-0.76879 1.3728,-0.21294 3.2952,-0.49451 4.272,-0.62572 0.9768,-0.13121 2.964,-0.36913 4.416,-0.52871 1.452,-0.15959 3.7632,-0.37688 5.136,-0.48288 1.3728,-0.106 3.377133,-0.23694 4.454074,-0.29099 1.076941,-0.054 3.280141,-0.0979 4.896,-0.0973 1.615859,5e-4 3.780326,0.0435 4.809926,0.0955 1.0296,0.052 2.736,0.16082 3.792,0.24181 1.056,0.081 3.0216,0.25554 4.368,0.38792 1.3464,0.13237 5.1912,0.56155 8.544,0.95375 3.352798,0.39219 6.873598,0.79832 7.823998,0.90252 0.9504,0.10419 2.7432,0.27841 3.984,0.38715 1.2408,0.10875 2.65308,0.24108 3.13839,0.29408 0.48532,0.053 1.39252,0.0965 2.016,0.0967 0.62349,1.9e-4 2.23521,0.0864 3.58161,0.19168 1.3464,0.10523 2.772,0.21648 3.168,0.24723 0.396,0.0307 1.1647,0.11834 1.70823,0.19468 0.54352,0.0763 1.25771,0.20128 1.58708,0.27767 0.32937,0.0764 1.02947,0.18469 1.55577,0.24067 0.52631,0.056 1.82092,0.23242 2.87692,0.39207 1.056,0.15966 2.3736,0.37506 2.928,0.47866 0.5544,0.10361 1.9368,0.44345 3.072,0.7552 1.1352,0.31176 2.6256,0.69745 3.312,0.85711 0.6864,0.15965 1.572,0.30822 1.968,0.33016 0.53331,0.0295 1.10355,0.16731 2.19919,0.53135 0.81355,0.27032 1.72929,0.54069 2.03498,0.60083 0.30569,0.0601 0.8372,0.0914 1.18113,0.0695 0.34393,-0.0219 0.65469,-0.0692 0.69058,-0.10507 0.0359,-0.0359 -0.10286,-0.27049 -0.30832,-0.52134 -0.20546,-0.25085 -0.99398,-1.07484 -1.75226,-1.83109 -0.75829,-0.75625 -2.68069,-2.56954 -4.272,-4.02952 -1.59132,-1.45999 -3.7357,-3.43872 -4.7653,-4.39719 -1.0296,-0.95846 -2.33575,-2.22665 -2.90256,-2.8182 -0.5668,-0.59154 -1.366,-1.52301 -1.776,-2.06992 -0.40999,-0.54691 -0.89036,-1.23445 -1.06748,-1.52786 -0.17713,-0.29341 -0.43185,-0.80472 -0.56606,-1.13624 -0.13876,-0.34275 -0.26398,-0.87892 -0.2903,-1.24296 -0.0382,-0.52867 -0.009,-0.71737 0.16817,-1.08319 0.11915,-0.24614 0.44449,-0.6416 0.73208,-0.88989 l 0.51763,-0.44689 -0.21574,-0.23082 c -0.11866,-0.12694 -0.71825,-0.63562 -1.33242,-1.13038 -0.61417,-0.49476 -1.28377,-1.10177 -1.488,-1.34891 -0.20423,-0.24714 -0.47932,-0.56685 -0.61132,-0.71047 -0.132,-0.14362 -0.5424,-0.46148 -0.912,-0.70636 -0.3696,-0.24488 -0.85401,-0.61489 -1.07646,-0.82225 -0.22246,-0.20737 -0.43304,-0.49087 -0.46796,-0.63 -0.0349,-0.13914 -0.20423,-0.3474 -0.37624,-0.46281 -0.17201,-0.11541 -1.14943,-0.88182 -2.17204,-1.70314 -1.02262,-0.82132 -2.2481,-1.77505 -2.7233,-2.1194 -0.4752,-0.34435 -1.3824,-0.97194 -2.016,-1.39464 -0.6336,-0.42271 -1.6272,-1.04945 -2.208,-1.39276 -0.5808,-0.34332 -1.5528,-0.88724 -2.16,-1.20871 -0.6072,-0.32147 -1.7304,-0.8639 -2.496,-1.2054 -0.7656,-0.34149 -2.148,-0.90156 -3.072,-1.2446 -0.924,-0.34304 -2.2632,-0.79956 -2.976,-1.01449 -0.7128,-0.21493 -1.7712,-0.5189 -2.352,-0.67549 -0.5808,-0.15659 -1.6392,-0.41992 -2.352,-0.5852 -0.7128,-0.16527 -2.527198,-0.55504 -4.031998,-0.86617 -1.5048,-0.31112 -4.0536,-0.84596 -5.664,-1.18854 -1.6104,-0.34258 -3.73247,-0.77504 -4.71571,-0.96103 -0.983241,-0.18599 -2.668041,-0.46788 -3.744,-0.62642 -1.07596,-0.15855 -2.539668,-0.34088 -3.252685,-0.40517 l -1.296395,-0.11691 -0.719064,0.55558 c -0.395486,0.30557 -0.957255,0.67582 -1.248377,0.82278 -0.291122,0.14695 -0.896166,0.37651 -1.344541,0.51011 -0.448375,0.13361 -1.303077,0.35648 -1.899338,0.49528 -0.59626,0.1388 -1.425824,0.39648 -1.843476,0.57263 l -0.759367,0.32026 -0.472244,-0.6852 c -0.259734,-0.37686 -0.61163,-0.96241 -0.781992,-1.30122 -0.28741,-0.57159 -0.305075,-0.66159 -0.244961,-1.248 0.03563,-0.34759 0.127998,-0.91585 0.205256,-1.2628 l 0.140469,-0.63082 0.500213,-0.12513 c 0.275116,-0.0688 0.997012,-0.28953 1.604212,-0.49045 0.6072,-0.20092 1.441926,-0.41154 1.854947,-0.46805 0.41302,-0.0565 0.85582,-0.10273 0.984,-0.10273 0.143158,0 0.233053,0.0555 0.233053,0.144 0,0.12194 0.233118,0.144 1.522059,0.144 0.837133,0 2.079133,0.0432 2.76,0.0961 0.680868,0.0528 1.821141,0.16423 2.533941,0.24752 0.7128,0.0833 2.192882,0.29916 3.289071,0.47971 1.096189,0.18055 3.148189,0.56296 4.56,0.84979 1.411811,0.28684 4.122129,0.84808 6.022929,1.2472 1.9008,0.39913 4.1688,0.88011 5.039998,1.06886 0.8712,0.18876 2.25147,0.51634 3.06726,0.72796 0.81579,0.21163 2.18277,0.59574 3.03774,0.85358 0.85496,0.25784 2.32589,0.75621 3.26874,1.10749 0.94284,0.35128 2.34066,0.91797 3.10626,1.25931 0.7656,0.34134 1.97397,0.92551 2.68528,1.29816 0.7113,0.37264 1.8561,1.01281 2.544,1.42261 0.68789,0.40979 1.81232,1.12254 2.49872,1.58389 0.6864,0.46134 1.896,1.32422 2.688,1.9175 0.792,0.59328 2.0016,1.53916 2.688,2.10197 0.6864,0.5628 1.38832,1.20073 1.55983,1.41762 0.17151,0.21689 0.6696,0.76659 1.10688,1.22154 0.43728,0.45496 0.98816,0.97635 1.22417,1.15865 0.23602,0.1823 0.64052,0.5711 0.8989,0.864 0.25838,0.2929 0.86318,0.94752 1.344,1.45471 0.48082,0.50718 1.11587,1.18227 1.41123,1.5002 0.45604,0.4909 0.5646,0.56322 0.72,0.47969 0.10064,-0.0541 0.19421,-0.10682 0.20793,-0.11715 0.0137,-0.0103 -0.0584,-0.44676 -0.16024,-0.96984 -0.10185,-0.52308 -0.25301,-1.36146 -0.33591,-1.86306 -0.0829,-0.5016 -0.23985,-1.56 -0.3488,-2.352 -0.10894,-0.792 -0.30381,-1.96383 -0.43303,-2.60406 -0.12923,-0.64024 -0.23496,-1.33098 -0.23496,-1.53499 0,-0.204 -0.11305,-0.91137 -0.25122,-1.57193 -0.13816,-0.66056 -0.44318,-1.79795 -0.67782,-2.52753 -0.23463,-0.72958 -0.66556,-1.89598 -0.95761,-2.592 -0.29206,-0.69602 -0.93142,-2.0656 -1.42081,-3.04352 -0.48938,-0.97792 -1.27906,-2.46832 -1.75485,-3.312 -0.47578,-0.84368 -1.53382,-2.70037 -2.35119,-4.12597 -0.81737,-1.4256 -1.87973,-3.3264 -2.36081,-4.224 -0.48108,-0.8976 -1.17332,-2.28 -1.53832,-3.072 -0.36499,-0.792 -0.88421,-2.03241 -1.15382,-2.75646 -0.2696,-0.72406 -0.76817,-2.23606 -1.10792,-3.36 -0.33975,-1.12395 -0.79276,-2.75634 -1.00669,-3.627542 -0.21392,-0.8712 -0.49537,-2.124 -0.62544,-2.784 -0.13006,-0.66 -0.3254,-1.833955 -0.43408,-2.608788 -0.10868,-0.774833 -0.24746,-2.135633 -0.30841,-3.024 -0.0824,-1.201388 -0.0838,-2.279293 -0.005,-4.207212 0.0579,-1.4256 0.12635,-3.2184 0.15204,-3.984 0.0257,-0.7656 0.1083,-1.6512 0.18359,-1.968 0.0753,-0.3168 0.23766,-0.9432 0.36084,-1.392 0.12318,-0.4488 0.25627,-0.838698 0.29575,-0.866439 0.0395,-0.02774 0.15066,-0.236134 0.24705,-0.463095 l 0.17526,-0.412655 0.23796,0.178735 c 0.13089,0.09831 0.7048,0.389456 1.27538,0.647003 0.82961,0.374471 1.12108,0.561338 1.45516,0.932916 0.22977,0.255556 0.48792,0.669598 0.57368,0.920091 0.0858,0.250494 0.19899,0.757025 0.25163,1.125623 0.0641,0.44852 0.0635,0.959336 -0.002,1.544434 -0.0536,0.48084 -0.20718,1.296467 -0.34126,1.812505 -0.13408,0.516039 -0.41991,1.354644 -0.63517,1.863567 -0.21527,0.508923 -0.48151,1.076515 -0.59164,1.261315 -0.11014,0.1848 -0.38789,0.582924 -0.61723,0.884721 l -0.41699,0.548721 0.10301,1.467279 c 0.0567,0.807003 0.19038,2.093679 0.29718,2.859279 0.10679,0.7656 0.3451,2.116537 0.52957,3.002082 0.18447,0.885545 0.55168,2.419145 0.81603,3.408 0.26435,0.98886 0.77504,2.68352 1.13489,3.76592 0.35984,1.0824 0.85843,2.4432 1.10797,3.024 0.24954,0.5808 0.85756,1.8552 1.35114,2.832 0.49359,0.9768 2.06886,3.828 3.50062,6.336 1.43175,2.508 3.11547,5.5968 3.74159,6.864 0.62612,1.2672 1.37529,2.9088 1.66481,3.648 0.28952,0.7392 0.68069,1.85466 0.86926,2.4788 0.18857,0.62415 0.43842,1.59615 0.55522,2.16 0.11679,0.56386 0.24341,1.04706 0.28138,1.07377 0.038,0.0267 0.11713,0.37232 0.17591,0.768 0.0588,0.39569 0.19247,1.32423 0.29709,2.06343 0.10462,0.7392 0.23226,1.56 0.28363,1.824 0.0514,0.264 0.13812,0.8688 0.19276,1.344 0.0546,0.4752 0.14182,1.1564 0.19373,1.51378 0.0519,0.35738 0.0944,0.86498 0.0944,1.128 v 0.47822 h 1.46459 c 0.80552,0 2.0123,0.0641 2.68173,0.14238 0.66942,0.0783 1.61956,0.23157 2.11141,0.34059 0.49185,0.10902 1.41267,0.37061 2.04627,0.58131 0.6336,0.21069 1.7568,0.67919 2.496,1.0411 0.7392,0.36191 1.9272,1.04739 2.64,1.52329 0.7128,0.47591 1.69798,1.18846 2.1893,1.58346 0.49131,0.39499 1.26891,1.05256 1.728,1.46127 0.45908,0.4087 1.9363,1.78978 3.2827,3.06907 1.3464,1.27929 2.9232,2.7486 3.504,3.26514 0.5808,0.51654 1.19758,1.04716 1.37061,1.17916 0.17304,0.132 0.33238,0.22224 0.3541,0.20052 0.0217,-0.0217 -0.12635,-0.79454 -0.32903,-1.71738 -0.20267,-0.92285 -0.59196,-2.62831 -0.86508,-3.78991 -0.27313,-1.1616 -0.84192,-3.4944 -1.264,-5.184 -0.42208,-1.6896 -1.64742,-6.4632 -2.72298,-10.608 -1.07556,-4.1448 -2.43095,-9.4368 -3.01197,-11.76 -0.58103,-2.3232 -1.34161,-5.4336 -1.69019,-6.912 -0.34858,-1.4784 -0.89384,-3.8544 -1.21168,-5.28 -0.31784,-1.4256 -0.91908,-4.2984 -1.33609,-6.384 -0.41701,-2.0856 -0.95404,-4.915202 -1.19339,-6.288002 -0.23935,-1.3728 -0.60724,-3.6408 -0.81753,-5.04 -0.21028,-1.3992 -0.51794,-3.6024 -0.68367,-4.896 -0.16574,-1.2936 -0.31139,-2.7408 -0.32369,-3.216 -0.0123,-0.4752 -0.0533,-1.4256 -0.0912,-2.112 -0.0379,-0.6864 -0.17084,-1.8096 -0.29545,-2.496 -0.1246,-0.6864 -0.25309,-1.544963 -0.28553,-1.907918 -0.0324,-0.362955 -0.12139,-0.924555 -0.19767,-1.248 -0.0966,-0.409595 -0.13911,-1.176292 -0.1401,-2.526125 -0.001,-1.445236 -0.0408,-2.104332 -0.15635,-2.592 -0.12313,-0.5197 -0.1433,-0.951381 -0.0983,-2.102692 0.0312,-0.796805 0.0997,-1.660805 0.15231,-1.92 0.0526,-0.259196 0.18402,-2.393665 0.29204,-4.743265 0.10803,-2.3496 0.26082,-5.6328 0.33953,-7.296 0.0787,-1.6632 0.20826,-4.1472 0.28787,-5.52 0.0796,-1.3728 0.20974,-3.36 0.28919,-4.416 0.0795,-1.056 0.20932,-2.6112 0.2886,-3.456 0.0793,-0.8448 0.23202,-2.3136 0.3394,-3.264 0.10738,-0.9504 0.32389,-2.6136 0.48114,-3.696 0.15724,-1.0824 0.43788,-2.787937 0.62366,-3.790083 0.18577,-1.002146 0.51182,-2.573201 0.72454,-3.491233 0.21273,-0.918032 0.57487,-2.322895 0.80476,-3.121917 0.22988,-0.799022 0.63077,-2.079167 0.89086,-2.844767 0.26009,-0.7656 0.70129,-1.9536 0.98044,-2.64 0.27915,-0.6864 0.77438,-1.810915 1.1005,-2.498922 0.32613,-0.688007 0.86395,-1.724807 1.19515,-2.304 0.33121,-0.579193 0.97212,-1.611659 1.42423,-2.294369 0.45212,-0.682709 1.25703,-1.784309 1.78869,-2.447999 0.53167,-0.6636908 1.50748,-1.7475443 2.16847,-2.408564 0.661,-0.6610197 1.65541,-1.5709858 2.20981,-2.0221468 0.5544,-0.4511611 1.3752,-1.0842 1.824,-1.4067531 0.4488,-0.3225531 1.2912,-0.8734694 1.872,-1.2242584 0.5808,-0.3507891 1.68369,-0.9505746 2.45086,-1.3328568 0.76717,-0.3822822 1.79719,-0.85608707 2.28892,-1.05289969 l 0.89406,-0.35784114 0.92708,0.74544663 c 0.50989,0.4099956 1.43947,1.2428926 2.06572,1.8508822 0.62625,0.6079896 1.57665,1.6184488 2.112,2.2454649 0.53535,0.6270161 1.3227,1.6051339 1.74966,2.1735951 0.42697,0.5684611 1.12324,1.5460382 1.54727,2.1723934 0.42404,0.6263557 1.2245,1.8948277 1.77882,2.8188277 0.55432,0.924 1.406,2.4144 1.89263,3.312 0.48663,0.8976 1.52591,2.928 2.3095,4.512 0.7836,1.584 2.31536,4.7376 3.40393,7.008 1.08857,2.2704 2.53332,5.1864 3.21056,6.48 0.67724,1.2936 1.56657,2.9352 1.97629,3.648 0.40972,0.7128 1.10923,1.8792 1.55448,2.592 0.44524,0.7128 1.1678,1.808032 1.60568,2.433849 0.43788,0.625817 1.24533,1.703119 1.79434,2.394004 0.54901,0.690885 1.60105,1.878439 2.33787,2.639008 0.73682,0.760569 1.73042,1.711042 2.208,2.112163 0.47758,0.401121 1.24208,1.002916 1.69889,1.337321 0.45682,0.334406 0.85307,0.666657 0.88058,0.738336 0.0275,0.07168 0.45295,0.457107 0.94544,0.856507 0.49248,0.3994 1.17972,1.020174 1.52721,1.379497 0.34748,0.359323 0.91419,1.042115 1.25935,1.517315 0.34516,0.4752 0.70457,1.0152 0.79868,1.2 0.0941,0.1848 0.39599,0.6384 0.67083,1.008 0.27484,0.3696 0.86719,1.0392 1.31634,1.488 0.44914,0.4488 1.15736,1.143782 1.57382,1.544406 0.41645,0.400623 0.88679,0.811023 1.04519,0.912 0.1584,0.100976 0.39079,0.269994 0.51642,0.375594 0.12563,0.1056 0.91198,0.886957 1.74745,1.736348 0.83546,0.849392 2.46068,2.408118 3.61158,3.463835 1.1509,1.055717 3.04295,2.784935 4.20455,3.842706 1.1616,1.057771 2.81239,2.621653 3.66842,3.475293 0.85603,0.85364 1.97167,2.035256 2.4792,2.625814 0.50753,0.590557 1.15481,1.382019 1.43838,1.758805 0.28358,0.376786 0.77228,1.069395 1.08601,1.539132 0.31372,0.469737 0.78833,1.264467 1.05468,1.766067 0.26635,0.5016 0.62079,1.2576 0.78763,1.68 0.16685,0.4224 0.45168,1.282873 0.63296,1.912163 0.18128,0.629289 0.43323,1.709289 0.55988,2.4 0.12666,0.69071 0.28272,1.860637 0.34682,2.599837 0.0715,0.824466 0.093,1.937752 0.0555,2.88 -0.0335,0.8448 -0.14874,2.1408 -0.25598,2.88 -0.10723,0.7392 -0.3416,1.9488 -0.52081,2.688 -0.17921,0.7392 -0.46319,1.776002 -0.63107,2.304002 -0.16787,0.528 -0.54272,1.5648 -0.833,2.304 -0.29027,0.7392 -0.88659,2.0784 -1.32514,2.976 -0.43856,0.8976 -1.15862,2.2584 -1.60014,3.024 -0.44153,0.7656 -1.16495,1.95891 -1.60761,2.65181 -0.44266,0.69289 -1.32749,1.98981 -1.9663,2.88204 -0.63881,0.89223 -1.50431,2.07492 -1.92334,2.62819 -0.41902,0.55328 -1.38883,1.78356 -2.15513,2.73396 -0.7663,0.9504 -1.97866,2.41875 -2.69413,3.26301 -0.71548,0.84425 -2.56946,3.00425 -4.11996,4.8 -1.55051,1.79574 -3.43185,3.99939 -4.18076,4.89699 -0.74891,0.8976 -1.75245,2.1288 -2.23009,2.736 -0.47763,0.6072 -1.17047,1.5144 -1.53963,2.016 -0.36917,0.5016 -1.01641,1.4304 -1.43831,2.064 -0.42191,0.6336 -0.92754,1.42739 -1.12362,1.76399 -0.19609,0.33659 -0.34021,0.6283 -0.32026,0.64825 0.0199,0.0199 0.29175,-0.0523 0.60401,-0.16046 0.31226,-0.10819 1.05804,-0.2811 1.65729,-0.38425 0.75576,-0.13008 1.53512,-0.18739 2.544,-0.18709 0.93783,2.9e-4 1.90373,0.0665 2.71926,0.18653 0.69565,0.10235 1.71085,0.29767 2.256,0.43406 0.54516,0.13638 1.4664,0.40302 2.0472,0.59253 0.5808,0.18952 1.488,0.51571 2.016,0.72488 0.528,0.20917 1.52492,0.65129 2.21538,0.98248 0.69046,0.3312 1.87846,0.95934 2.64,1.39587 0.76154,0.43653 1.98856,1.2039 2.7267,1.70526 0.73814,0.50136 1.77494,1.24677 2.304,1.65646 0.52906,0.4097 1.5101,1.22615 2.18011,1.81434 0.67,0.58819 1.69505,1.57652 2.27788,2.19629 0.58283,0.61977 1.38786,1.53726 1.78897,2.03886 0.4011,0.5016 0.96423,1.26326 1.25138,1.69259 0.28715,0.42932 0.73598,1.18687 0.9974,1.68343 0.26142,0.49657 0.58335,1.1899 0.7154,1.54073 0.13205,0.35083 0.34688,1.01888 0.47739,1.48456 0.13052,0.46568 0.32536,1.30029 0.43298,1.85469 0.10762,0.5544 0.25936,1.5264 0.3372,2.16 0.0778,0.6336 0.1873,1.7136 0.24326,2.4 0.056,0.6864 0.16654,2.2416 0.24573,3.456 0.0792,1.2144 0.21096,2.856 0.29282,3.648 0.0819,0.792 0.25335,2.0016 0.38109,2.688 0.12774,0.6864 0.31762,1.54347 0.42196,1.9046 0.13713,0.47459 0.30851,0.79565 0.61829,1.15825 0.23572,0.27591 0.87486,0.93815 1.42032,1.47164 0.54546,0.5335 1.80172,1.65389 2.79169,2.48975 0.98997,0.83587 2.1474,1.80056 2.57207,2.14376 0.42467,0.3432 0.91881,0.732 1.09809,0.864 0.17929,0.132 0.67936,0.5208 1.11129,0.864 0.43192,0.3432 0.90549,0.7104 1.05237,0.816 0.14688,0.1056 0.93017,0.69062 1.74065,1.30005 0.81047,0.60943 1.68335,1.25743 1.93973,1.44 0.25637,0.18257 0.75317,0.53753 1.104,0.7888 0.35082,0.25126 0.89705,0.638 1.21385,0.85942 0.3168,0.22142 1.008,0.69912 1.536,1.06155 0.528,0.36244 1.7592,1.18951 2.736,1.83793 0.9768,0.64843 2.208,1.45844 2.736,1.80003 0.528,0.34159 1.29849,0.83418 1.71221,1.09465 0.41371,0.26046 0.89294,0.55997 1.06495,0.66557 0.17201,0.1056 0.65431,0.39991 1.07179,0.65401 0.41748,0.25411 1.14785,0.70288 1.62305,0.99728 0.4752,0.2944 1.0152,0.62078 1.2,0.72529 0.1848,0.10451 0.9192,0.53777 1.632,0.9628 0.7128,0.42504 1.5768,0.92349 1.92,1.10767 0.3432,0.18419 0.732,0.40834 0.864,0.49811 0.132,0.0898 1.212,0.70298 2.4,1.36267 1.188,0.65968 2.484,1.37389 2.88,1.58713 0.396,0.21323 1.0656,0.57298 1.488,0.79944 0.4224,0.22645 1.3728,0.72945 2.112,1.11778 0.7392,0.38833 3.072,1.56323 5.184,2.61089 2.112,1.04766 4.0992,2.02341 4.416,2.16833 0.3168,0.14493 0.9216,0.4255 1.344,0.62351 0.4224,0.198 1.0704,0.49963 1.44,0.67027 0.3696,0.17065 0.8448,0.38864 1.056,0.48444 0.2112,0.0958 0.6648,0.30165 1.008,0.45747 0.3432,0.15582 0.9696,0.43435 1.392,0.61897 0.4224,0.18462 1.2432,0.5403 1.824,0.7904 0.5808,0.2501 1.488,0.64051 2.016,0.86759 0.528,0.22708 2.0832,0.86619 3.456,1.42024 1.3728,0.55406 2.9496,1.16144 3.504,1.34975 0.5544,0.1883 1.5912,0.49331 2.304,0.67779 0.7128,0.18448 1.8144,0.42702 2.448,0.53897 0.6336,0.11196 1.4544,0.24326 1.824,0.29178 0.3696,0.0485 0.8232,0.10799 1.008,0.13216 0.1848,0.0242 0.7896,0.0874 1.344,0.14043 0.5544,0.053 1.4616,0.12527 2.016,0.16048 0.5544,0.0352 1.224,0.0785 1.488,0.0961 0.264,0.0176 3.6336,0.0536 7.488,0.0799 3.8544,0.0263 7.9368,0.0723 9.072,0.10231 1.1352,0.03 2.5176,0.0771 3.072,0.10472 0.5544,0.0276 1.9152,0.13385 3.024,0.23612 1.1088,0.10226 2.1888,0.20894 2.4,0.23706 0.2112,0.0281 0.7728,0.11683 1.248,0.19715 0.4752,0.0803 0.9936,0.16678 1.152,0.19217 0.1584,0.0254 0.396,0.0677 0.528,0.0941 0.132,0.0264 0.348,0.068 0.48,0.0926 0.132,0.0245 0.456,0.0945 0.72,0.15545 0.264,0.061 0.804,0.19538 1.2,0.29866 0.396,0.10328 0.936,0.25291 1.2,0.33251 0.264,0.0796 0.85738,0.27113 1.31863,0.42564 0.46124,0.15451 1.40235,0.52152 2.09135,0.81557 0.689,0.29405 1.5596,0.70332 1.93467,0.90949 0.37507,0.20617 0.71246,0.37485 0.74977,0.37485 0.0373,0 0.14894,0.0896 0.24809,0.1992 0.17825,0.19696 0.17761,0.19854 -0.0571,0.14053 -0.13056,-0.0323 -0.79899,-0.0717 -1.48539,-0.0876 -0.68895,-0.016 -1.65733,0.028 -2.16175,0.0982 -0.50257,0.0699 -1.10737,0.16667 -1.344,0.21498 -0.23664,0.0483 -0.73265,0.17308 -1.10225,0.27728 -0.3696,0.10419 -0.95731,0.29825 -1.30603,0.43124 -0.34871,0.13299 -1.02487,0.43777 -1.50257,0.67728 -0.47771,0.23952 -0.94839,0.47999 -1.04598,0.53439 -0.0976,0.0544 -0.73902,0.41892 -1.42542,0.81005 -0.6864,0.39113 -1.788,0.99048 -2.448,1.33189 -0.66,0.34141 -1.4592,0.71851 -1.776,0.838 -0.3168,0.1195 -0.6624,0.25753 -0.768,0.30673 -0.1056,0.0492 -0.4296,0.15599 -0.72,0.2373 -0.2904,0.0813 -0.6792,0.18639 -0.864,0.23349 -0.1848,0.0471 -0.5088,0.0606 -0.72,0.03 -0.2112,-0.0306 -0.6648,-0.13284 -1.008,-0.2272 -0.3432,-0.0943 -0.79669,-0.2455 -1.00777,-0.33588 -0.21107,-0.0904 -1.03479,-0.47892 -1.8305,-0.86341 -0.7957,-0.3845 -1.78941,-0.80716 -2.20823,-0.93924 -0.41883,-0.13209 -0.9991,-0.2659 -1.2895,-0.29735 -0.2904,-0.0315 -1.068,-0.0801 -1.728,-0.10809 -0.66,-0.028 -1.3944,-0.0713 -1.632,-0.0963 -0.2376,-0.025 -0.7344,-0.0723 -1.104,-0.10523 -0.3696,-0.0329 -0.7584,-0.0682 -0.864,-0.0783 -0.1056,-0.0102 -0.4512,-0.0525 -0.768,-0.094 -0.3168,-0.0415 -1.1808,-0.17729 -1.92,-0.30174 -0.7392,-0.12445 -1.8408,-0.33344 -2.448,-0.46442 -0.6072,-0.13098 -1.3632,-0.30392 -1.68,-0.38431 -0.3168,-0.0804 -0.7704,-0.1976 -1.008,-0.26045 -0.2376,-0.0628 -1.2096,-0.34846 -2.16,-0.63469 -0.9504,-0.28623 -2.484,-0.79391 -3.408,-1.12817 -0.924,-0.33426 -2.1336,-0.78848 -2.688,-1.00938 -0.5544,-0.22089 -1.5912,-0.65221 -2.304,-0.95849 -0.7128,-0.30627 -1.9224,-0.84544 -2.688,-1.19816 -0.7656,-0.35271 -2.472,-1.17963 -3.792,-1.8376 -1.32,-0.65797 -2.9749,-1.49529 -3.67756,-1.8607 -0.70266,-0.36542 -1.63146,-0.85573 -2.064,-1.08957 -0.43254,-0.23385 -1.13204,-0.60911 -1.55444,-0.83391 -0.4224,-0.2248 -1.5888,-0.85074 -2.592,-1.39098 -1.0032,-0.54024 -2.2128,-1.18753 -2.688,-1.43844 -0.4752,-0.2509 -1.188,-0.63133 -1.584,-0.8454 -0.396,-0.21406 -1.1952,-0.64368 -1.776,-0.9547 -0.5808,-0.31102 -2.5464,-1.30863 -4.368,-2.2169 -1.8216,-0.90828 -3.7656,-1.8624 -4.32,-2.12028 -0.5544,-0.25788 -1.4832,-0.68268 -2.064,-0.944 -0.5808,-0.26131 -1.7688,-0.77592 -2.64,-1.14357 -0.8712,-0.36765 -1.908,-0.79125 -2.304,-0.94134 -0.396,-0.15008 -1.1952,-0.45245 -1.776,-0.67192 -0.5808,-0.21947 -1.4232,-0.52902 -1.872,-0.6879 -0.4488,-0.15887 -1.3992,-0.48205 -2.112,-0.71816 -0.7128,-0.23612 -2.0736,-0.66586 -3.024,-0.95499 -0.9504,-0.28913 -1.9656,-0.59321 -2.256,-0.67573 -0.2904,-0.0825 -0.7872,-0.22632 -1.104,-0.31955 -0.3168,-0.0932 -0.8352,-0.241 -1.152,-0.32838 -0.3168,-0.0874 -1.0728,-0.28861 -1.68,-0.44715 -0.6072,-0.15855 -1.2336,-0.32964 -1.392,-0.38021 -0.1584,-0.0506 -0.72693,-0.19782 -1.2634,-0.32722 -0.53648,-0.12941 -1.37888,-0.34704 -1.872,-0.48362 -0.49313,-0.13659 -3.9422,-1.00604 -7.6646,-1.93212 -3.7224,-0.92608 -7.2648,-1.81408 -7.872,-1.97335 -0.6072,-0.15926 -1.2336,-0.32499 -1.392,-0.36828 -0.1584,-0.0433 -1.0872,-0.30432 -2.064,-0.58006 -0.9768,-0.27574 -2.1864,-0.62995 -2.688,-0.78713 -0.5016,-0.15719 -1.7544,-0.56256 -2.784,-0.90084 -1.0296,-0.33828 -2.1744,-0.72669 -2.544,-0.86314 -0.3696,-0.13644 -0.9528,-0.34787 -1.296,-0.46983 -0.3432,-0.12196 -1.0128,-0.38248 -1.488,-0.57893 -0.4752,-0.19645 -1.4472,-0.61673 -2.16,-0.93397 -0.7128,-0.31723 -1.9224,-0.89441 -2.688,-1.28261 -0.7656,-0.3882 -1.8456,-0.97949 -2.4,-1.31397 -0.5544,-0.33449 -1.3752,-0.84843 -1.824,-1.14209 -0.4488,-0.29366 -1.3128,-0.84794 -1.92,-1.23174 -0.6072,-0.3838 -2.8968,-1.91799 -5.088,-3.40931 -2.1912,-1.49132 -4.5888,-3.09315 -5.328,-3.55961 -0.7392,-0.46646 -1.9704,-1.21064 -2.736,-1.65373 -0.7656,-0.44309 -2.1264,-1.16506 -3.024,-1.60438 -0.8976,-0.43931 -2.2368,-1.03664 -2.976,-1.32738 -0.7392,-0.29074 -1.8624,-0.68631 -2.496,-0.87904 -0.6336,-0.19273 -1.6272,-0.45857 -2.208,-0.59077 -0.5808,-0.13219 -1.6176,-0.32651 -2.304,-0.43183 -0.78854,-0.12099 -1.99904,-0.21161 -3.288,-0.24613 -1.25879,-0.0337 -2.04,-0.0198 -2.04,0.0363 0,0.05 0.27672,0.65008 0.61493,1.33347 0.3382,0.68338 0.89767,1.6645 1.24324,2.18025 0.34558,0.51575 0.90013,1.27175 1.23234,1.68 0.33221,0.40825 1.03635,1.17604 1.56475,1.70621 0.52841,0.53017 1.34954,1.28889 1.82474,1.68606 0.4752,0.39717 1.296,1.04747 1.824,1.44511 0.528,0.39764 2.2245,1.59301 3.76999,2.65638 1.5455,1.06337 3.0575,2.11484 3.36,2.3366 0.30251,0.22176 1.04681,0.79836 1.65401,1.28132 0.6072,0.48296 1.55061,1.30384 2.09648,1.82418 0.54586,0.52033 1.33868,1.35924 1.76183,1.86423 0.42314,0.505 1.07156,1.37178 1.44092,1.92618 0.36936,0.5544 0.96656,1.6128 1.32711,2.352 0.36054,0.7392 0.78913,1.72774 0.9524,2.19676 0.16328,0.46901 0.42462,1.35879 0.58077,1.97728 0.15614,0.61849 0.36861,1.64376 0.47214,2.27839 0.10354,0.63462 0.21851,1.52684 0.2555,1.98271 l 0.0673,0.82886 h -0.22979 c -0.12638,0 -0.79112,-0.065 -1.4772,-0.1444 -0.68607,-0.0794 -1.70101,-0.23509 -2.25541,-0.34594 -0.5544,-0.11085 -1.49192,-0.34779 -2.08337,-0.52653 -0.59145,-0.17874 -1.5096,-0.49798 -2.04032,-0.70941 -0.53073,-0.21144 -1.44553,-0.62546 -2.0329,-0.92004 -0.58738,-0.29457 -1.46203,-0.77764 -1.94368,-1.07348 -0.48165,-0.29583 -1.30773,-0.84222 -1.83573,-1.21418 -0.528,-0.37197 -1.4784,-1.09386 -2.112,-1.6042 -0.6336,-0.51034 -1.6488,-1.3751 -2.256,-1.92169 -0.6072,-0.54658 -2.0708,-1.92311 -3.25245,-3.05896 -1.18165,-1.13584 -2.65045,-2.53439 -3.264,-3.10787 -0.61355,-0.57349 -1.64919,-1.50229 -2.30141,-2.064 -0.65223,-0.56172 -1.76204,-1.4533 -2.46625,-1.9813 -0.70421,-0.528 -1.72577,-1.23994 -2.27014,-1.58209 -0.54436,-0.34215 -1.63775,-0.94785 -2.42975,-1.34599 -0.792,-0.39815 -1.62381,-0.78399 -1.84848,-0.85744 -0.22466,-0.0734 -0.43564,-0.10636 -0.46885,-0.0731 -0.0332,0.0332 -0.0811,0.8502 -0.10636,1.81553 -0.0346,1.32135 -0.007,2.03514 0.11286,2.88803 0.0874,0.62308 0.26617,1.54602 0.39737,2.05096 0.13119,0.50495 0.39353,1.33435 0.58296,1.84312 0.18944,0.50877 0.6234,1.47564 0.96436,2.14861 0.34096,0.67297 1.04432,1.86097 1.56302,2.64 0.51871,0.77903 1.36127,1.93482 1.87237,2.56842 0.5111,0.6336 1.43668,1.71362 2.05685,2.40004 0.62016,0.68642 2.55009,2.71781 4.28873,4.51419 1.73865,1.79639 3.63353,3.78357 4.21086,4.41596 0.57732,0.6324 1.48184,1.66821 2.01002,2.30181 0.52819,0.6336 1.31361,1.6272 1.74537,2.208 0.43176,0.5808 1.0673,1.488 1.41231,2.016 0.34501,0.528 1.02482,1.6512 1.51071,2.496 0.48588,0.8448 1.3285,2.4432 1.87249,3.552 0.54399,1.1088 1.25288,2.61517 1.57532,3.34749 0.32243,0.73232 0.97009,2.28752 1.43925,3.456 0.46916,1.16848 1.24997,3.20451 1.73513,4.52451 0.48517,1.32 2.19226,6.3096 3.79352,11.088 1.60127,4.7784 3.36511,9.9624 3.91964,11.52 0.55454,1.5576 1.37378,3.7824 1.82054,4.944 0.44677,1.1616 1.14547,2.9112 1.55269,3.888 0.40721,0.9768 1.04195,2.4456 1.41053,3.264 0.36858,0.8184 1.20743,2.55981 1.8641,3.86979 0.65668,1.30999 1.58724,3.09859 2.06792,3.97468 0.48068,0.87608 1.41488,2.52587 2.07599,3.6662 0.66111,1.14033 1.83057,3.08853 2.59881,4.32933 0.76824,1.2408 2.47606,3.9408 3.79515,6 1.3191,2.0592 3.15429,4.932 4.07821,6.384 0.92392,1.452 2.20586,3.504 2.84876,4.56 0.6429,1.056 1.60105,2.676 2.12922,3.6 0.52817,0.924 1.26412,2.2416 1.63543,2.928 0.37131,0.6864 0.99938,1.896 1.39571,2.688 0.39632,0.792 1.02846,2.12048 1.40474,2.95217 0.37628,0.83169 0.90466,2.06289 1.17419,2.736 0.26952,0.67311 0.70059,1.80352 0.95791,2.51203 0.25733,0.70851 0.66097,1.91811 0.89697,2.688 0.23601,0.76989 0.62464,2.199 0.86362,3.1758 0.23898,0.9768 0.54234,2.36766 0.67414,3.09079 0.1318,0.72313 0.30712,1.86793 0.3896,2.544 0.0825,0.67607 0.20785,1.55321 0.27858,1.94921 0.0707,0.396 0.26309,1.0656 0.42746,1.488 0.16436,0.4224 0.73207,1.5024 1.26158,2.4 0.52951,0.8976 1.09025,1.96234 1.24609,2.36609 0.15585,0.40375 0.32733,0.93032 0.38108,1.17015 0.074,0.33031 0.0619,0.62518 -0.0502,1.21578 -0.0814,0.42884 -0.25335,1.14355 -0.38222,1.58826 -0.12887,0.44471 -0.39232,1.20887 -0.58544,1.69814 -0.19312,0.48927 -0.69546,1.62398 -1.11632,2.52158 -0.42086,0.8976 -0.9791,2.1288 -1.24055,2.736 -0.26144,0.6072 -0.61911,1.5792 -0.79483,2.16 -0.17571,0.5808 -0.394,1.5096 -0.4851,2.064 -0.10884,0.66241 -0.16393,1.51816 -0.16067,2.496 0.003,0.83003 0.0688,1.89065 0.1493,2.3986 0.0794,0.50083 0.13346,0.92148 0.12015,0.93479 z M 115.59297,233.03103 c 0.0264,0 0.048,-0.0216 0.048,-0.048 0,-0.0264 -0.0216,-0.048 -0.048,-0.048 -0.0264,0 -0.048,0.0216 -0.048,0.048 0,0.0264 0.0216,0.048 0.048,0.048 z m -28.031998,-0.096 c 0.0264,0 0.048,-0.0216 0.048,-0.048 0,-0.0264 -0.0216,-0.048 -0.048,-0.048 -0.0264,0 -0.048,0.0216 -0.048,0.048 0,0.0264 0.0216,0.048 0.048,0.048 z m 0.576,-0.48 c 0.0264,0 0.048,-0.0216 0.048,-0.048 0,-0.0264 -0.0216,-0.048 -0.048,-0.048 -0.0264,0 -0.048,0.0216 -0.048,0.048 0,0.0264 0.0216,0.048 0.048,0.048 z m 10.176,-1.248 c 0.0264,0 0.048,-0.0216 0.048,-0.048 0,-0.0264 -0.0216,-0.048 -0.048,-0.048 -0.0264,0 -0.048,0.0216 -0.048,0.048 0,0.0264 0.0216,0.048 0.048,0.048 z m -15.936,-0.288 c 0.0264,0 0.048,-0.0216 0.048,-0.048 0,-0.0264 -0.0216,-0.048 -0.048,-0.048 -0.0264,0 -0.048,0.0216 -0.048,0.048 0,0.0264 0.0216,0.048 0.048,0.048 z m 22.175998,-0.384 c 0.0264,0 0.048,-0.0216 0.048,-0.048 0,-0.0264 -0.0216,-0.048 -0.048,-0.048 -0.0264,0 -0.048,0.0216 -0.048,0.048 0,0.0264 0.0216,0.048 0.048,0.048 z m -21.887998,-1.44 c 0.0264,0 0.048,-0.0216 0.048,-0.048 0,-0.0264 -0.0216,-0.048 -0.048,-0.048 -0.0264,0 -0.048,0.0216 -0.048,0.048 0,0.0264 0.0216,0.048 0.048,0.048 z m 23.807998,-0.096 c 0.0264,0 0.048,-0.0216 0.048,-0.048 0,-0.0264 -0.0216,-0.048 -0.048,-0.048 -0.0264,0 -0.048,0.0216 -0.048,0.048 0,0.0264 0.0216,0.048 0.048,0.048 z m 4.032,-0.384 c 0.0264,0 0.048,-0.0216 0.048,-0.048 0,-0.0264 -0.0216,-0.048 -0.048,-0.048 -0.0264,0 -0.048,0.0216 -0.048,0.048 0,0.0264 0.0216,0.048 0.048,0.048 z m -12.959998,-2.016 c 0.0264,0 0.048,-0.0216 0.048,-0.048 0,-0.0264 -0.0216,-0.048 -0.048,-0.048 -0.0264,0 -0.048,0.0216 -0.048,0.048 0,0.0264 0.0216,0.048 0.048,0.048 z m -1.632,-2.208 c 0.0264,0 0.048,-0.0216 0.048,-0.048 0,-0.0264 -0.0216,-0.048 -0.048,-0.048 -0.0264,0 -0.048,0.0216 -0.048,0.048 0,0.0264 0.0216,0.048 0.048,0.048 z m -5.418334,-0.096 c 0.04968,0 0.09033,-0.017 0.09033,-0.0377 0,-0.0207 -0.06704,-0.0635 -0.148986,-0.0949 -0.08543,-0.0328 -0.123967,-0.0167 -0.09033,0.0377 0.03226,0.0522 0.0993,0.0949 0.148986,0.0949 z m -0.336,-0.192 c 0.02328,0 0.04233,-0.019 0.04233,-0.0423 0,-0.0233 -0.04988,-0.0732 -0.110833,-0.11084 -0.06867,-0.0424 -0.08477,-0.0263 -0.04233,0.0423 0.03767,0.0609 0.08755,0.11083 0.110833,0.11083 z m -0.293666,-0.384 c 0.0264,0 0.048,-0.0216 0.048,-0.048 0,-0.0264 -0.0216,-0.048 -0.048,-0.048 -0.0264,0 -0.048,0.0216 -0.048,0.048 0,0.0264 0.0216,0.048 0.048,0.048 z m 2.88,0 c 0.0264,0 0.048,-0.0216 0.048,-0.048 0,-0.0264 -0.0216,-0.048 -0.048,-0.048 -0.0264,0 -0.048,0.0216 -0.048,0.048 0,0.0264 0.0216,0.048 0.048,0.048 z m -2.96,-0.224 c 0.0352,-0.0352 0.0352,-0.0928 0,-0.128 -0.0352,-0.0352 -0.064,-0.006 -0.064,0.064 0,0.0704 0.0288,0.0992 0.064,0.064 z m -0.112,-0.256 c 0.0264,0 0.048,-0.0216 0.048,-0.048 0,-0.0264 -0.0216,-0.048 -0.048,-0.048 -0.0264,0 -0.048,0.0216 -0.048,0.048 0,0.0264 0.0216,0.048 0.048,0.048 z m -0.08,-0.224 c 0.0352,-0.0352 0.0352,-0.0928 0,-0.128 -0.0352,-0.0352 -0.064,-0.006 -0.064,0.064 0,0.0704 0.0288,0.0992 0.064,0.064 z m 2.852669,0.032 c 0.0264,0 0.0747,-0.0432 0.107331,-0.096 0.03263,-0.0528 0.03773,-0.096 0.01133,-0.096 -0.0264,0 -0.0747,0.0432 -0.107331,0.096 -0.03263,0.0528 -0.03773,0.096 -0.01133,0.096 z m 0.263243,-0.3584 c 0.06561,-0.0651 0.09511,-0.14258 0.06555,-0.17214 -0.02956,-0.0296 -0.08324,0.0237 -0.119288,0.1184 -0.0521,0.13682 -0.04107,0.14785 0.05374,0.0537 z m -3.211912,-0.0576 c 0.0352,-0.0352 0.0352,-0.0928 0,-0.128 -0.0352,-0.0352 -0.064,-0.006 -0.064,0.064 0,0.0704 0.0288,0.0992 0.064,0.064 z m -0.112,-0.256 c 0.0264,0 0.048,-0.0216 0.048,-0.048 0,-0.0264 -0.0216,-0.048 -0.048,-0.048 -0.0264,0 -0.048,0.0216 -0.048,0.048 0,0.0264 0.0216,0.048 0.048,0.048 z m 3.504,-0.192 c 0.05118,-0.0792 0.09306,-0.1872 0.09306,-0.24 0,-0.0528 -0.04188,-0.0312 -0.09306,0.048 -0.05118,0.0792 -0.09306,0.1872 -0.09306,0.24 0,0.0528 0.04188,0.0312 0.09306,-0.048 z m -3.6,0 c 0.0264,0 0.048,-0.0216 0.048,-0.048 0,-0.0264 -0.0216,-0.048 -0.048,-0.048 -0.0264,0 -0.048,0.0216 -0.048,0.048 0,0.0264 0.0216,0.048 0.048,0.048 z m 5.088,-0.192 c 0.0264,0 0.048,-0.0216 0.048,-0.048 0,-0.0264 -0.0216,-0.048 -0.048,-0.048 -0.0264,0 -0.048,0.0216 -0.048,0.048 0,0.0264 0.0216,0.048 0.048,0.048 z m -5.174,-0.218 c 0.0319,-0.0319 0.03531,-0.1147 0.0076,-0.184 -0.03065,-0.0766 -0.05339,-0.0538 -0.058,0.058 -0.0042,0.1012 0.01852,0.1579 0.05042,0.126 z m 3.846,-0.102 c 0.0352,-0.0352 0.0352,-0.0928 0,-0.128 -0.0352,-0.0352 -0.064,-0.006 -0.064,0.064 0,0.0704 0.0288,0.0992 0.064,0.064 z m -3.936,-0.288 c 0.0352,-0.0352 0.0352,-0.0928 0,-0.128 -0.0352,-0.0352 -0.064,-0.006 -0.064,0.064 0,0.0704 0.0288,0.0992 0.064,0.064 z m 4.004669,0.032 c 0.0264,0 0.0747,-0.0432 0.107331,-0.096 0.03263,-0.0528 0.03773,-0.096 0.01133,-0.096 -0.0264,0 -0.0747,0.0432 -0.107331,0.096 -0.03263,0.0528 -0.03773,0.096 -0.01133,0.096 z m -5.364669,-0.192 c 0.0264,0 0.048,-0.0216 0.048,-0.048 0,-0.0264 -0.0216,-0.048 -0.048,-0.048 -0.0264,0 -0.048,0.0216 -0.048,0.048 0,0.0264 0.0216,0.048 0.048,0.048 z m 5.584,-0.128 c 0.0352,-0.0352 0.0352,-0.0928 0,-0.128 -0.0352,-0.0352 -0.064,-0.006 -0.064,0.064 0,0.0704 0.0288,0.0992 0.064,0.064 z m -4.313318,-0.4749 c 0.01984,-0.25239 0.0196,-0.64119 -5.32e-4,-0.864 -0.02013,-0.2228 -0.03637,-0.0163 -0.03607,0.4589 2.92e-4,0.4752 0.01676,0.6575 0.03661,0.4051 z m 4.441318,0.1229 c 0.05118,-0.0792 0.09306,-0.1872 0.09306,-0.24 0,-0.0528 -0.04188,-0.0312 -0.09306,0.048 -0.05118,0.0792 -0.09306,0.1872 -0.09306,0.24 0,0.0528 0.04188,0.0312 0.09306,-0.048 z m -4.896,-1.26316 c 0.132,0 0.186,-0.0218 0.12,-0.0484 -0.066,-0.0266 -0.174,-0.0266 -0.24,0 -0.066,0.0266 -0.012,0.0484 0.12,0.0484 z m -0.912,-6.60884 c 0.0264,0 0.048,-0.0216 0.048,-0.048 0,-0.0264 -0.0216,-0.048 -0.048,-0.048 -0.0264,0 -0.048,0.0216 -0.048,0.048 0,0.0264 0.0216,0.048 0.048,0.048 z m -0.456,-2.49747 c 0.0396,-8.1e-4 0.1368,-0.0433 0.216,-0.0945 0.116444,-0.0752 0.102666,-0.0933 -0.072,-0.0945 -0.1188,-8.1e-4 -0.216,0.0417 -0.216,0.0945 0,0.0528 0.0324,0.0953 0.072,0.0945 z m 0.456,-0.19053 c 0.0264,0 0.048,-0.0216 0.048,-0.048 0,-0.0264 -0.0216,-0.048 -0.048,-0.048 -0.0264,0 -0.048,0.0216 -0.048,0.048 0,0.0264 0.0216,0.048 0.048,0.048 z m 58.175998,-15.456 c 0.0264,0 0.048,-0.0216 0.048,-0.048 0,-0.0264 -0.0216,-0.048 -0.048,-0.048 -0.0264,0 -0.048,0.0216 -0.048,0.048 0,0.0264 0.0216,0.048 0.048,0.048 z"
       id="path1" />
  </g>
</svg>
