<?xml version="1.0" encoding="UTF-8" standalone="no"?>
<!-- Created with Inkscape (http://www.inkscape.org/) -->

<svg
   width="28.251606mm"
   height="16.52417mm"
   viewBox="0 0 28.251606 16.52417"
   version="1.1"
   id="svg1"
   inkscape:version="1.3.2 (091e20e, 2023-11-25, custom)"
   sodipodi:docname="In Flower Text.svg"
   inkscape:export-filename="Design_Studio_Text.svg"
   inkscape:export-xdpi="96"
   inkscape:export-ydpi="96"
   xmlns:inkscape="http://www.inkscape.org/namespaces/inkscape"
   xmlns:sodipodi="http://sodipodi.sourceforge.net/DTD/sodipodi-0.dtd"
   xmlns="http://www.w3.org/2000/svg"
   xmlns:svg="http://www.w3.org/2000/svg">
  <sodipodi:namedview
     id="namedview1"
     pagecolor="#ffffff"
     bordercolor="#000000"
     borderopacity="0.25"
     inkscape:showpageshadow="2"
     inkscape:pageopacity="0.0"
     inkscape:pagecheckerboard="0"
     inkscape:deskcolor="#d1d1d1"
     inkscape:document-units="mm"
     inkscape:zoom="2.175463"
     inkscape:cx="319.93189"
     inkscape:cy="264.31155"
     inkscape:window-width="1920"
     inkscape:window-height="1052"
     inkscape:window-x="-8"
     inkscape:window-y="-8"
     inkscape:window-maximized="1"
     inkscape:current-layer="layer1" />
  <defs
     id="defs1" />
  <g
     inkscape:label="Layer 1"
     inkscape:groupmode="layer"
     id="layer1"
     transform="translate(-41.73356,-5.1300324)">
    <path
       d="m 43.404861,16.744163 v 0.03777 l 1.397473,-0.03777 h 2.067882 v -2.870484 h 1.463569 v 2.870484 h 1.860149 V 18 h -1.860149 v 3.654202 H 46.870216 V 18 H 41.73356 v -1.076432 l 3.720298,-7.8938314 h 1.576878 z m 15.003946,-3.219852 q 0,-0.812045 -0.188847,-1.454127 -0.179406,-0.651525 -0.519331,-1.095317 -0.330484,-0.453234 -0.812045,-0.689293 -0.472119,-0.245502 -1.066989,-0.245502 -0.594871,0 -1.076432,0.245502 -0.472119,0.236059 -0.812045,0.689293 -0.339926,0.443792 -0.519331,1.095317 -0.179405,0.642082 -0.179405,1.454127 0,0.802602 0.179405,1.454127 0.188848,0.642082 0.519331,1.085874 0.339926,0.443792 0.821487,0.689294 0.481562,0.236059 1.076432,0.236059 0.59487,0 1.066989,-0.236059 0.481562,-0.245502 0.812045,-0.689294 0.339926,-0.443792 0.519331,-1.085874 0.179405,-0.651525 0.179405,-1.454127 z m 1.529666,0 q 0,1.000892 -0.283271,1.869591 -0.273829,0.859257 -0.802603,1.491897 -0.528773,0.632639 -1.293606,0.99145 -0.755391,0.358811 -1.727956,0.358811 -1.000893,0 -1.775168,-0.358811 -0.764833,-0.358811 -1.293606,-0.99145 -0.519331,-0.63264 -0.793161,-1.491897 -0.264386,-0.868699 -0.264386,-1.869591 0,-1.010335 0.273829,-1.869592 0.283271,-0.868699 0.812045,-1.501339 0.528773,-0.6420819 1.293606,-1.0008924 0.764833,-0.3588105 1.737399,-0.3588105 0.99145,0 1.756283,0.3588105 0.774275,0.3588105 1.293606,1.0008924 0.528773,0.63264 0.79316,1.501339 0.273829,0.859257 0.273829,1.869592 z m 6.175319,-3.134871 q 0.840372,0 1.548551,0.245502 0.717621,0.236059 1.227509,0.708178 0.519331,0.472119 0.802603,1.170856 0.292714,0.689294 0.292714,1.595762 0,0.906469 -0.273829,1.671302 -0.264387,0.755391 -0.774276,1.303049 -0.509888,0.538216 -1.246394,0.849814 -0.736506,0.302157 -1.671302,0.302157 -0.99145,0 -1.775168,-0.396581 -0.774275,-0.39658 -1.312491,-1.133085 -0.538216,-0.736506 -0.821487,-1.784611 -0.283272,-1.048104 -0.283272,-2.351153 0,-1.000892 0.151078,-1.935688 0.160521,-0.9442386 0.462677,-1.7657259 0.311599,-0.8309296 0.755391,-1.5107812 0.453234,-0.6892939 1.048104,-1.1802978 0.59487,-0.5004463 1.331376,-0.7742753 0.736506,-0.2738291 1.605205,-0.2738291 0.717621,0.00944 1.236952,0.1416357 0.519331,0.1321934 0.868699,0.3021562 V 6.8013344 Q 68.908737,6.6502562 68.379964,6.5275053 67.85119,6.4047543 67.284647,6.4047543 q -0.679851,0 -1.321933,0.2832715 -0.63264,0.2738291 -1.151971,0.8592568 -0.519331,0.5759853 -0.887584,1.4730116 -0.35881,0.887584 -0.500446,2.1150938 h 0.03777 q 0.59487,-0.339926 1.293607,-0.538216 0.698736,-0.207732 1.359703,-0.207732 z m -0.03777,6.600225 q 0.500447,0 0.934796,-0.179405 0.43435,-0.179405 0.755391,-0.528774 0.321041,-0.349368 0.500446,-0.859256 0.188848,-0.519331 0.188848,-1.180298 0,-0.708179 -0.19829,-1.18974 -0.188848,-0.491004 -0.528774,-0.793161 -0.330483,-0.302156 -0.783717,-0.434349 -0.443792,-0.132194 -0.953681,-0.132194 -0.670409,0 -1.369146,0.23606 -0.698736,0.23606 -1.265279,0.575985 -0.0094,1.133086 0.188848,1.982901 0.207732,0.840372 0.566543,1.397472 0.35881,0.557101 0.859257,0.83093 0.509888,0.273829 1.104758,0.273829 z"
       id="text3"
       style="font-size:19.338px;font-family:Corbel;-inkscape-font-specification:'Corbel, Normal';display:inline;stroke-width:0.264583"
       aria-label="406"
       inkscape:label="406" />
  </g>
</svg>
