<?xml version="1.0" encoding="UTF-8" standalone="no"?>
<!-- Created with Inkscape (http://www.inkscape.org/) -->

<svg
   width="91.468353mm"
   height="13.106024mm"
   viewBox="0 0 91.468353 13.106024"
   version="1.1"
   id="svg1"
   inkscape:version="1.3.2 (091e20e, 2023-11-25, custom)"
   sodipodi:docname="In Flower Text.svg"
   inkscape:export-filename="406_Text.svg"
   inkscape:export-xdpi="96"
   inkscape:export-ydpi="96"
   xmlns:inkscape="http://www.inkscape.org/namespaces/inkscape"
   xmlns:sodipodi="http://sodipodi.sourceforge.net/DTD/sodipodi-0.dtd"
   xmlns="http://www.w3.org/2000/svg"
   xmlns:svg="http://www.w3.org/2000/svg">
  <sodipodi:namedview
     id="namedview1"
     pagecolor="#ffffff"
     bordercolor="#000000"
     borderopacity="0.25"
     inkscape:showpageshadow="2"
     inkscape:pageopacity="0.0"
     inkscape:pagecheckerboard="0"
     inkscape:deskcolor="#d1d1d1"
     inkscape:document-units="mm"
     inkscape:zoom="2.175463"
     inkscape:cx="319.93189"
     inkscape:cy="264.31155"
     inkscape:window-width="1920"
     inkscape:window-height="1052"
     inkscape:window-x="-8"
     inkscape:window-y="-8"
     inkscape:window-maximized="1"
     inkscape:current-layer="layer1" />
  <defs
     id="defs1" />
  <g
     inkscape:label="Layer 1"
     inkscape:groupmode="layer"
     id="layer1"
     transform="translate(-45.997331,-71.427786)">
    <path
       d="m 179.66527,313.35959 h 24.48179 v 5.2461 h -30.29889 v -47.75021 h 28.97845 v 5.2461 h -23.16135 v 15.41711 h 20.59183 v 5.2461 h -20.59183 z m 58.99184,-15.88105 q 4.38959,6.31673 8.67212,12.99034 h 0.21413 q -0.46394,-6.95911 -0.46394,-14.20372 v -25.40968 h 5.8171 v 47.75021 h -5.78142 l -18.73606,-26.62306 q -4.85353,-6.95911 -8.67212,-12.99034 h -0.21413 q 0.46394,6.53086 0.46394,15.23867 v 24.37473 h -5.8171 v -47.75021 h 5.78141 z m 43.50336,21.12715 h -5.8171 v -42.50411 h -15.95242 v -5.2461 h 37.72195 v 5.2461 h -15.95243 z m 29.26395,-19.77102 v 19.77102 h -5.8171 v -47.75021 h 12.38365 q 3.14052,0 5.31747,0.24982 2.21264,0.21412 4.03272,0.71375 4.99628,1.35614 7.63718,4.63941 2.64089,3.24758 2.64089,8.1368 0,2.89071 -0.92788,5.17473 -0.92788,2.28401 -2.60521,3.96134 -1.67732,1.67732 -4.03271,2.74795 -2.31971,1.07064 -5.17473,1.57026 v 0.14276 l 15.59555,20.41339 h -7.31599 l -14.70335,-19.77102 z m 0,-22.73309 v 17.487 h 5.74573 q 2.67658,0 4.56803,-0.17844 1.89145,-0.17844 3.39034,-0.64238 3.03346,-0.92788 4.67509,-2.96208 1.64164,-2.03421 1.64164,-5.31748 -0.0357,-3.06914 -1.57026,-4.92491 -1.53457,-1.89145 -4.24684,-2.71227 -1.28476,-0.39256 -3.06915,-0.571 -1.78439,-0.17844 -4.53234,-0.17844 z m 32.6186,42.50411 19.44982,-47.75021 h 5.03197 l 19.44982,47.75021 h -6.31673 l -5.71004,-14.38217 h -19.94945 l -5.71004,14.38217 z m 21.91227,-40.32716 q -3.17621,8.92194 -6.1026,16.20224 l -1.78439,4.49666 h 15.80967 l -1.78439,-4.49666 q -2.92639,-7.42305 -5.99554,-16.20224 z m 53.85282,19.20001 q 4.38959,6.31673 8.67212,12.99034 h 0.21412 q -0.46394,-6.95911 -0.46394,-14.20372 v -25.40968 h 5.81711 v 47.75021 h -5.78142 l -18.73606,-26.62306 q -4.85354,-6.95911 -8.67213,-12.99034 h -0.21412 q 0.46394,6.53086 0.46394,15.23867 v 24.37473 h -5.8171 v -47.75021 h 5.78141 z m 49.57028,-22.34053 q -3.96134,0 -7.42305,1.28476 -3.42602,1.24907 -5.95985,3.7829 -2.53383,2.49814 -3.99703,6.24536 -1.4632,3.71152 -1.4632,8.67212 0,4.92491 1.35614,8.56506 1.35613,3.60446 3.85427,5.99554 2.49815,2.35539 5.99554,3.4974 3.53309,1.14201 7.85131,1.14201 1.17769,0 2.49814,-0.10707 1.32045,-0.14275 2.64089,-0.35687 1.35614,-0.24982 2.60521,-0.53532 1.28476,-0.32119 2.28401,-0.67807 v 5.13904 q -2.10557,0.82082 -4.88922,1.24907 -2.78364,0.46394 -5.71004,0.46394 -5.95985,0 -10.56357,-1.64164 -4.60372,-1.67732 -7.74424,-4.78216 -3.10483,-3.10483 -4.71078,-7.5658 -1.60595,-4.49665 -1.60595,-10.171 0,-5.56729 1.67732,-10.24239 1.71302,-4.67509 4.88923,-8.02974 3.21189,-3.35465 7.74424,-5.21041 4.56803,-1.89145 10.24238,-1.89145 1.49888,0 2.96208,0.14275 1.4632,0.10706 2.78365,0.35688 1.35613,0.21412 2.49814,0.53531 1.14201,0.32119 1.96282,0.67807 v 5.13904 q -2.14126,-0.71376 -4.67509,-1.1777 -2.53383,-0.49963 -5.10335,-0.49963 z m 25.69517,38.22158 h 24.4818 v 5.2461 h -30.2989 v -47.75021 h 28.97845 v 5.2461 h -23.16135 v 15.41711 h 20.59183 v 5.2461 h -20.59183 z"
       id="text2"
       style="font-size:73.0885px;font-family:Corbel;-inkscape-font-specification:'Corbel, Normal';white-space:pre;display:inline"
       transform="scale(0.26458333)"
       aria-label="ENTRANCE"
       inkscape:label="ENTRANCE" />
  </g>
</svg>
