<?xml version="1.0" encoding="UTF-8" standalone="no"?>
<!-- Created with Inkscape (http://www.inkscape.org/) -->

<svg
   width="210mm"
   height="297mm"
   viewBox="0 0 210 297"
   version="1.1"
   id="svg1"
   inkscape:version="1.3.2 (091e20e, 2023-11-25, custom)"
   sodipodi:docname="In Flower Text.svg"
   inkscape:export-filename="ENTRANCE_Text.svg"
   inkscape:export-xdpi="96"
   inkscape:export-ydpi="96"
   xmlns:inkscape="http://www.inkscape.org/namespaces/inkscape"
   xmlns:sodipodi="http://sodipodi.sourceforge.net/DTD/sodipodi-0.dtd"
   xmlns="http://www.w3.org/2000/svg"
   xmlns:svg="http://www.w3.org/2000/svg">
  <sodipodi:namedview
     id="namedview1"
     pagecolor="#ffffff"
     bordercolor="#000000"
     borderopacity="0.25"
     inkscape:showpageshadow="2"
     inkscape:pageopacity="0.0"
     inkscape:pagecheckerboard="0"
     inkscape:deskcolor="#d1d1d1"
     inkscape:document-units="mm"
     inkscape:zoom="2.175463"
     inkscape:cx="356.47584"
     inkscape:cy="219.72334"
     inkscape:window-width="1920"
     inkscape:window-height="1052"
     inkscape:window-x="-8"
     inkscape:window-y="-8"
     inkscape:window-maximized="1"
     inkscape:current-layer="layer1" />
  <defs
     id="defs1">
    <rect
       x="167.78038"
       y="255.11811"
       width="366.35879"
       height="97.910192"
       id="rect2" />
  </defs>
  <g
     inkscape:label="Layer 1"
     inkscape:groupmode="layer"
     id="layer1">
    <path
       style="font-size:4.93889px;font-family:Corbel;-inkscape-font-specification:'Corbel, Normal';white-space:pre;inline-size:43.3117;display:none;stroke-width:0.264583"
       d="m 35.923638,45.729729 v -3.226677 h 0.393086 v 3.226677 z m 2.869766,-1.427648 q 0.296622,0.426847 0.58601,0.87781 h 0.01447 q -0.03135,-0.470255 -0.03135,-0.959803 v -1.717036 h 0.393086 v 3.226677 h -0.390674 l -1.266073,-1.79903 Q 37.7709,43.460444 37.512862,43.052889 h -0.01447 q 0.03135,0.441317 0.03135,1.029739 v 1.647101 h -0.393085 v -3.226677 h 0.390674 z m 3.163976,1.427648 h -0.393086 v -3.226677 h 1.924431 v 0.3545 H 41.95738 v 1.041797 h 1.357712 v 0.3545 H 41.95738 Z m 2.491149,-3.226677 v 2.872176 h 1.574754 v 0.354501 h -1.967839 v -3.226677 z m 4.478281,1.61575 q 0,-0.325562 -0.08441,-0.573953 -0.0844,-0.248392 -0.233922,-0.41479 -0.147105,-0.166398 -0.349677,-0.250803 -0.20016,-0.08682 -0.431671,-0.08682 -0.23151,0 -0.434082,0.08682 -0.20016,0.08441 -0.349677,0.250803 -0.147106,0.166398 -0.23151,0.41479 -0.08441,0.248391 -0.08441,0.573953 0,0.325561 0.08441,0.573953 0.08682,0.24598 0.233922,0.412378 0.149517,0.166398 0.349677,0.250803 0.202571,0.0844 0.436494,0.0844 0.23151,0 0.429259,-0.0844 0.20016,-0.0844 0.347265,-0.250803 0.149517,-0.166398 0.233922,-0.412378 0.08441,-0.248392 0.08441,-0.573953 z m 0.41479,0 q 0,0.366558 -0.106109,0.672827 -0.106109,0.306269 -0.303858,0.528133 -0.197748,0.221864 -0.47749,0.347266 -0.27733,0.12299 -0.622184,0.12299 -0.356912,0 -0.639066,-0.12299 -0.282153,-0.125402 -0.47749,-0.347266 -0.195337,-0.221864 -0.299035,-0.528133 -0.103697,-0.306269 -0.103697,-0.672827 0,-0.36897 0.106109,-0.675239 0.108521,-0.308681 0.303858,-0.530545 0.197748,-0.221864 0.47749,-0.344854 0.279742,-0.125402 0.627007,-0.125402 0.354501,0 0.634243,0.125402 0.282153,0.12299 0.47749,0.344854 0.195337,0.221864 0.299034,0.530545 0.103698,0.306269 0.103698,0.675239 z m 2.462209,-1.082794 q -0.03858,0.221864 -0.180867,0.776525 l -0.501606,1.917196 h -0.40032 L 49.72745,42.503052 h 0.412378 l 0.545014,1.89308 q 0.130225,0.455786 0.221864,0.819933 h 0.0096 q 0.04823,-0.224276 0.103697,-0.436494 0.05788,-0.212218 0.101286,-0.378616 l 0.49196,-1.897903 h 0.390673 l 0.49196,1.897903 q 0.180868,0.684885 0.204983,0.81511 h 0.0096 q 0.08199,-0.33762 0.221864,-0.819933 l 0.545014,-1.89308 h 0.412378 l -0.993566,3.226677 h -0.40032 L 51.994229,43.812533 Q 51.85677,43.277165 51.813362,43.036008 Z m 2.985521,2.33922 h 1.654336 v 0.354501 h -2.047421 v -3.226677 h 1.958193 v 0.3545 H 54.78933 v 1.041797 h 1.391475 v 0.3545 H 54.78933 Z m 2.722661,-0.981508 v 1.336009 h -0.393086 v -3.226677 h 0.836814 q 0.212218,0 0.359323,0.01688 0.149518,0.01447 0.272508,0.04823 0.337619,0.09164 0.516075,0.313504 0.178456,0.219452 0.178456,0.549837 0,0.195337 -0.0627,0.349677 -0.0627,0.154341 -0.176044,0.267684 -0.113344,0.113344 -0.272507,0.185691 -0.156752,0.07235 -0.349678,0.106109 v 0.0096 l 1.053855,1.379417 H 58.980635 L 57.987069,44.39372 Z m 0,-1.536168 v 1.181668 h 0.388262 q 0.180867,0 0.308681,-0.01206 0.127813,-0.01206 0.229098,-0.04341 0.204984,-0.0627 0.315916,-0.20016 0.110932,-0.13746 0.110932,-0.359324 -0.0024,-0.207395 -0.106109,-0.332796 -0.103698,-0.127813 -0.286977,-0.183279 -0.08682,-0.02653 -0.207394,-0.03858 -0.120579,-0.01206 -0.30627,-0.01206 z"
       id="text1"
       inkscape:label="INFLOWER"
       transform="matrix(3.9154536,0,0,3.9154536,-105.03603,-122.2775)"
       aria-label="IN FLOWER" />
    <path
       d="m 179.66527,313.35959 h 24.48179 v 5.2461 h -30.29889 v -47.75021 h 28.97845 v 5.2461 h -23.16135 v 15.41711 h 20.59183 v 5.2461 h -20.59183 z m 58.99184,-15.88105 q 4.38959,6.31673 8.67212,12.99034 h 0.21413 q -0.46394,-6.95911 -0.46394,-14.20372 v -25.40968 h 5.8171 v 47.75021 h -5.78142 l -18.73606,-26.62306 q -4.85353,-6.95911 -8.67212,-12.99034 h -0.21413 q 0.46394,6.53086 0.46394,15.23867 v 24.37473 h -5.8171 v -47.75021 h 5.78141 z m 43.50336,21.12715 h -5.8171 v -42.50411 h -15.95242 v -5.2461 h 37.72195 v 5.2461 h -15.95243 z m 29.26395,-19.77102 v 19.77102 h -5.8171 v -47.75021 h 12.38365 q 3.14052,0 5.31747,0.24982 2.21264,0.21412 4.03272,0.71375 4.99628,1.35614 7.63718,4.63941 2.64089,3.24758 2.64089,8.1368 0,2.89071 -0.92788,5.17473 -0.92788,2.28401 -2.60521,3.96134 -1.67732,1.67732 -4.03271,2.74795 -2.31971,1.07064 -5.17473,1.57026 v 0.14276 l 15.59555,20.41339 h -7.31599 l -14.70335,-19.77102 z m 0,-22.73309 v 17.487 h 5.74573 q 2.67658,0 4.56803,-0.17844 1.89145,-0.17844 3.39034,-0.64238 3.03346,-0.92788 4.67509,-2.96208 1.64164,-2.03421 1.64164,-5.31748 -0.0357,-3.06914 -1.57026,-4.92491 -1.53457,-1.89145 -4.24684,-2.71227 -1.28476,-0.39256 -3.06915,-0.571 -1.78439,-0.17844 -4.53234,-0.17844 z m 32.6186,42.50411 19.44982,-47.75021 h 5.03197 l 19.44982,47.75021 h -6.31673 l -5.71004,-14.38217 h -19.94945 l -5.71004,14.38217 z m 21.91227,-40.32716 q -3.17621,8.92194 -6.1026,16.20224 l -1.78439,4.49666 h 15.80967 l -1.78439,-4.49666 q -2.92639,-7.42305 -5.99554,-16.20224 z m 53.85282,19.20001 q 4.38959,6.31673 8.67212,12.99034 h 0.21412 q -0.46394,-6.95911 -0.46394,-14.20372 v -25.40968 h 5.81711 v 47.75021 h -5.78142 l -18.73606,-26.62306 q -4.85354,-6.95911 -8.67213,-12.99034 h -0.21412 q 0.46394,6.53086 0.46394,15.23867 v 24.37473 h -5.8171 v -47.75021 h 5.78141 z m 49.57028,-22.34053 q -3.96134,0 -7.42305,1.28476 -3.42602,1.24907 -5.95985,3.7829 -2.53383,2.49814 -3.99703,6.24536 -1.4632,3.71152 -1.4632,8.67212 0,4.92491 1.35614,8.56506 1.35613,3.60446 3.85427,5.99554 2.49815,2.35539 5.99554,3.4974 3.53309,1.14201 7.85131,1.14201 1.17769,0 2.49814,-0.10707 1.32045,-0.14275 2.64089,-0.35687 1.35614,-0.24982 2.60521,-0.53532 1.28476,-0.32119 2.28401,-0.67807 v 5.13904 q -2.10557,0.82082 -4.88922,1.24907 -2.78364,0.46394 -5.71004,0.46394 -5.95985,0 -10.56357,-1.64164 -4.60372,-1.67732 -7.74424,-4.78216 -3.10483,-3.10483 -4.71078,-7.5658 -1.60595,-4.49665 -1.60595,-10.171 0,-5.56729 1.67732,-10.24239 1.71302,-4.67509 4.88923,-8.02974 3.21189,-3.35465 7.74424,-5.21041 4.56803,-1.89145 10.24238,-1.89145 1.49888,0 2.96208,0.14275 1.4632,0.10706 2.78365,0.35688 1.35613,0.21412 2.49814,0.53531 1.14201,0.32119 1.96282,0.67807 v 5.13904 q -2.14126,-0.71376 -4.67509,-1.1777 -2.53383,-0.49963 -5.10335,-0.49963 z m 25.69517,38.22158 h 24.4818 v 5.2461 h -30.2989 v -47.75021 h 28.97845 v 5.2461 h -23.16135 v 15.41711 h 20.59183 v 5.2461 h -20.59183 z"
       id="text2"
       style="font-size:73.0885px;font-family:Corbel;-inkscape-font-specification:'Corbel, Normal';white-space:pre;display:inline"
       transform="scale(0.26458333)"
       aria-label="ENTRANCE"
       inkscape:label="ENTRANCE" />
    <path
       d="m 43.404861,16.744163 v 0.03777 l 1.397473,-0.03777 h 2.067882 v -2.870484 h 1.463569 v 2.870484 h 1.860149 V 18 h -1.860149 v 3.654202 H 46.870216 V 18 H 41.73356 v -1.076432 l 3.720298,-7.8938314 h 1.576878 z m 15.003946,-3.219852 q 0,-0.812045 -0.188847,-1.454127 -0.179406,-0.651525 -0.519331,-1.095317 -0.330484,-0.453234 -0.812045,-0.689293 -0.472119,-0.245502 -1.066989,-0.245502 -0.594871,0 -1.076432,0.245502 -0.472119,0.236059 -0.812045,0.689293 -0.339926,0.443792 -0.519331,1.095317 -0.179405,0.642082 -0.179405,1.454127 0,0.802602 0.179405,1.454127 0.188848,0.642082 0.519331,1.085874 0.339926,0.443792 0.821487,0.689294 0.481562,0.236059 1.076432,0.236059 0.59487,0 1.066989,-0.236059 0.481562,-0.245502 0.812045,-0.689294 0.339926,-0.443792 0.519331,-1.085874 0.179405,-0.651525 0.179405,-1.454127 z m 1.529666,0 q 0,1.000892 -0.283271,1.869591 -0.273829,0.859257 -0.802603,1.491897 -0.528773,0.632639 -1.293606,0.99145 -0.755391,0.358811 -1.727956,0.358811 -1.000893,0 -1.775168,-0.358811 -0.764833,-0.358811 -1.293606,-0.99145 -0.519331,-0.63264 -0.793161,-1.491897 -0.264386,-0.868699 -0.264386,-1.869591 0,-1.010335 0.273829,-1.869592 0.283271,-0.868699 0.812045,-1.501339 0.528773,-0.6420819 1.293606,-1.0008924 0.764833,-0.3588105 1.737399,-0.3588105 0.99145,0 1.756283,0.3588105 0.774275,0.3588105 1.293606,1.0008924 0.528773,0.63264 0.79316,1.501339 0.273829,0.859257 0.273829,1.869592 z m 6.175319,-3.134871 q 0.840372,0 1.548551,0.245502 0.717621,0.236059 1.227509,0.708178 0.519331,0.472119 0.802603,1.170856 0.292714,0.689294 0.292714,1.595762 0,0.906469 -0.273829,1.671302 -0.264387,0.755391 -0.774276,1.303049 -0.509888,0.538216 -1.246394,0.849814 -0.736506,0.302157 -1.671302,0.302157 -0.99145,0 -1.775168,-0.396581 -0.774275,-0.39658 -1.312491,-1.133085 -0.538216,-0.736506 -0.821487,-1.784611 -0.283272,-1.048104 -0.283272,-2.351153 0,-1.000892 0.151078,-1.935688 0.160521,-0.9442386 0.462677,-1.7657259 0.311599,-0.8309296 0.755391,-1.5107812 0.453234,-0.6892939 1.048104,-1.1802978 0.59487,-0.5004463 1.331376,-0.7742753 0.736506,-0.2738291 1.605205,-0.2738291 0.717621,0.00944 1.236952,0.1416357 0.519331,0.1321934 0.868699,0.3021562 V 6.8013344 Q 68.908737,6.6502562 68.379964,6.5275053 67.85119,6.4047543 67.284647,6.4047543 q -0.679851,0 -1.321933,0.2832715 -0.63264,0.2738291 -1.151971,0.8592568 -0.519331,0.5759853 -0.887584,1.4730116 -0.35881,0.887584 -0.500446,2.1150938 h 0.03777 q 0.59487,-0.339926 1.293607,-0.538216 0.698736,-0.207732 1.359703,-0.207732 z m -0.03777,6.600225 q 0.500447,0 0.934796,-0.179405 0.43435,-0.179405 0.755391,-0.528774 0.321041,-0.349368 0.500446,-0.859256 0.188848,-0.519331 0.188848,-1.180298 0,-0.708179 -0.19829,-1.18974 -0.188848,-0.491004 -0.528774,-0.793161 -0.330483,-0.302156 -0.783717,-0.434349 -0.443792,-0.132194 -0.953681,-0.132194 -0.670409,0 -1.369146,0.23606 -0.698736,0.23606 -1.265279,0.575985 -0.0094,1.133086 0.188848,1.982901 0.207732,0.840372 0.566543,1.397472 0.35881,0.557101 0.859257,0.83093 0.509888,0.273829 1.104758,0.273829 z"
       id="text3"
       style="font-size:19.338px;font-family:Corbel;-inkscape-font-specification:'Corbel, Normal';display:none;stroke-width:0.264583"
       aria-label="406"
       inkscape:label="406" />
    <path
       d="m 59.394802,96.031795 q 0,1.104759 -0.273829,2.077324 -0.273829,0.972565 -0.83093,1.756283 -0.547658,0.774278 -1.378588,1.340818 -0.821487,0.56654 -1.926246,0.87814 -0.632639,0.17941 -1.369145,0.25495 -0.736506,0.0661 -1.595763,0.0661 H 49.159259 V 89.771495 h 2.889369 q 0.859257,0 1.595763,0.07554 0.736506,0.0661 1.369145,0.245502 1.104759,0.311599 1.926246,0.8687 0.83093,0.5571 1.369146,1.321933 0.547658,0.755391 0.812045,1.709071 0.273829,0.944239 0.273829,2.039555 z m -1.62409,0 q 0,-1.82238 -0.79316,-2.955466 -0.79316,-1.133086 -2.275614,-1.605205 -0.566543,-0.179405 -1.265279,-0.245502 -0.698737,-0.0661 -1.576878,-0.0661 h -1.161413 v 9.857848 h 1.161413 q 0.878141,0 1.576878,-0.0661 0.698736,-0.0661 1.265279,-0.24551 1.482454,-0.47211 2.275614,-1.652417 0.79316,-1.180297 0.79316,-3.021562 z m 7.686099,-1.576878 q -0.500446,0 -0.934796,0.19829 -0.424907,0.19829 -0.745948,0.538216 -0.321041,0.339926 -0.519331,0.802602 -0.19829,0.453235 -0.245502,0.972566 h 4.532344 q 0,-0.528774 -0.141636,-0.982008 -0.132194,-0.462677 -0.39658,-0.802602 -0.264387,-0.339926 -0.651525,-0.528774 -0.387137,-0.19829 -0.897026,-0.19829 z m 0.802603,6.911823 q 0.727063,0 1.321933,-0.11331 0.604313,-0.12275 1.199183,-0.33992 v 1.21806 q -0.481562,0.23606 -1.189741,0.36826 -0.708178,0.14163 -1.520223,0.14163 -0.963123,0 -1.812938,-0.2455 -0.840372,-0.2455 -1.473011,-0.79316 -0.63264,-0.54766 -1.000893,-1.4258 -0.35881,-0.887583 -0.35881,-2.133978 0,-1.227509 0.339925,-2.124536 0.339926,-0.906468 0.906469,-1.510781 0.566543,-0.604312 1.303049,-0.906469 0.736506,-0.302156 1.539108,-0.302156 0.755391,0 1.406915,0.254945 0.660967,0.245501 1.142529,0.783717 0.481561,0.538216 0.75539,1.388031 0.283272,0.849814 0.283272,2.039554 0,0.113309 0,0.19829 0,0.07554 -0.0094,0.358811 h -6.156433 q 0,0.859256 0.254944,1.463569 0.264387,0.594873 0.708179,0.972563 0.453234,0.36826 1.057547,0.53822 0.604312,0.16996 1.303049,0.16996 z m 6.250857,-5.542677 q 0,0.368252 0.16052,0.604312 0.160521,0.23606 0.424908,0.387138 0.273829,0.141635 0.623197,0.236059 0.35881,0.09442 0.736506,0.169963 0.519331,0.113309 0.982008,0.254944 0.462676,0.132194 0.849814,0.406023 0.39658,0.273829 0.63264,0.745948 0.245502,0.462677 0.245502,1.208625 0,0.679855 -0.264387,1.208625 -0.264387,0.51933 -0.745948,0.87814 -0.481562,0.34937 -1.151971,0.52878 -0.670409,0.18884 -1.473012,0.18884 -0.491004,0 -0.897026,-0.0566 -0.39658,-0.0472 -0.708179,-0.13219 -0.302156,-0.0755 -0.519331,-0.16053 -0.217175,-0.085 -0.35881,-0.16052 v -1.22751 q 0.566543,0.22662 1.123643,0.35881 0.557101,0.1322 1.22751,0.1322 0.528773,0 0.953681,-0.0944 0.424907,-0.0944 0.727063,-0.27382 0.311599,-0.18885 0.472119,-0.46268 0.169963,-0.28327 0.169963,-0.651526 0,-0.377695 -0.151078,-0.623197 -0.151078,-0.245502 -0.406023,-0.406023 -0.254944,-0.16052 -0.59487,-0.264386 -0.330483,-0.103866 -0.698736,-0.188848 -0.481561,-0.103866 -0.982008,-0.245502 -0.491004,-0.141636 -0.897026,-0.39658 -0.406022,-0.254944 -0.660967,-0.689294 -0.245502,-0.443792 -0.245502,-1.133086 0,-0.708178 0.254945,-1.227509 0.254944,-0.519331 0.689293,-0.859257 0.43435,-0.339926 1.010335,-0.509889 0.575986,-0.169963 1.218068,-0.169963 0.745948,0 1.378588,0.141636 0.642082,0.141636 1.161413,0.35881 v 1.246395 q -0.566543,-0.217175 -1.151971,-0.349368 -0.575985,-0.141636 -1.18974,-0.151078 -0.519331,0 -0.887584,0.103866 -0.368253,0.103866 -0.604313,0.292714 -0.236059,0.179405 -0.349368,0.434349 -0.103866,0.245502 -0.103866,0.547659 z m 6.968478,6.581337 v -8.97026 h 1.463569 v 8.97026 z M 79.44098,91.348373 v -1.633532 h 1.539108 v 1.633532 z m 5.438811,6.628553 q 0,1.057547 0.254944,1.727956 0.254944,0.670408 0.642082,1.048108 0.39658,0.36825 0.859257,0.50988 0.462676,0.1322 0.878141,0.1322 0.679852,0 1.274722,-0.27383 0.59487,-0.27383 1.048104,-0.74595 V 95.682427 Q 89.71429,95.512464 89.497116,95.295289 89.279941,95.078114 88.987227,94.898709 88.703956,94.709861 88.335703,94.58711 87.96745,94.454917 87.5331,94.454917 q -0.651524,0 -1.151971,0.264387 -0.491003,0.254944 -0.830929,0.717621 -0.330484,0.462677 -0.500447,1.114201 -0.169962,0.642082 -0.169962,1.4258 z m 2.464461,-4.777846 q 0.585428,0.0094 1.019778,0.151078 0.434349,0.141636 0.745948,0.358811 0.311599,0.207732 0.491004,0.415465 0.188847,0.207732 0.254944,0.330483 h 0.03777 l 0.302156,-1.019777 h 1.104759 v 9.49904 q 0,1.03866 -0.339926,1.80349 -0.339926,0.77428 -0.953681,1.28417 -0.613755,0.50988 -1.482454,0.75539 -0.859257,0.25494 -1.907361,0.25494 -0.887584,0 -1.58632,-0.16052 -0.698737,-0.15108 -1.095317,-0.36825 v -1.23695 q 0.321041,0.13219 0.623198,0.21717 0.302156,0.0944 0.623197,0.15108 0.321041,0.0661 0.651524,0.0944 0.339926,0.0283 0.745948,0.0283 1.576878,0 2.41725,-0.73651 0.840372,-0.7365 0.840372,-2.24728 v -1.19919 h -0.02833 q -0.481561,0.52878 -1.123643,0.80261 -0.63264,0.26438 -1.454127,0.26438 -0.377695,0 -0.812045,-0.085 -0.43435,-0.085 -0.868699,-0.28327 -0.43435,-0.20773 -0.83093,-0.53822 -0.39658,-0.33992 -0.698736,-0.84037 -0.302156,-0.50989 -0.491004,-1.199181 -0.179405,-0.689294 -0.179405,-1.595762 0,-1.255837 0.339925,-2.171748 0.339926,-0.925354 0.897027,-1.529666 0.5571,-0.604313 1.274721,-0.897027 0.717621,-0.302156 1.482454,-0.302156 z m 8.205431,1.482454 h 0.02833 q 0.245502,-0.311598 0.538216,-0.575985 0.302156,-0.273829 0.670409,-0.472119 0.368253,-0.207733 0.802603,-0.321041 0.443792,-0.113309 0.963123,-0.113309 0.613755,0 1.151971,0.169963 0.538215,0.169963 0.934795,0.547658 0.39658,0.377696 0.62319,0.99145 0.23606,0.604313 0.23606,1.491897 v 6.005352 h -1.46357 v -5.769293 q 0,-1.161413 -0.453226,-1.671301 -0.443792,-0.509889 -1.303049,-0.509889 -0.755391,0 -1.463569,0.424907 -0.708179,0.415465 -1.218068,1.151971 v 6.373605 h -1.463569 v -8.97026 h 1.133086 z m 13.540377,-1.567435 q 0,0.5571 0.22662,0.925353 0.22661,0.358811 0.60431,0.59487 0.38714,0.23606 0.88758,0.387138 0.50989,0.151078 1.05755,0.283272 0.73651,0.179405 1.44468,0.39658 0.71763,0.217174 1.27473,0.604312 0.5571,0.377695 0.89702,0.99145 0.34937,0.613755 0.34937,1.576878 0,0.982008 -0.36825,1.699628 -0.35881,0.70818 -1.01034,1.17086 -0.64208,0.45323 -1.53911,0.67041 -0.89702,0.22661 -1.96401,0.22661 -0.491,0 -1.01034,-0.0661 -0.50988,-0.0567 -0.982,-0.16052 -0.46268,-0.10387 -0.84038,-0.23606 -0.37769,-0.1322 -0.59487,-0.26439 v -1.40692 q 0.33993,0.16997 0.76484,0.3116 0.4249,0.14164 0.87814,0.2455 0.45323,0.0944 0.91591,0.15108 0.46268,0.0567 0.8687,0.0567 0.66097,0 1.25584,-0.11331 0.60431,-0.11331 1.05754,-0.3777 0.45324,-0.26438 0.71762,-0.71762 0.26439,-0.462674 0.26439,-1.151968 0,-0.566543 -0.23606,-0.934796 -0.22662,-0.368253 -0.61375,-0.604313 -0.38714,-0.245502 -0.89703,-0.39658 -0.50045,-0.151078 -1.05755,-0.283271 -0.7365,-0.169963 -1.44468,-0.377696 -0.69874,-0.217174 -1.25584,-0.59487 -0.54766,-0.377695 -0.88758,-0.972565 -0.33049,-0.59487 -0.33049,-1.520224 0,-0.963123 0.33993,-1.652417 0.33993,-0.698736 0.92535,-1.15197 0.58543,-0.453235 1.36915,-0.670409 0.78372,-0.217175 1.6713,-0.217175 1.01034,0 1.87903,0.19829 0.87815,0.188847 1.60521,0.500446 v 1.4258 q -0.78372,-0.330484 -1.62409,-0.538216 -0.83093,-0.207732 -1.78461,-0.217175 -0.71762,0 -1.24639,0.160521 -0.52878,0.151078 -0.87815,0.443792 -0.34936,0.283271 -0.51933,0.698736 -0.16996,0.406022 -0.16996,0.906469 z m 14.04083,9.310191 q -0.18885,0.0755 -0.57599,0.14163 -0.38714,0.0661 -0.92535,0.0755 -0.70818,0 -1.22751,-0.1794 -0.51933,-0.16997 -0.8687,-0.49101 -0.33993,-0.33048 -0.50989,-0.79316 -0.16996,-0.46267 -0.16996,-1.02922 v -5.457693 h -1.72796 V 93.43514 h 1.72796 v -2.45502 h 1.46357 v 2.45502 h 2.68163 v 1.255837 h -2.68163 v 5.23108 q 0,0.311603 0.085,0.575983 0.0944,0.26439 0.28327,0.46268 0.19829,0.18885 0.50044,0.30215 0.30216,0.10387 0.72707,0.10387 0.29271,0 0.61375,-0.0472 0.33049,-0.0472 0.60432,-0.12275 z m 5.54267,0.21717 q -0.69873,0 -1.25584,-0.15108 -0.5571,-0.15107 -0.982,-0.4249 -0.41547,-0.27383 -0.70818,-0.65153 -0.29272,-0.38713 -0.46268,-0.84037 -0.13219,-0.33992 -0.18885,-0.745947 -0.0566,-0.406023 -0.0566,-0.887584 V 93.43514 h 1.46357 v 5.495466 q 0,0.745949 0.19829,1.246394 0.22662,0.56654 0.72706,0.89703 0.50989,0.32104 1.29361,0.32104 0.83093,0 1.33137,-0.35881 0.50989,-0.35881 0.72707,-0.96313 0.16052,-0.462672 0.16052,-1.142524 V 93.43514 h 1.46357 v 5.514351 q 0,0.453235 -0.0567,0.849815 -0.0472,0.387134 -0.16052,0.717624 -0.16996,0.46267 -0.47212,0.85925 -0.29271,0.38714 -0.72706,0.67041 -0.43435,0.28327 -1.01033,0.43435 -0.56655,0.16052 -1.28417,0.16052 z m 7.45948,-4.626765 q 0,0.774276 0.16997,1.406915 0.1794,0.6232 0.50989,1.06699 0.33048,0.43435 0.81204,0.67041 0.48156,0.23606 1.10476,0.23606 0.46268,0 0.84037,-0.12275 0.3777,-0.12275 0.67041,-0.3116 0.30216,-0.18885 0.50989,-0.39658 0.21717,-0.21718 0.33993,-0.39658 v -4.692866 q -0.45324,-0.462676 -1.04811,-0.736505 -0.59487,-0.283272 -1.28416,-0.283272 -0.41547,0 -0.87814,0.160521 -0.45324,0.151078 -0.84982,0.5571 -0.38714,0.406023 -0.64208,1.095317 -0.25495,0.679851 -0.25495,1.74684 z m -1.52966,0.01888 q 0,-0.934796 0.1794,-1.652417 0.18885,-0.727063 0.49101,-1.265279 0.30215,-0.538216 0.70818,-0.897026 0.40602,-0.368253 0.84037,-0.594871 0.43435,-0.226617 0.87814,-0.321041 0.45323,-0.103866 0.84981,-0.103866 0.82149,0 1.4258,0.273829 0.60432,0.273829 1.08588,0.802603 h 0.0283 v -5.542679 h 1.46356 V 102.4054 h -1.10475 l -0.30216,-1.00089 h -0.0378 q -0.16996,0.21718 -0.39658,0.44379 -0.22662,0.21718 -0.53822,0.39658 -0.30215,0.17941 -0.70817,0.28327 -0.39658,0.11331 -0.92536,0.11331 -0.7365,0 -1.44468,-0.2455 -0.70818,-0.25494 -1.26528,-0.8026 -0.54766,-0.5571 -0.88759,-1.4258 -0.33992,-0.878143 -0.33992,-2.13398 z m 10.97205,4.371815 v -8.970255 h 1.46356 v 8.970255 z m -0.0378,-11.057022 v -1.633532 h 1.5391 v 1.633532 z m 10.8965,6.581341 q 0,-0.83093 -0.20773,-1.473012 -0.19829,-0.651524 -0.56654,-1.095316 -0.35881,-0.453235 -0.85926,-0.679852 -0.50044,-0.236059 -1.09531,-0.236059 -0.59488,0 -1.09532,0.236059 -0.50045,0.226617 -0.8687,0.679852 -0.35881,0.443792 -0.56654,1.095316 -0.19829,0.642082 -0.19829,1.473012 0,0.821487 0.19829,1.473012 0.20773,0.642079 0.57598,1.085869 0.36825,0.44379 0.8687,0.67985 0.50045,0.22662 1.09532,0.22662 0.59487,0 1.08587,-0.22662 0.50045,-0.23606 0.85926,-0.67985 0.36825,-0.44379 0.56654,-1.085869 0.20773,-0.651525 0.20773,-1.473012 z m 1.52967,0 q 0,1.057547 -0.30216,1.926246 -0.30215,0.868695 -0.85925,1.491895 -0.54766,0.61375 -1.33138,0.95368 -0.78372,0.33992 -1.75628,0.33992 -1.0009,0 -1.79406,-0.33992 -0.78371,-0.33993 -1.34081,-0.95368 -0.54766,-0.6232 -0.84038,-1.491895 -0.29271,-0.868699 -0.29271,-1.926246 0,-1.066989 0.30216,-1.935689 0.30215,-0.868699 0.84981,-1.491896 0.5571,-0.623197 1.34082,-0.963123 0.79316,-0.339926 1.76573,-0.339926 0.99145,0 1.78461,0.339926 0.79316,0.339926 1.34081,0.963123 0.54766,0.623197 0.84038,1.491896 0.29271,0.8687 0.29271,1.935689 z"
       id="text4"
       style="font-size:19.338px;font-family:Corbel;-inkscape-font-specification:'Corbel, Normal';display:none;stroke-width:0.264583"
       aria-label="Design Studio"
       inkscape:label="Design Studio" />
  </g>
</svg>
